<svg xmlns="http://www.w3.org/2000/svg" viewBox="0 0 500 500"><g id="freepik--background-complete--inject-280"><g><g><g><path d="M438.944,344.2948h-180.74611c-3.2324,0-5.8623-2.6298-5.8623-5.8623V75.1591c0-3.2324,2.6299-5.8618,5.8623-5.8618h180.74611c3.23239,0,5.86229,2.6294,5.86229,5.8618V338.4325c0,3.2325-2.6299,5.8623-5.86229,5.8623ZM258.19789,69.5473c-3.0947,0-5.6123,2.5176-5.6123,5.6118V338.4325c0,3.0948,2.5176,5.6123,5.6123,5.6123h180.74611c3.09469,0,5.61229-2.5175,5.61229-5.6123V75.1591c0-3.0942-2.5176-5.6118-5.61229-5.6118h-180.74611Z" style="fill:#e0e0e0;"></path><path d="M230.51629,344.2948H49.7697c-3.2324,0-5.8618-2.6298-5.8618-5.8623V75.1591c0-3.2324,2.6294-5.8618,5.8618-5.8618H230.51629c3.2324,0,5.8623,2.6294,5.8623,5.8618V338.4325c0,3.2325-2.6299,5.8623-5.8623,5.8623ZM49.7697,69.5473c-3.0942,0-5.6118,2.5176-5.6118,5.6118V338.4325c0,3.0948,2.5176,5.6123,5.6118,5.6123H230.51629c3.09471,0,5.6123-2.5175,5.6123-5.6123V75.1591c0-3.0942-2.51759-5.6118-5.6123-5.6118H49.7697Z" style="fill:#e0e0e0;"></path></g><rect x="-4.97637" y="405.3642" width="499.99996" height=".25" style="fill:#e0e0e0;"></rect></g><rect x="46.696" y="419.6287" width="16.06" height=".25" style="fill:#e0e0e0;"></rect><rect x="165.376" y="416.9187" width="53.53" height=".25" style="fill:#e0e0e0;"></rect><rect x="63.756" y="428.9187" width="36.25" height=".25" style="fill:#e0e0e0;"></rect><rect x="373.376" y="416.7887" width="43.19" height=".25" style="fill:#e0e0e0;"></rect><rect x="425.476" y="416.7887" width="6.33" height=".25" style="fill:#e0e0e0;"></rect><rect x="311.236" y="423.0187" width="53.89" height=".25" style="fill:#e0e0e0;"></rect></g><path d="M446.15829,405.8523c.31371-3.7392-.1961-8.5767-4.5498-10.0148-7.3999-2.4449-11.7667-8.1583-11.5314-14.63,.2353-6.4716-7.5307-12.7733-13.3617-6.707-5.8311,6.0664-5.0597-4.6674-12.8388-7.2823-7.7791-2.6147-14.3815,3.7262-12.2373,9.5049,2.1441,5.7787-5.5434,9.4003-14.7346,4.4844-9.1911-4.9158-19.3104,4.0268-17.3624,11.0215,1.948,6.9946,.353,7.8445-5.465,5.4519-4.6936-1.8957-12.3811,2.0657-13.2441,8.1713l105.3251,.0001Z" style="fill:#ebebeb;"></path><path d="M411.673,238.9812c-.00851-2.9136,2.34629-5.2825,5.25979-5.2912,.5236-.0016,1.0446,.0749,1.5457,.2267-.0767-.5359-.1178-1.0764-.1231-1.6178,0-6.1767,5.0071-11.184,11.184-11.184h0c.6902,.0018,1.3789,.0665,2.0574,.1934,2.8056-4.6136,8.82021-6.0793,13.4339-3.2736,2.8746,1.7479,4.6484,4.8511,4.6961,8.2149h.1584c4.9724,.0032,9.0009,4.0368,8.99781,9.0092-.003,4.9681-4.02971,8.9948-8.99781,8.9978h-33.0245c-2.8793-.0479-5.188-2.3958-5.18769-5.2754Z" style="fill:#f0f0f0;"></path><path d="M44.1274,247.1439c-.0085-2.9136,2.3463-5.2825,5.2598-5.2912,.5236-.0016,1.0446,.0749,1.5457,.2267-.0767-.5359-.1178-1.0764-.1231-1.6178,0-6.1767,5.0071-11.184,11.184-11.184h0c.6902,.0018,1.3789,.0665,2.0574,.1934,2.8056-4.6136,8.8202-6.0793,13.4339-3.2736,2.8746,1.7479,4.6484,4.8511,4.6961,8.2149h.1584c4.9724,.0032,9.0009,4.0368,8.9978,9.0092-.003,4.9681-4.0297,8.9948-8.9978,8.9978H49.3151c-2.8793-.0479-5.188-2.3958-5.1877-5.2754Z" style="fill:#f0f0f0;"></path><path d="M185.5599,216.111c-.0085-2.9136,2.3463-5.2825,5.2598-5.2912,.5236-.0016,1.0446,.0749,1.5457,.2267-.0767-.5359-.1178-1.0764-.1231-1.6178,0-6.1767,5.0071-11.184,11.184-11.184h0c.6902,.0018,1.3789,.0665,2.0574,.1934,2.8056-4.6136,8.8202-6.0793,13.4339-3.2736,2.8746,1.7479,4.64841,4.8511,4.6961,8.2149h.1584c4.9724,.0032,9.00091,4.0368,8.9978,9.0092-.003,4.9681-4.0297,8.9948-8.9978,8.9978h-33.0245c-2.8793-.0479-5.188-2.3958-5.1877-5.2754Z" style="fill:#f5f5f5;"></path><path d="M168.5202,49.3321c-.007-2.4044,1.9363-4.3593,4.3406-4.3665,.4321-.0013,.8621,.0618,1.2756,.1871-.0633-.4422-.0972-.8883-.1016-1.3351,0-5.0973,4.1321-9.2295,9.2296-9.2295h0c.5695,.0015,1.1379,.0549,1.6978,.1596,2.3153-3.8073,7.2788-5.0169,11.0863-2.7015,2.3722,1.4424,3.836,4.0033,3.8754,6.7793h.1307c4.10341,.0026,7.4279,3.3313,7.42541,7.4348-.00251,4.0999-3.32551,7.4229-7.42541,7.4253h-27.2533c-2.3761-.0395-4.2813-1.9771-4.2811-4.3535Z" style="fill:#f5f5f5;"></path><path d="M307.12539,47.7389c-.00539-1.8613,1.499-3.3747,3.3603-3.3803,.3345-.001,.66731,.0479,.9875,.1448-.049-.3423-.0753-.6876-.0787-1.0335,0-3.946,3.1989-7.145,7.145-7.145h0c.441,.0011,.8809,.0425,1.3144,.1236,1.7924-2.9475,5.6349-3.8839,8.5824-2.0914,1.8364,1.1166,2.9696,3.0991,3.0001,5.2481h.1012c3.1767,.0021,5.7503,2.579,5.7483,5.7556-.00189,3.174-2.5744,5.7465-5.7483,5.7484h-21.098c-1.8394-.0306-3.3144-1.5306-3.3142-3.3703Z" style="fill:#f5f5f5;"></path><path d="M407.31149,282.8551c-.0054-1.8486,1.4887-3.3516,3.3373-3.3571,.33221-.0011,.6628,.0475,.9807,.1438-.0487-.34-.0747-.683-.0781-1.0265,0-3.919,3.1769-7.096,7.0961-7.096h0c.4379,.0011,.8748,.0422,1.3053,.1227,1.7801-2.9273,5.5963-3.8572,8.5236-2.0771,1.8239,1.1091,2.9494,3.078,2.97961,5.2123h.10049c3.1549,.002,5.7109,2.5612,5.709,5.7161-.0019,3.1522-2.5568,5.7071-5.709,5.709h-20.95349c-1.82681-.0304-3.29171-1.5201-3.29151-3.3472Z" style="fill:#f5f5f5;"></path><path d="M229.66109,92.4356c-.0085-2.9136,2.3463-5.2825,5.2598-5.2912,.5236-.0016,1.0446,.0749,1.5457,.2267-.0767-.5359-.1178-1.0764-.1231-1.6178,0-6.1767,5.0071-11.184,11.184-11.184h0c.6902,.0018,1.3789,.0665,2.0574,.1934,2.8056-4.6136,8.8202-6.0793,13.4339-3.2736,2.8746,1.7479,4.6484,4.8511,4.6961,8.2149h.1585c4.9723,.0032,9.0008,4.0368,8.9977,9.0092-.003,4.9681-4.0297,8.9948-8.9977,8.9978h-33.0246c-2.8793-.0479-5.188-2.3958-5.1877-5.2754Z" style="fill:#f0f0f0;"></path><g><path d="M478.72,146.7588c-1.86491-1.1178-4.01841-1.6599-6.19031-1.5581-1.3235-1.6011-.2561-4.0559,1.046-5.6995,1.3021-1.6437,2.86031-3.5221,2.3694-5.5714-.7258-3.0738-5.0377-3.1806-8.1329-2.5829-.8698-2.0042-1.43819-4.1263-1.6864-6.2971-.555-2.1345-2.2413-4.2692-4.4187-4.077-2.1773,.1921-3.2873,2.5615-5.2938,3.0311-.15429,.0361-.3125,.033-.4695,.0416-1.3926-3.3404-2.9171-7.5059,1.7717-9.3912,1.5849-.443,2.9707-1.4147,3.9277-2.7537,.8512-2.066,.106-4.4453-1.7717-5.6567-1.862-1.125-4.0178-1.6678-6.1904-1.5582-1.3448-1.6224-.2562-4.0557,1.0246-5.6995,1.2809-1.6436,2.8818-3.5435,2.3907-5.5712-.747-3.0739-5.0375-3.1806-8.1542-2.583-.8575-2.0085-1.4254-4.1288-1.6863-6.2971-.5551-2.1345-2.1346-4.2692-4.3973-4.0771s-3.2873,2.5615-5.2938,3.0312-4.2692-1.5156-6.1691-3.0524c-.3149-.2548-.67-.4833-1.0378-.6954,.7602-1.1596,1.28811-2.404,.9738-3.702-.7258-3.0738-5.0376-3.1806-8.1329-2.5829-.8799-2.038-1.4484-4.1967-1.6863-6.4038-.555-2.1346-2.2412-4.2692-4.4187-4.0771-2.1773,.192-3.2873,2.5615-5.2939,3.0311-2.3267,.555-4.2692-1.5156-6.16889-3.0524-1.89991-1.537-5.01641-2.4976-6.25451-.4697-.7684,1.2168-.3202,2.903-1.0887,4.1198-1.3662,2.1345-4.5681,.7685-6.5745-.7044-2.0065-1.4729-5.1657-2.7964-6.5746-.7471-.357,.671-.6159,1.39-.7685,2.1345-.6153,1.7371-2.047,2.9211-3.59619,4.0087-.86371-1.9969-1.429-4.1097-1.67621-6.2712-.555-2.1347-2.1347-4.2694-4.3974-4.0559-2.2626,.2135-3.2872,2.5403-5.2937,3.0099-2.0066,.4696-4.2693-1.4943-6.1692-3.0525-1.8998-1.5583-5.0163-2.4975-6.2757-.4697-.7471,1.2168-.29879,2.9244-1.0886,4.1198-1.3449,2.1346-4.56819,.7899-6.5533-.683-1.9852-1.473-5.1871-2.8177-6.59589-.7685-.34781,.6751-.606,1.3928-.76851,2.1346-.9392,2.7322-3.885,4.0771-6.1691,5.8275-2.284,1.7503-4.1197,5.2298-2.1345,7.3644,.9605,1.0459,2.6468,1.4728,3.1165,2.8177,.5977,1.665-1.11,3.1806-2.4762,4.2692-2.2414,1.8998-2.66819,7.6419,.3202,9.2215,.5205,.2736,1.1362,.4688,1.7044,.6918-2.2867,.4612-4.2051-1.5442-6.0803-3.0612-1.8998-1.5369-5.0163-2.5188-6.2757-.4909-.7472,1.2167-.299,2.9244-1.0887,4.1197-1.3448,2.1347-4.56809,.7899-6.5746-.6831-2.00649-1.4728-5.1658-2.8176-6.5746-.7684-.341,.6781-.599,1.3947-.7684,2.1347-.9392,2.7322-3.885,4.077-6.1904,5.8274-2.3053,1.7504-4.0985,5.2298-2.1345,7.3645,.9392,1.0459,2.6255,1.4728,3.1165,2.8175,.4908,1.3449-1.1314,3.1808-2.4762,4.2694-.7532,.6394-1.2945,1.7028-1.5795,2.8914-.82939-.339-1.6377-.8164-2.3056-1.3119-1.9852-1.4729-5.1871-2.8177-6.5745-.7684-.364,.6701-.6299,1.389-.7899,2.1346-.9392,2.7323-3.885,4.0771-6.1691,5.8274-2.284,1.7505-4.1197,5.2299-2.1346,7.3644,.9606,1.0461,2.6469,1.473,3.1166,2.8177,.5976,1.665-1.11,3.1592-2.4762,4.2692-2.1347,1.9212-2.6683,7.6633,.3202,9.243,1.2593,.6403,3.0951,.8538,3.394,2.2414,.2988,1.3874-.9819,2.1345-1.8144,3.1378-2.00389,2.5934-1.52589,6.3202,1.0675,8.3241,.2363,.1825,.4859,.347,.7469,.4918,.72571,.3416,1.6009,.6191,1.8571,1.3876,.123,.5588,.0633,1.1426-.1708,1.6648-.2844,1.0348-.3784,2.1124-.2775,3.1806-.0006,.3706,.1362,.7281,.3842,1.0034,.2769,.187,.6051,.284,.9392,.2775,4.2693,.192,6.4038-1.3448,9.0294,2.4121,.2177,.3816,.5256,.7041,.8967,.9393,.3602,.196,.7639,.2988,1.1739,.2988,2.9672,.2562,4.8884-1.6009,7.5992-1.9424,1.1172-.1398,1.958-.051,2.6947,.1597-.2328,1.6017,.3569,3.2774,1.7251,4.3429,.1949,.1518,.40151,.2879,.618,.4068,.5552,.2775,1.25951,.491,1.473,1.0887,.0926,.4458,.0402,.9095-.14949,1.3235-.21981,.8131-.29211,1.6589-.21351,2.4974-.0666,.4907,.2771,.9425,.7678,1.0092,.0924,.0124,.1863,.0105,.2782-.0059,3.394,.1494,5.0164-1.0459,7.087,1.8998,.1833,.2929,.4226,.5469,.7043,.7471,.291,.1493,.6123,.2295,.93921,.2349,2.32669,.192,3.86369-1.2595,5.97689-1.537,2.96711-.3628,3.58611,1.1526,6.1904,2.3694,4.1626,2.092,6.14771,.8966,6.9162-1.8998,.1976-.7906,.3189-1.5982,.3629-2.4121,.299-5.0163,5.1018-4.2693,9.1789-4.9095,3.1806-.5337-5.2512-8.5385,1.1739-11.1854,1.2472-.3331,2.34081-1.0873,3.0952-2.1346,.6614-1.6326,.0701-3.5048-1.4088-4.4613-1.4669-.8767-3.1602-1.3-4.867-1.2168-.42159-.5164-.5251-1.1341-.4439-1.7719,.0485,.0664,.0962,.1222,.1451,.1923,.2298,.3784,.5349,.7053,.8965,.9605,.3725,.1841,.7802,.286,1.1953,.2989,2.9673,.2347,4.88841-1.601,7.5992-1.9426,3.757-.4908,4.5468,1.4517,7.8554,3.0099,2.4546,1.2323,4.3105,1.5281,5.6907,1.1244,.3822,.7829,.9232,1.5008,1.6565,2.0724,.2478,.1931,.51061,.3662,.7857,.5174,.7257,.3416,1.601,.6191,1.8571,1.3876,.113,.5594,.0535,1.14-.1708,1.6648-.2843,1.0348-.3783,2.1124-.27739,3.1806-.00941,.3721,.12859,.7329,.38419,1.0034,.2769,.187,.605,.284,.9391,.2775,4.2694,.192,6.4039-1.3448,9.0082,2.4121,.2241,.3767,.5307,.6979,.89651,.9393,.36889,.1937,.77869,.2961,1.19539,.2988,2.9458,.2562,4.8884-1.6009,7.5992-1.9424,3.757-.4698,4.5467,1.4513,7.85541,3.0096,5.16589,2.5402,7.68459,.982,8.66659-2.5615,.2679-1.0045,.4252-2.0352,.4697-3.0739,.3001-5.0021,4.0406-5.4714,8.1654-5.8442,.17631,1.5182,.9334,2.9681,2.2342,3.9821,.2478,.1931,.5105,.366,.7856,.5174,.7044,.3415,1.5797,.6191,1.8572,1.3661,.1134,.5665,.0539,1.1541-.17069,1.6863-.29121,1.0335-.39241,2.111-.29891,3.1806-.0008,.3706,.1361,.728,.3842,1.0033,.2836,.19,.6194,.287,.96071,.2775,4.26919,.1921,6.40369-1.3447,9.008,2.4121,.22409,.3768,.53059,.698,.89649,.9392,.3603,.1962,.7638,.299,1.1741,.2989,2.9671,.2561,4.9095-1.601,7.5992-1.9425,3.7569-.4696,4.5468,1.4515,7.8553,3.0098,5.1658,2.5829,7.6846,1.0886,8.6665-2.4549,.2496-1.0075,.3998-2.037,.4482-3.0739,.3843-6.4037,6.4039-5.3792,11.6551-6.233,4.0557-.6831-6.6601-10.9078,1.49411-14.1951,1.58869-.435,2.97709-1.4085,3.92769-2.7536,.8512-2.066,.1061-4.4453-1.77169-5.6568Zm-54.66761,9.0678c.4737,.2659,.8417,.6038,.9608,1.1143,.1083,.4641,.0082,.8709-.19819,1.2503-.30311-.7744-.57871-1.5731-.76261-2.3646Z" style="fill:#e6e6e6;"></path><path d="M436.30539,160.0788s-10.7798,15.2411-14.494,20.0653c-3.71439,4.8243-22.28539,34.901-24.8043,54.8169-.2774,2.1345-.555,3.9491-.81109,5.55,7.98329,52.7249,6.74529,149.1879,6.40379,165.7098h-25.33779c-.23481-18.6352-2.39071-188.8703-3.18051-194.0574-.8326-5.5074-11.4203-26.4479-27.7499-35.0503-16.3299-8.6026-30.397-37.1209-30.397-37.1209h5.20841s9.66979,17.4396,23.48069,27.1094c1.9766,1.3533,4.0372,2.5796,6.1691,3.6717-.0551-10.5009,1.7741-20.9264,5.4006-30.7811l2.8177,2.5829c-3.7997,15.5612-3.2873,25.6153-2.1346,31.2293,5.1947,2.4332,9.9886,5.6434,14.21651,9.5204,14.25919-18.5498,22.264-60.9431,22.264-60.9431l3.67149,2.0065c-1.0788,8.7704-2.6898,17.4673-4.8242,26.0421-2.6682,10.972-10.545,31.635-14.1952,41.0059,4.3374,6.2969,7.9198,13.0816,10.6731,20.2148,.3862-.608,.853-1.1608,1.3875-1.6436,9.2856-8.4103,26.7467-48.0715,26.7467-48.0715,4.2691-9.2215-2.2413-33.428-2.2413-33.428h4.8882l2.1346,21.1753,12.2527-13.3626,2.2413,1.8571-12.7863,16.7567-6.7027,21.1754,17.461-19.3183,2.2415,3.2873Z" style="fill:#ebebeb;"></path></g><path d="M197.7445,405.8523c.3137-3.7392-.1961-8.5767-4.5498-10.0148-7.3999-2.4449-11.7667-8.1583-11.5314-14.63,.2353-6.4716-7.5307-12.7733-13.3617-6.707-5.8311,6.0664-5.0597-4.6674-12.8388-7.2823-7.7791-2.6147-14.3815,3.7262-12.2373,9.5049,2.1441,5.7787-5.5434,9.4003-14.7346,4.4844-9.1911-4.9158-19.3104,4.0268-17.3624,11.0215,1.948,6.9946,.353,7.8445-5.465,5.4519-4.6936-1.8957-12.3811,2.0657-13.2441,8.1713l105.3251,.0001Z" style="fill:#ebebeb;"></path><g><path d="M222.65579,146.7588c-1.8649-1.1178-4.0184-1.6599-6.1903-1.5581-1.32349-1.6011-.2561-4.0559,1.046-5.6995,1.3021-1.6437,2.8603-3.5221,2.3694-5.5714-.7258-3.0738-5.0377-3.1806-8.13289-2.5829-.86981-2.0042-1.43821-4.1263-1.68641-6.2971-.555-2.1345-2.2413-4.2692-4.4187-4.077-2.1773,.1921-3.2873,2.5615-5.2938,3.0311-.1543,.0361-.3125,.033-.4695,.0416-1.39259-3.3404-2.9171-7.5059,1.7717-9.3912,1.5849-.443,2.97071-1.4147,3.92771-2.7537,.85119-2.066,.106-4.4453-1.77171-5.6567-1.862-1.125-4.0178-1.6678-6.1904-1.5582-1.3448-1.6224-.2562-4.0557,1.0246-5.6995,1.2809-1.6436,2.8818-3.5435,2.3907-5.5712-.747-3.0739-5.0375-3.1806-8.15419-2.583-.8575-2.0085-1.4254-4.1288-1.6863-6.2971-.5551-2.1345-2.1346-4.2692-4.3973-4.0771s-3.2873,2.5615-5.2938,3.0312-4.2692-1.5156-6.1691-3.0524c-.3149-.2548-.67-.4833-1.0378-.6954,.7602-1.1596,1.2881-2.404,.9738-3.702-.7258-3.0738-5.0376-3.1806-8.1329-2.5829-.8799-2.038-1.4484-4.1967-1.6863-6.4038-.555-2.1346-2.2412-4.2692-4.4187-4.0771-2.1773,.192-3.2873,2.5615-5.2939,3.0311-2.3267,.555-4.2692-1.5156-6.1689-3.0524-1.8999-1.537-5.0164-2.4976-6.2545-.4697-.7684,1.2168-.3202,2.903-1.0887,4.1198-1.3662,2.1345-4.5681,.7685-6.5745-.7044-2.0065-1.4729-5.1657-2.7964-6.5746-.7471-.357,.671-.6159,1.39-.7685,2.1345-.6153,1.7371-2.047,2.9211-3.5962,4.0087-.8637-1.9969-1.429-4.1097-1.6762-6.2712-.555-2.1347-2.1347-4.2694-4.3974-4.0559-2.2626,.2135-3.2872,2.5403-5.2937,3.0099-2.0066,.4696-4.2693-1.4943-6.1692-3.0525-1.8998-1.5583-5.0163-2.4975-6.2757-.4697-.7471,1.2168-.2988,2.9244-1.0886,4.1198-1.3449,2.1346-4.5682,.7899-6.5533-.683-1.9852-1.473-5.1871-2.8177-6.5959-.7685-.3478,.6751-.606,1.3928-.7685,2.1346-.9392,2.7322-3.885,4.0771-6.1691,5.8275-2.284,1.7503-4.1197,5.2298-2.1345,7.3644,.9605,1.0459,2.6468,1.4728,3.1165,2.8177,.5977,1.665-1.11,3.1806-2.4762,4.2692-2.2414,1.8998-2.6682,7.6419,.3202,9.2215,.5205,.2736,1.1362,.4688,1.7044,.6918-2.2867,.4612-4.2051-1.5442-6.0803-3.0612-1.8998-1.5369-5.0163-2.5188-6.2757-.4909-.7472,1.2167-.299,2.9244-1.0887,4.1197-1.3448,2.1347-4.5681,.7899-6.5746-.6831-2.0065-1.4728-5.1658-2.8176-6.5746-.7684-.341,.6781-.599,1.3947-.7684,2.1347-.9392,2.7322-3.885,4.077-6.1904,5.8274-2.3053,1.7504-4.0985,5.2298-2.1345,7.3645,.9392,1.0459,2.6255,1.4728,3.1165,2.8175,.4908,1.3449-1.1314,3.1808-2.4762,4.2694-.7532,.6394-1.2945,1.7028-1.5795,2.8914-.8294-.339-1.6377-.8164-2.3056-1.3119-1.9852-1.4729-5.1871-2.8177-6.5745-.7684-.364,.6701-.6299,1.389-.7899,2.1346-.9392,2.7323-3.885,4.0771-6.1691,5.8274-2.284,1.7505-4.1197,5.2299-2.1346,7.3644,.9606,1.0461,2.6469,1.473,3.1166,2.8177,.5976,1.665-1.11,3.1592-2.4762,4.2692-2.1347,1.9212-2.6683,7.6633,.3202,9.243,1.2593,.6403,3.0951,.8538,3.394,2.2414,.2988,1.3874-.9819,2.1345-1.8144,3.1378-2.0039,2.5934-1.5259,6.3202,1.0675,8.3241,.2363,.1825,.4859,.347,.7469,.4918,.7257,.3416,1.6009,.6191,1.8571,1.3876,.123,.5588,.0633,1.1426-.1708,1.6648-.2844,1.0348-.3784,2.1124-.2775,3.1806-.0006,.3706,.1362,.7281,.3842,1.0034,.2769,.187,.6051,.284,.9392,.2775,4.2693,.192,6.4038-1.3448,9.0294,2.4121,.2177,.3816,.5256,.7041,.8967,.9393,.3602,.196,.7639,.2988,1.1739,.2988,2.9672,.2562,4.8884-1.6009,7.5992-1.9424,1.1172-.1398,1.958-.051,2.6947,.1597-.2328,1.6017,.3569,3.2774,1.7251,4.3429,.1949,.1518,.4015,.2879,.618,.4068,.5552,.2775,1.2595,.491,1.473,1.0887,.0926,.4458,.0402,.9095-.1495,1.3235-.2198,.8131-.2921,1.6589-.2135,2.4974-.0666,.4907,.2771,.9425,.7678,1.0092,.0924,.0124,.1863,.0105,.2782-.0059,3.394,.1494,5.0164-1.0459,7.087,1.8998,.1833,.2929,.4226,.5469,.7043,.7471,.291,.1493,.6123,.2295,.9392,.2349,2.3267,.192,3.8637-1.2595,5.9769-1.537,2.9671-.3628,3.5861,1.1526,6.1904,2.3694,4.1626,2.092,6.1477,.8966,6.9162-1.8998,.1976-.7906,.3189-1.5982,.3629-2.4121,.299-5.0163,5.1018-4.2693,9.1789-4.9095,3.1806-.5337-5.2512-8.5385,1.1739-11.1854,1.2472-.3331,2.3408-1.0873,3.0952-2.1346,.6614-1.6326,.0701-3.5048-1.4088-4.4613-1.4669-.8767-3.1602-1.3-4.867-1.2168-.4216-.5164-.5251-1.1341-.4439-1.7719,.0485,.0664,.0962,.1222,.1451,.1923,.2298,.3784,.5349,.7053,.8965,.9605,.3725,.1841,.7802,.286,1.1953,.2989,2.9673,.2347,4.8884-1.601,7.5992-1.9426,3.757-.4908,4.5468,1.4517,7.8554,3.0099,2.4546,1.2323,4.3105,1.5281,5.6907,1.1244,.3822,.7829,.9232,1.5008,1.6565,2.0724,.2478,.1931,.5106,.3662,.7857,.5174,.7257,.3416,1.601,.6191,1.8571,1.3876,.113,.5594,.0535,1.14-.1708,1.6648-.2843,1.0348-.3783,2.1124-.2774,3.1806-.0094,.3721,.1286,.7329,.3842,1.0034,.2769,.187,.605,.284,.9391,.2775,4.2694,.192,6.4039-1.3448,9.0082,2.4121,.2241,.3767,.5307,.6979,.8965,.9393,.3689,.1937,.7787,.2961,1.1954,.2988,2.9458,.2562,4.8884-1.6009,7.5992-1.9424,3.757-.4698,4.5467,1.4513,7.8554,3.0096,5.1659,2.5402,7.6846,.982,8.6666-2.5615,.2679-1.0045,.4252-2.0352,.4697-3.0739,.3001-5.0021,4.0406-5.4714,8.1654-5.8442,.1763,1.5182,.9334,2.9681,2.2342,3.9821,.2478,.1931,.5105,.366,.7856,.5174,.7044,.3415,1.5797,.6191,1.8572,1.3661,.1134,.5665,.0539,1.1541-.1707,1.6863-.2912,1.0335-.3924,2.111-.2989,3.1806-.0008,.3706,.1361,.728,.3842,1.0033,.2836,.19,.6194,.287,.9607,.2775,4.2692,.1921,6.4037-1.3447,9.008,2.4121,.2241,.3768,.5306,.698,.8965,.9392,.3603,.1962,.7638,.299,1.1741,.2989,2.9671,.2561,4.9095-1.601,7.5992-1.9425,3.7569-.4696,4.5468,1.4515,7.8553,3.0098,5.1658,2.5829,7.6846,1.0886,8.6665-2.4549,.24961-1.0075,.3998-2.037,.4482-3.0739,.3843-6.4037,6.4039-5.3792,11.6551-6.233,4.0557-.6831-6.6601-10.9078,1.4941-14.1951,1.5887-.435,2.9771-1.4085,3.9277-2.7536,.8512-2.066,.1061-4.4453-1.7717-5.6568Zm-54.6676,9.0678c.4737,.2659,.8417,.6038,.9608,1.1143,.1083,.4641,.0082,.8709-.1982,1.2503-.3031-.7744-.5787-1.5731-.7626-2.3646Z" style="fill:#e6e6e6;"></path><path d="M180.2412,160.0788s-10.7798,15.2411-14.494,20.0653c-3.7144,4.8243-22.2854,34.901-24.8043,54.8169-.2774,2.1345-.555,3.9491-.8111,5.55,7.9833,52.7249,6.7453,149.1879,6.4038,165.7098h-25.3378c-.2348-18.6352-2.3907-188.8703-3.1805-194.0574-.8326-5.5074-11.4203-26.4479-27.7499-35.0503-16.3299-8.6026-30.397-37.1209-30.397-37.1209h5.2084s9.6698,17.4396,23.4807,27.1094c1.9766,1.3533,4.0372,2.5796,6.1691,3.6717-.0551-10.5009,1.7741-20.9264,5.4006-30.7811l2.8177,2.5829c-3.7997,15.5612-3.2873,25.6153-2.1346,31.2293,5.1947,2.4332,9.9886,5.6434,14.2165,9.5204,14.2592-18.5498,22.264-60.9431,22.264-60.9431l3.6715,2.0065c-1.0788,8.7704-2.6898,17.4673-4.8242,26.0421-2.6682,10.972-10.545,31.635-14.1952,41.0059,4.3374,6.2969,7.9198,13.0816,10.6731,20.2148,.3862-.608,.853-1.1608,1.3875-1.6436,9.2856-8.4103,26.7467-48.0715,26.7467-48.0715,4.2691-9.2215-2.2413-33.428-2.2413-33.428h4.8882l2.1346,21.1753,12.2527-13.3626,2.2413,1.8571-12.7863,16.7567-6.7027,21.1754,17.461-19.3183,2.2415,3.2873Z" style="fill:#ebebeb;"></path></g></g><g id="freepik--Shadow--inject-280"><path d="M377.30519,451.0763c0,6.5745-59.0803,11.9044-131.9596,11.9044s-131.9595-5.3299-131.9595-11.9044,59.0803-11.9046,131.9595-11.9046,131.9596,5.3298,131.9596,11.9046Z" style="fill:#f5f5f5;"></path></g><g id="freepik--Plants--inject-280"><g><path d="M381.51019,405.3932c-5.844-12.3003-11.8017-25.0384-23.1637-34.2195-.44649,29.3134,13.6761,58.9333,32.7323,73.7411,.9397-13.5855-3.7245-27.2214-9.5686-39.5216Z" style="fill:#263238;"></path><path d="M409.71219,432.1549c5.2535-5.4634,10.7126-11.0721,13.2561-18.7942-15.3488,5.5368-27.9897,18.7188-31.94829,31.5541,7.25769-2.1846,13.43879-7.2966,18.69219-12.7599Z" style="fill:#263238;"></path><path d="M421.85729,404.948c2.6754-2.5147,5.4538-5.0947,6.8734-8.7686-7.5614,2.3033-13.9998,8.3716-16.2291,14.4846,3.5648-.8793,6.68041-3.2013,9.3557-5.716Z" style="fill:#263238;"></path><path d="M400.85429,379.6304c-5.17429,8.8612-8.7104,18.7951-9.3539,29.0363-.7125,11.3377-.4217,24.4234-.4217,36.2481,16.9244-25.8739,28.1268-58.2118,29.1109-89.1137-7.3814,7.1282-14.1609,14.9681-19.3353,23.8293Z" style="fill:#263238;"></path></g><g><path d="M122.0199,386.7579c9.0162-18.9769,14.6762-21.8611,32.2055-36.0257,.689,45.2248-12.9259,71.2374-42.3258,94.083-1.4499-20.9598,1.104-39.0805,10.1203-58.0573Z" style="fill:#263238;"></path><path d="M83.1518,425.129c-8.105-8.4289-30.2058-30.7604-34.13-42.6742,23.6802,8.5422,56.8611,42.558,62.9685,62.3603-11.1973-3.3704-20.7334-11.2571-28.8385-19.6861Z" style="fill:#263238;"></path><path d="M140.4213,421.8131c6.0074-5.4621,12.1766-11.14,20.5217-13.6328-6.388,16.2702-20.8817,29.4121-34.7444,33.2671,2.5564-7.7064,8.2153-14.1722,14.2227-19.6343Z" style="fill:#263238;"></path><path d="M96.8178,344.0941c7.983,13.6711,13.4385,28.9971,14.4313,44.7972,1.0992,17.492,.6505,37.6806,.6505,55.9238-26.111-39.9184-41.8304-81.6691-43.3995-132.4382,11.388,10.9974,20.3346,18.046,28.3177,31.7172Z" style="fill:#263238;"></path></g></g><g id="freepik--Worm--inject-280"><g><path d="M74.18932,333.93171c2.12561,1.48764,2.92741,3.478,2.96336,5.99574,.03143,2.20089,.2578,4.21345,1.94647,5.84589,.99852,.96527,2.27969,1.60775,3.57813,2.06516,1.49981,.52835,3.1281,.70566,4.27863,1.91177,1.47817,1.54958,1.54723,4.02402,1.70288,6.05083,.14689,1.91269,3.14811,1.92859,3,0-.18244-2.37558-.33704-5.07457-1.71589-7.10005-.94683-1.39087-2.26977-2.36276-3.83877-2.94662-1.51216-.56271-3.14884-.77057-4.47802-1.75816-1.93237-1.43578-1.32673-3.28659-1.54047-5.4385-.30739-3.09481-1.84796-5.44287-4.38216-7.21648-1.58518-1.10941-3.08608,1.49027-1.51416,2.59041h0Z" style="opacity:.3;"></path><g><path d="M75.3,333.1761c1.0681,.7431,1.9358,1.6121,2.3579,2.609,.2948,.6961,.4489,1.5998,.4885,2.7157,.0792,2.2337,.1155,4.2286,1.6826,6.0522,1.0598,1.2333,2.5238,2.1138,4.045,2.6572,1.3986,.4996,3.0709,.6395,4.1826,1.717,1.4793,1.4339,1.4525,3.9257,1.606,5.9288,.0936,1.2224,1.386,2.1032,2.5513,1.9479,1.2736-.1698,2.0418-1.3253,1.9479-2.5513-.1991-2.5981-.4661-5.4073-2.0626-7.5657-1.1745-1.5879-2.8439-2.5755-4.7105-3.1327-1.4224-.4246-2.96-.7606-3.9939-1.7952-.2405-.2407-.5426-.7725-.687-1.3132,.0913,.3417-.032-.49-.0392-.6558-.0416-.9591,.0164-1.9175-.0897-2.8744-.3364-3.0332-1.9884-5.5795-4.4792-7.3123-1.0057-.6996-2.4003-.6158-3.1863,.3866-.7242,.9237-.6231,2.4837,.3866,3.1862h0Z" style="fill:#37474F;"></path><path d="M77.0375,331.1018c-.0655,.4802-.331,.8405-.5929,.8047-.262-.0358-.4211-.454-.3556-.9342,.0656-.4802,.3311-.8405,.593-.8047s.4211,.454,.3555,.9342Z" style="fill:#263238;"></path><g><path d="M93.0477,348.3739c-1.5423,.3535-3.0678,1.3127-4.0498,2.0447,.214,.5517,.3485,1.1494,.4349,1.7646,1.1489-.9911,2.9068-1.8604,4.0912-2.3731-.1295-.49-.2808-.9722-.4763-1.4362Z" style="opacity:.3;"></path><path d="M91.2057,345.69c-.3581-.341-.7417-.648-1.1516-.917-1.4531,.7571-2.7082,2.2016-3.4745,3.2572,.5259,.2038,1.0172,.4707,1.4343,.8618,1.0188-1.3276,2.4406-2.5914,3.1918-3.202Z" style="opacity:.3;"></path><path d="M81.86,334.1853c-1.5429,.2135-3.1217,1.0281-4.1766,1.6898,.1899,.4755,.3026,1.0713,.3756,1.7338,1.282-.8974,3.1145-1.6207,4.2737-2.0144-.1213-.4866-.2827-.9549-.4727-1.4092Z" style="opacity:.3;"></path><path d="M84.7099,347.4674c.8413-1.5237,2.222-3.0969,2.9172-3.8252-.0811-.0261-.1565-.0636-.2383-.088-.4523-.135-.9124-.2682-1.368-.4106-1.3216,1.0528-2.3348,2.6955-2.8841,3.7579,.2448,.1072,.488,.2197,.7373,.3087,.2701,.0964,.5515,.1782,.8359,.2572Z" style="opacity:.3;"></path><path d="M80.4187,345.1385c1.0726-1.1502,2.6564-2.2317,3.6683-2.8507-.2438-.1579-.4842-.3207-.6922-.5288-.1293-.1294-.2747-.346-.4055-.5998-1.4952,.6477-2.859,1.8708-3.6679,2.7169,.1487,.2282,.316,.4539,.5076,.6769,.1806,.2101,.3874,.3957,.5897,.5855Z" style="opacity:.3;"></path><path d="M94.1618,354.2526c-.0372-.4854-.0803-.9787-.1305-1.4731-1.6709-.1764-3.4772,.179-4.4821,.4471,.045,.558,.0737,1.1102,.1134,1.6294,.0017,.0213,.01,.0404,.0124,.0615,1.3392-.4308,3.1576-.5391,4.475-.5425-.0012-.0418,.0149-.0803,.0118-.1224Z" style="opacity:.3;"></path><path d="M82.667,339.682c-.0178-.4963-.0203-.9923-.0267-1.4881-1.5979,.0534-3.3066,.7698-4.4498,1.3723,.0304,.6153,.0833,1.2119,.1846,1.7917,1.2874-.7775,3.0886-1.3552,4.2919-1.6759Z" style="opacity:.3;"></path><path d="M77.1881,334.9694c.8179-1.2262,2.4967-2.5088,3.3379-3.0863-.2692-.3449-.5681-.669-.8816-.9817-1.5783,.5856-2.8809,2.2426-3.4068,3.0247,.3653,.3282,.6891,.6746,.9505,1.0433Z" style="opacity:.3;"></path></g></g></g></g><g id="freepik--Character--inject-280"><g><path d="M314.68229,235.293c-5.2572-2.741-11.4197-3.2315-16.831-5.654-10.3256-4.6225-9.3895-18.7685-15.434-28.3313-6.0446-9.5629-22.2746-32.7532-56.065-14.489h0c-16.01529,1.8312-29.5616,16.4857-30.1305,32.5952-.32,9.0623,2.9585,17.802,5.4919,26.5089,2.53331,8.7068,4.3209,18.212,1.1181,26.6955-1.2809,3.3931-3.3627,6.6882-3.1451,10.3084,.2052,3.4143,2.5217,6.4415,5.4219,8.255,2.9001,1.8135,6.3278,2.5799,9.7146,3.0582,9.5986,1.3556,19.4877,.6142,28.7769-2.1574,6.9523-2.0744,13.6444-5.2839,20.8584-6.0553,7.477-.7995,15.0154,1.0818,22.5206,.616,10.2805-.6381,20.33491-6.0703,25.82891-14.783,5.49419-8.7126,5.93609-20.5833,.43049-29.2887,2.7138,2.4067,5.4276,4.8133,8.1413,7.22,2.7864-5.2333-1.4403-11.7576-6.6975-14.4985Z" style="fill:#263238;"></path><g><path d="M253.72779,362.0735c-.8975,.1795-27.64379-12.2064-37.3371-12.3859-9.6933-.1795-18.848,3.6485-21.1816,15.3769-2.3335,11.7284,2.9824,59.3689,2.9824,59.3689l25.6096-3.4822,3.35991-33.388,23.69469,10.4113,2.8721-35.901Z" style="fill:#eec1bb;"></path><path d="M215.25739,349.693s5.5482,30.5303,7.56561,35.7414c2.47289,6.3877,3.68659,8.6017,3.68659,8.6017l-2.808-42.291s-4.2329-2.3736-8.4442-2.0521Z" style="opacity:.3;"></path><g><polygon points="180.1966 436.7831 197.2127 426.2298 198.11579 425.21 198.49289 421.3444 223.93269 420.4153 223.93269 435.257 200.63159 444.6888 180.1966 436.7831" style="fill:#eec1bb;"></polygon><path d="M184.5239,433.375c-.9855,.3695-20.0803,9.4858-19.218,15.6454l.9855,2.9566s5.2973,2.3406,25.0081,0c19.7107-2.3407,32.6459-5.4205,33.2619-5.79,.6159-.3696-.3696-16.5078-.7392-16.631s-11.9496,6.406-17.4933,7.5147c0,0-2.4638-9.3626-9.1162-10.8409l-2.7102,1.4783s6.8987,4.3117,8.5002,10.4714c0,0-9.7322,1.1087-13.6743-.3696-3.9422-1.4783-4.8045-4.4349-4.8045-4.4349Z" style="fill:#263238;"></path></g></g><g><path d="M264.79679,391.8221c-.8634,.518-22.60479,28.5557-25.9134,38.6763-3.4911,10.6785-.1941,24.1963,17.62461,24.1804,11.24559-.0101,70.05339-21.3403,70.05339-21.3403,0,0-13.2479-14.5353-26.1955-14.7292l-17.2647,7.0587,15.36881-24.3483-33.67321-9.4976Z" style="fill:#eec1bb;"></path><path d="M311.09639,400.0478c1.4752-2.4276,2.7703-3.7833,5.5311-4.4521,1.75251-.4245,3.7174-.4291,5.3988,.735,4.20371,2.9102,24.7368,35.4076,23.28171,38.1561-1.45511,2.7486-30.07341,2.4252-28.94111,2.1019,1.1324-.3234,5.82111-3.2336,3.5576-5.3354-2.26349-2.1018-7.5989-3.3421-10.9941-5.8747-3.3953-2.5326-9.7486-5.4323-7.8315-9.6937,1.83411-4.077,7.3585-11.2947,9.9975-15.6371Z" style="fill:#263238;"></path><path d="M289.02679,439.6173s.603,.1261,6.4057-4.8092c5.8027-4.9352,16.8877-35.2326,16.8877-35.2326l-23.2934,40.0418Z" style="opacity:.3;"></path></g><g><path d="M204.75039,319.3389c-.9281,.8446-16.7503,10.361-16.7503,10.361l-21.9308-16.7503-11.3971,6.7347s22.6933,36.1381,37.3714,34.4112c14.6781-1.7268,30.8385-18.3517,30.8385-18.3517l-18.1317-16.4049Z" style="fill:#eec1bb;"></path><path d="M225.29349,286.0378s-4.09449,1.3109-10.65649,8.391c-6.56191,7.08-24.0029,24.6937-23.3122,24.6937s13.5795,19.1681,22.9669,21.758c9.38731,2.59,11.8641-2.2383,11.8641-2.2383l-.8623-52.6044Z" style="fill:#37474F;"></path><path d="M147.5468,300.0847s-6.754-.4508-7.4184,2.0961c-.699,2.6797,2.2719,4.4273,2.2719,4.4273,0,0-3.244,1.6092-1.5654,5.3262l1.4362,1.8191s-1.4388,.1199-.1199,4.3165c1.3189,4.1965,7.2944,4.9659,14.0158,6.3408,7.7972,1.5949,13.4416-7.3,13.4416-7.3,0,0-1.5587-11.2707-4.3164-13.5489-2.7578-2.2781-17.7454-3.4771-17.7454-3.4771Z" style="fill:#eec1bb;"></path><path d="M131.2019,276.8254c-3.2637-11.8093-.8995-22.9898,5.22-26.7395-.4088,.0528-.8167,.1162-1.2186,.2272-7.7786,2.1498-11.1314,14.5774-7.4888,27.7578,3.6427,13.1804,12.9015,22.1225,20.68,19.9727,.8092-.2236,1.5583-.5829,2.2688-1.0183-7.5038,.9691-16.007-7.7005-19.4614-20.1999Z" style="fill:#263238;"></path><path d="M156.6119,269.3142c4.2829,12.8997,1.6937,25.3693-5.7832,27.8517-7.4768,2.4825-17.01-5.9624-21.2928-18.8621-4.2829-12.8996-.9766-25.572,6.5003-28.0544,7.4768-2.4825,16.2929,6.1651,20.5757,19.0648Z" style="fill:#37474F; opacity:.3;"></path><rect x="152.48634" y="296.4179" width="4.65781" height="31.62719" transform="translate(-83.12658 57.59458) rotate(-16.68499)" style="fill:#263238;"></rect><g><path d="M161.7331,302.4113c-3.0548-.3462-10.1238,3.7359-14.4721,7.4274-.5145,.4367-1.0256,.9016-1.3478,1.4946-.3222,.5929-.4275,1.3436-.1115,1.9399,.5847,1.1037,2.1427,1.1151,3.3758,.9163,2.9821-.4809,5.8629-2.0269,8.6606-3.1659-1.3245,2.4054-1.0515,6.3049,.6014,8.4977s4.6417,3.2847,7.3188,2.6739" style="fill:#eec1bb;"></path><path d="M161.73309,302.41129c-2.80594,.08981-5.2719,1.71868-7.65587,3.04164-2.37267,1.43944-4.62333,3.09202-6.71409,4.88225-.50546,.44363-.95399,.92044-1.15794,1.45654-.79099,2.34245,2.2207,2.1591,3.70613,1.74671,2.65314-.58127,5.14565-1.87369,7.7618-2.9198,.22408-.09064,.47922,.01752,.56987,.24161,.0507,.12537,.03737,.26379-.02188,.37439-.63367,1.15692-.85847,2.55707-.82425,3.92084-.10309,4.35543,3.99975,7.83286,8.36157,7.03965-6.67464,1.69172-11.18055-5.56205-8.30334-11.38243l.54781,.61597c-2.55128,1.05698-5.05194,2.41278-7.87325,3.07892-2.27631,.69372-5.88088,.16893-4.77783-3.05019,.31589-.7758,.8889-1.32332,1.42902-1.79045,2.1597-1.84268,4.53426-3.37357,7.00011-4.73087,2.45323-1.24134,5.1237-2.71051,7.95216-2.52478h0Z" style="fill:#d4827d;"></path></g><path d="M141.4774,305.92331c2.56686,.89837,4.93697,1.71806,7.50622,2.60992-2.70319,.15331-5.47937-.81643-7.50622-2.60992h0Z" style="fill:#d4827d;"></path><path d="M142.27359,313.95239c1.9948,.82352,3.9796,1.52051,6.03825,1.96448,.92806,.16162,2.00679,.57335,2.90245,.13788,.39935-.2059,.63069-.59995,.76524-1.11957,.12741-.4902,.34808-1.04269,.11816-1.51718,.23022,.17322,.24829,.50076,.26976,.76349,.45617,5.38465-8.00219,1.49554-10.09387-.2291h0Z" style="fill:#d4827d;"></path><path d="M143.19009,319.61429c2.48868,1.04977,5.00601,1.85077,7.60828,2.26596,.57314,.08072,1.202-.02081,1.61792-.40082,1.43163-1.62781-.34795-3.75566-1.82539-4.74337,1.17325,.65963,2.31681,1.61995,2.65453,2.99894,.59878,5.51818-7.94576,1.62575-10.05534-.12071h0Z" style="fill:#d4827d;"></path><path d="M188.0001,329.6999s4.4477,4.8359,5.1852,7.0483c0,0-1.1395-5.4301-3.7543-7.9108l-1.4309,.8625Z" style="opacity:.3;"></path><path d="M159.3706,269.0404c-3.6426-13.1804-12.6462-21.942-20.4249-19.7922-.8091,.2236-1.8133,.4024-2.5238,.8377,7.5037-.9691,16.0069,7.7006,19.4614,20.2,3.2637,11.8093,.8996,22.9898-5.22,26.7394,.4088-.0528,.8167-.1161,1.2186-.2272,7.7785-2.1498,11.1313-14.5773,7.4887-27.7577Z" style="fill:#263238;"></path><path d="M150.6633,258.8256l-19.3769,23.9053,2.7528,4.9638,19.5723-23.6426s-1.7303-3.407-2.9482-5.2265Z" style="fill:#fff; opacity:.2;"></path></g><path d="M226.15579,338.6422v-29.1684l-3.801,31.7986s2.66621-.6376,3.801-2.6302Z" style="opacity:.3;"></path><g><path d="M307.07089,332.4335s15.0687,43.7708,10.5242,55.9693c-4.5446,12.1984-28.0287,51.0694-28.5683,51.2145-1.9599,.5269-8.2663-5.0518-22.3782-13.1841-14.1119-8.1323-21.2875-5.5012-23.6793-5.9796-2.3919-.4784-17.22129-18.4173-19.1348-38.748-1.91349-20.3307-6.6098-32.5963-6.6098-32.5963l9.0502,1.0575-1.0722-64.1353,12.5045-3.1094s32.29-5.262,33.24681-5.262c.95669,0,14.11189-2.3919,25.35359,0l-2.3919,18.6564,13.1552,36.117Z" style="fill:#37474F;"></path><path d="M308.23919,335.9639l-2.2863-6.5936c-4.0991-8.2159-11.9001-21.6892-12.2193-21.0509-.4191,.8383-2.4217,15.641,6.7038,26.0038,2.7299,3.1001,6.31661,2.0817,7.8018,1.6407h0Z" style="opacity:.3;"></path><path d="M226.15579,350.3548s12.4385,.7122,27.1103,7.7695c0,0-11.9489-9.9409-27.1103-10.7717v3.0022Z" style="opacity:.3;"></path><path d="M275.495,366.6119s-31.15381,47.6743-32.52571,53.848c0,0,1.9025-15.0912,12.1919-31.3827,10.2894-16.2916,20.33381-22.4653,20.33381-22.4653Z" style="opacity:.3;"></path><g><g style="opacity:.3;"><path d="M248.95359,360.2909l.0009-.0001-.016-.0023,.0151,.0024Z"></path></g><g style="opacity:.3;"><path d="M278.21629,361.9858c-9.6557,1.4406-19.5298,1.4592-29.2618-1.695,9.732,6.9508,19.6061,3.7159,29.2618,1.695Z"></path></g></g></g><path d="M325.68555,299.35645c-.07715,0-.15332-.03516-.20215-.10254-3.96973-5.43359-8.4502-10.5459-13.31543-15.19336-.09961-.0957-.10352-.25391-.00781-.35352,.09668-.09961,.25391-.10156,.35352-.00781,4.88672,4.66797,9.38574,9.80176,13.37402,15.25977,.08105,.11133,.05664,.26758-.05469,.34961-.04492,.03223-.0957,.04785-.14746,.04785Z" style="fill:#37474F;"></path><path d="M329.24707,303.75195c-.07227,0-.14355-.03125-.19238-.09082l-2.15625-2.61328c-.08789-.10645-.07324-.26367,.0332-.35156,.10645-.08887,.26465-.07324,.35156,.0332l2.15625,2.61328c.08789,.10645,.07324,.26367-.0332,.35156-.04688,.03906-.10254,.05762-.15918,.05762Z" style="fill:#37474F;"></path><g><path d="M324.69989,315.0379s11.2709,20.9153,11.9984,31.0439c.7276,10.1287-27.0138,35.8294-27.0138,35.8294l-11.9224-6.3027,15.8215-31.4087-10.186-18.4892,21.3023-10.6727Z" style="fill:#eec1bb;"></path><path d="M294.73559,277.6663s4.5445-.7175,12.6768,6.6972c8.1323,7.4147,23.4401,27.7455,23.4401,27.7455,0,0-10.82,13.5258-29.924,18.9288,0,0-10.4983-26.8219-12.1726-34.2367-1.6743-7.4147,5.9797-19.1348,5.9797-19.1348Z" style="fill:#37474F;"></path><path d="M301.14379,375.4163s-5.2686-2.045-9.1907-.084c-3.9226,1.9606-7.6554,2.3875-10.4556,4.0651-2.7997,1.6778-.074,3.9857,2.3892,4.022,2.4631,.0363,7.05-1.1987,6.8961,.727-.1531,1.9258-9.3153,14.8417-9.2323,17.5655,.0824,2.7236,2.23851,1.1795,2.23851,1.1795,0,0-2.03211,2.914-1.06311,4.5564,.9682,1.6425,2.8113,.2633,2.8113,.2633,0,0-1.2936,2.013,.2662,2.9347,1.5589,.9219,10.9151-9.8516,11.5578-10.0092,0,0-6.5026,5.58-5.646,7.7943,.8563,2.2142,4.6489-.6766,7.72681-2.9105,3.07739-2.2338,5.729-6.136,7.28459-9.8176,1.94041-4.5916,5.6969-10.313,2.71441-14.278-2.98311-3.9652-8.29721-6.0085-8.29721-6.0085Z" style="fill:#eec1bb;"></path><path d="M313.58359,344.1998s4.3395-1.6062,8.1599-.3948c0,0-2.3261-2.7327-9.1301-1.3663l.9702,1.7611Z" style="opacity:.3;"></path></g><g><g><g><path d="M268.92029,247.403c-1.1407,6.5537-.473,5.7813,.9576,12.2678,1.5509,7.0322,3.6605,16.5025,3.6605,16.5025-.5617,1.7618-7.4203,8.3371-13.7939,11.7854-10.6403,5.7563-15.1839,3.5958-15.497-6.0583-.2272-7.008-3.4582-11.7342-9.43-14.3831-13.5797-6.2068,34.1028-20.1143,34.1028-20.1143Z" style="fill:#eec1bb;"></path><path d="M275.93949,221.3398c-1.7381,21.6379-1.4931,34.3654-13.9588,45.3315-18.7354,16.5714-48.8088,6.4899-54.4009-15.1531-5.1444-19.4556-1.3982-51.5329,22.6188-59.9989,24.0166-8.4655,47.4668,8.246,45.7409,29.8205Z" style="fill:#eec1bb;"></path><path d="M230.91129,217.7009c-.1876-.1862-.3198-.4206-.382-.6771-.03729-.7066,.4955-1.3173,1.2038-1.3804,4.1054-.4531,8.1623,1.1409,10.8391,4.2589,.4271,.5475,.3259,1.338-.2261,1.7654l-.0099,.0077h0c-.5648,.4132-1.3538,.3164-1.7971-.2205h0c-2.194-2.4334-5.4516-3.6364-8.71809-3.22-.36321-.0496-.69081-.2418-.90971-.534Z" style="fill:#263238;"></path><path d="M204.96759,221.4069c-.2627-.0368-.5084-.1508-.7052-.3275-.4582-.5387-.3953-1.3454,.1413-1.8113,3.0718-2.7533,7.2942-3.8466,11.3115-2.9286,.6735,.1791,1.072,.8682,.8893,1.5394l-.01149,.0397h0c-.219,.6612-.91191,1.0448-1.59,.8803h0c-3.21951-.6764-6.57421,.2635-8.97681,2.5151-.324,.1795-.709,.2131-1.0586,.0929Z" style="fill:#263238;"></path><path d="M222.33119,237.4528l-6.0228,5.3073s1.8131,2.4531,7.8959,2.708l-1.8731-8.0153Z" style="fill:#d4827d;"></path><path d="M222.74459,252.777c.4727,2.5397,3.2809,6.5286,4.5398,7.8326l1.5458-.4724c6.9367-2.1471,9.4707-5.4476,10.1647-8.4641,.4387-2.3286,.0466-4.7328-1.10789-6.7978-3.023,3.3499-9.30421,5.8449-12.82051,7.0847-1.3901,.5627-2.3219,.817-2.3219,.817Z" style="fill:#263238;"></path><path d="M225.10189,251.9452l1.4112,2.2902c6.5592-2.0665,10.9114-4.3963,12.3622-7.0093-.21629-.8264-.5485-1.6181-.9864-2.3515-2.9896,3.3358-9.2708,5.8311-12.787,7.0706Z" style="fill:#fff;"></path><path d="M228.851,260.1869c6.93669-2.1471,9.47069-5.4477,10.16479-8.4643-2.6403,.8769-5.1053,2.2127-7.2796,3.9456-1.4067,1.1752-2.4148,2.7535-2.88519,4.5187Z" style="fill:#c15854;"></path></g><path d="M238.19729,232.4404c.2864,2.1392-.6448,4.0548-2.07529,4.2159-1.43081,.1609-2.72341-1.4456-3.04191-3.5692-.3186-2.1235,.66891-4.047,2.09191-4.2239,1.42259-.1769,2.69069,1.4616,3.02529,3.5772Z" style="fill:#263238;"></path><path d="M215.48809,233.9857c.2698,2.1473-.66109,4.063-2.0756,4.2159-1.4144,.1529-2.7311-1.4618-3.0497-3.5852-.3185-2.1235,.6606-4.0228,2.0756-4.2161,1.4148-.1929,2.7472,1.454,3.0497,3.5854Z" style="fill:#263238;"></path></g><path d="M277.543,203.6863c-6.16921-10.8353-18.333-17.5812-30.75831-18.6187-12.4252-1.0375-24.9391,3.1966-35.2023,10.2769l.2029,3.4338c1.6166,7.2816,7.7809,13.3439,15.0883,14.8389-.4829-2.6728-.9659-5.3457-1.4488-8.0185,7.6958,8.1878,17.1519,14.7129,27.5379,19.0022,2.6152,1.0801,3.0475,2.8427,3.4479,5.6436,.5492,3.8418,.0856,12.933,4.7221,25.7102,1.0738,2.9595,11.7706,36.6956,14.8966,36.322,1.0214-.1221,23.2586-11.6001,22.8351-19.0686-.8726-15.3887-25.698-33.0686-24.2766-34.641,8.3614-9.2494,9.1244-24.0454,2.95521-34.8808Z" style="fill:#263238;"></path><g><path d="M263.73079,238.8391c-.1624-3.8698,.8366-7.7481,3.065-10.9161,1.7903-2.5454,4.4644-4.8582,7.9995-3.9283,13.6173,3.5823,7.0685,23.3412-2.1806,24.1794-6.6904,.606-8.6715-4.2727-8.8839-9.335Z" style="fill:#eec1bb;"></path><path d="M271.14779,242.8901c3.24767-.3446,5.79192-3.48833,6.95995-6.31676,.89777-2.174,1.01862-4.77352-.80892-6.49615-1.33339-1.25684-3.09868-1.10021-4.63769-.30949-.42945,.22064-.05046,.86802,.37854,.6476,1.22809-.63097,2.65387-.821,3.72882,.19222,.44523,.41966,.85583,1.0588,1.06337,1.63565,.43132,1.19879,.13919,2.56426-.2863,3.72081-.52704,1.43256-1.38645,2.76792-2.43342,3.87507-1.04436,1.10439-2.40609,2.13571-3.96435,2.30105-.47503,.0504-.4802,.80095,0,.75h0Z" style="opacity:.2;"></path></g></g></g></g><g id="freepik--Speech_Bubble--inject-280"><g><g><path d="M354.78249,139.4567c-15.1439-11.1746-36.4793-7.9569-47.6537,7.1869-8.627,11.6912-8.6425,27.0552-1.2483,38.6027l-2.7532,9.8578,10.7514-1.165c.1507,.1152,.2839,.2451,.43731,.3582,15.14369,11.1746,36.479,7.9566,47.65339-7.1871,11.17461-15.144,7.9569-36.4793-7.1869-47.6535Z" style="fill:#37474F;"></path><path d="M354.78249,139.4567c-15.1439-11.1746-36.4793-7.9569-47.6537,7.1869-8.627,11.6912-8.6425,27.0552-1.2483,38.6027l-2.7532,9.8578,10.7514-1.165c.1507,.1152,.2839,.2451,.43731,.3582,15.14369,11.1746,36.479,7.9566,47.65339-7.1871,11.17461-15.144,7.9569-36.4793-7.1869-47.6535Z" style="fill:#fff; opacity:.7;"></path><path d="M372.92383,165.88623h-.00781c-.1377-.00439-.24609-.11914-.24219-.25732,.32324-10.94873-5.31738-22.00586-14.37012-28.16992-.11426-.07764-.14355-.23291-.06641-.34717,.0791-.11523,.23438-.14355,.34766-.06592,9.19043,6.25732,14.91699,17.48242,14.58887,28.59766-.00391,.13574-.11523,.24268-.25,.24268Z" style="fill:#37474F;"></path><path d="M371.78418,175.92822c-.03027,0-.06055-.00537-.08984-.0166-.12891-.0498-.19336-.19434-.14355-.32324,.59277-1.5376,.86621-3.2207,.79297-4.86719-.00586-.13818,.10059-.25488,.23926-.26074l.01074-.00049c.13281,0,.24414,.10449,.25,.23877,.07617,1.71484-.20996,3.46777-.82617,5.06934-.03809,.09912-.13281,.16016-.2334,.16016Z" style="fill:#37474F;"></path></g><path d="M332.33769,168.55c.5735-.9746,1.4101-2.05,2.5086-3.2265,.8059-.8607,1.3972-1.585,1.7752-2.1725,.3794-.5874,.56851-1.2542,.56851-2.0014,0-1.0602-.36021-1.8992-1.08051-2.5161-.7204-.6169-1.6783-.9248-2.8739-.9248-1.1483,0-2.1675,.2797-3.0577,.8392-.8915,.558-1.6413,1.3411-2.2517,2.3437l-4.4309-3.0538c1.02571-1.8355,2.4103-3.2558,4.1562-4.2597,1.7447-1.004,3.8138-1.5058,6.2061-1.5058,2.8075,0,5.0591,.7037,6.7553,2.1086,1.6962,1.4051,2.5443,3.3553,2.5443,5.8512,0,1.1762-.1647,2.2082-.4943,3.0972-.3295,.889-.7318,1.6426-1.2082,2.2581-.4752,.6169-1.0921,1.3271-1.8482,2.1306-.903,.9463-1.5621,1.7421-1.9772,2.387-.4151,.6451-.6232,1.4268-.6232,2.3451h-5.528c0-1.4918,.2862-2.7243,.8596-3.7001Zm-.5849,13.0399c-.6719-.6802-1.0077-1.5079-1.0077-2.4844,0-.975,.3294-1.7903,.9884-2.4453,.6591-.654,1.5021-.9822,2.5264-.9822,1.0257,0,1.8673,.3282,2.5264,.9822,.6591,.655,.9886,1.4703,.9886,2.4453,0,.9765-.3346,1.8042-1.0064,2.4844-.6718,.6803-1.5071,1.0198-2.5086,1.0198-1,0-1.8365-.3395-2.5071-1.0198Z" style="fill:#37474F;"></path></g></g></svg>
