<svg xmlns="http://www.w3.org/2000/svg" viewBox="0 0 500 500"><g id="freepik--Background--inject-507"><path id="freepik--background--inject-507" d="M490.93,262.06C458.35,74.44,283.69,10.57,154.38,55,31.31,97.32-12.29,252.12,15.31,350S185.52,483,300.48,472.17,511.14,378.38,490.93,262.06Z" style="fill:#37474f"></path></g><g id="freepik--shadows-2--inject-507"><path id="freepik--Shadow--inject-507" d="M69.3,345.21c-14,8.11-14,21.26,0,29.37s36.83,8.11,50.88,0,14-21.26,0-29.37S83.35,337.1,69.3,345.21Z" style="fill:#263238"></path><path id="freepik--shadow--inject-507" d="M34.44,342.13c5.4,3.12,14.16,3.12,19.56,0s5.4-8.18,0-11.29-14.16-3.12-19.57,0S29,339,34.44,342.13Z" style="fill:#263238"></path><path id="freepik--shadow--inject-507" d="M240,434.17l59.6,34.41a3.33,3.33,0,0,0,3,0l169.22-97.7a.91.91,0,0,0,0-1.72l-59.61-34.41a3.3,3.3,0,0,0-3,0L240,432.45C239.16,432.92,239.16,433.69,240,434.17Z" style="fill:#263238"></path></g><g id="freepik--shadow-1--inject-507"><path id="freepik--shadow--inject-507" d="M164.4,371.6a175,175,0,0,0,38-12.15l6.76.43c4.81.29,9,.23,13.63-1.38a14.42,14.42,0,0,0,6.94-5.82c1.73-3,1.65-5.93,1.14-9.37-.57-3.83-2-6.91-5.36-9s-7.4-3.16-10.49-5.77c-1.18-1-2.25-2.39-2-3.91a5.32,5.32,0,0,1,1.32-2.47c2.7-3.38,5.64-6.58,8-10.17,1.4-2.1,2.61-4.32,3.81-6.54,1.59-2.93,3.21-6,3.59-9.27a13.34,13.34,0,0,0-3.19-10c-1.93-2.27-4.51-3.28-6.93-4.84-1-.63-1.95-1.25-2.93-1.86-4.51-2.79-9.14-5.4-13.67-8.13l-25.7-15.45L146.05,237.1,112.63,217,80.57,197.73,53.36,181.37,34.47,170l-.83-.5C6.22,228.59.51,297.42,15.29,349.92c32.54,9.77,121.13,36.17,133.7,37.71S163.4,383.21,164.4,371.6Z" style="fill:#263238"></path></g><g id="freepik--Device--inject-507"><g id="freepik--tv-stand--inject-507"><path d="M458.36,372,305.29,460.41a5.3,5.3,0,0,1-4.81,0l-40.3-23.26a5.34,5.34,0,0,1-2.41-4.17V378.77a5.32,5.32,0,0,1,2.41-4.17l153.07-88.37a5.3,5.3,0,0,1,4.81,0l40.3,23.26a5.31,5.31,0,0,1,2.4,4.17v54.21A5.31,5.31,0,0,1,458.36,372Z" style="fill:#263238"></path><path d="M411.58,343.11a2.18,2.18,0,0,0,.74-1.28l45.11,26a2.18,2.18,0,0,1-.74,1.28L306.21,456,261.1,430Z" style="fill:#37474f"></path><path id="freepik--shadow--inject-507" d="M393.79,374.47,415.52,387a4.28,4.28,0,0,0,3.91,0l26.8-15.64a1.19,1.19,0,0,0,0-2.26L424.5,356.57a4.34,4.34,0,0,0-3.91,0l-26.8,15.65A1.19,1.19,0,0,0,393.79,374.47Z" style="opacity:0.2"></path><path d="M396.53,372.06v1.85l20.13,11.62a2.06,2.06,0,0,0,.72.25,2,2,0,0,0,1.29-.25l25.42-14.66V369l-24.69,14.3a3.49,3.49,0,0,1-1.73.41,3.56,3.56,0,0,1-1.75-.41Z" style="fill:#37474F"></path><path d="M396.53,372.06v1.85l20.13,11.62a2.06,2.06,0,0,0,.72.25,2,2,0,0,0,1.29-.25l25.42-14.66V369l-24.69,14.3a3.49,3.49,0,0,1-1.73.41,3.56,3.56,0,0,1-1.75-.41Z" style="fill:#fff;opacity:0.6000000000000001"></path><path d="M396.53,372.06v1.85l20.13,11.62a2.06,2.06,0,0,0,.72.25h.29v-2.13a3.56,3.56,0,0,1-1.75-.41Z" style="fill:#37474F;opacity:0.2"></path><path d="M415.92,383.25l-19.39-11.2a3.83,3.83,0,0,1-1.74-3v-3.59a3.87,3.87,0,0,1,1.74-3l24.69-14.23a3.88,3.88,0,0,1,3.48,0l19.39,11.19a3.87,3.87,0,0,1,1.74,3V366a3.73,3.73,0,0,1-1.74,2.95l-24.68,14.3A3.9,3.9,0,0,1,415.92,383.25Z" style="fill:#455a64"></path><path d="M417.66,358.09l-21.13,4.34a3.87,3.87,0,0,0-1.74,3V369a3.83,3.83,0,0,0,1.74,3l19.39,11.2a3.64,3.64,0,0,0,1.74.41Z" style="fill:#263238"></path><path d="M396.53,364.45l19.39,11.19a3.88,3.88,0,0,0,3.48,0l24.69-14.23a1.07,1.07,0,0,0,0-2L424.7,348.2a3.88,3.88,0,0,0-3.48,0l-24.69,14.23A1.07,1.07,0,0,0,396.53,364.45Z" style="fill:#37474f"></path><path d="M418.44,361.28a1.13,1.13,0,0,0,0,2.15,4.17,4.17,0,0,0,3.74,0,1.13,1.13,0,0,0,0-2.15A4.11,4.11,0,0,0,418.44,361.28Z" style="fill:#fafafa"></path><path d="M440.93,365.14a1.48,1.48,0,0,0-.68,1.18c0,.44.3.62.68.41a1.5,1.5,0,0,0,.68-1.18C441.61,365.11,441.3,364.92,440.93,365.14Z" style="fill:#fafafa"></path><path d="M440.93,367.77a1.48,1.48,0,0,0-.68,1.18c0,.44.3.62.68.41a1.5,1.5,0,0,0,.68-1.18C441.61,367.74,441.3,367.55,440.93,367.77Z" style="fill:#fafafa"></path><polygon points="412.32 315.33 457.43 341.38 344.66 406.49 299.55 380.44 412.32 315.33" style="fill:#37474f"></polygon><polygon points="457.43 341.38 457.43 345.92 345.05 410.81 345.05 406.26 457.43 341.38" style="fill:#455a64"></polygon><path id="freepik--shadow--inject-507" d="M335.44,382l21.74,12.55a4.32,4.32,0,0,0,3.9,0l41.85-24.16a1.19,1.19,0,0,0,0-2.25l-21.74-12.55a4.26,4.26,0,0,0-3.9,0l-41.85,24.16A1.19,1.19,0,0,0,335.44,382Z" style="opacity:0.2"></path><g id="freepik--Console--inject-507"><path d="M357.46,392l-19.39-11.19a3.87,3.87,0,0,1-1.74-3V378a3.83,3.83,0,0,1,1.74-3l39-22.51a3.81,3.81,0,0,1,3.48,0l19.39,11.19a3.87,3.87,0,0,1,1.74,3v-.23a3.87,3.87,0,0,1-1.74,3l-39,22.51A3.81,3.81,0,0,1,357.46,392Z" style="fill:#455a64"></path><path d="M359.19,362.8,338.06,375a3.83,3.83,0,0,0-1.74,3v-.22a3.87,3.87,0,0,0,1.74,3L357.46,392a3.53,3.53,0,0,0,1.74.42Z" style="fill:#263238"></path><path d="M338.06,377l19.39,11.19a3.81,3.81,0,0,0,3.48,0l39-22.51a1.06,1.06,0,0,0,0-2l-19.39-11.19a3.81,3.81,0,0,0-3.48,0l-39,22.51A1.06,1.06,0,0,0,338.06,377Z" style="fill:#263238"></path><path d="M338.06,373.33v1.85l20.12,11.62a1.95,1.95,0,0,0,2,0l39.73-22.93V362l-39,22.57a3.81,3.81,0,0,1-3.48,0Z" style="fill:#37474F"></path><path d="M338.06,373.33v1.85l20.12,11.62a1.95,1.95,0,0,0,2,0l39.73-22.93V362l-39,22.57a3.81,3.81,0,0,1-3.48,0Z" style="fill:#fff;opacity:0.6000000000000001"></path><path d="M338.06,373.33v1.85l20.12,11.62a2,2,0,0,0,.73.26h.28v-2.13a3.53,3.53,0,0,1-1.74-.42Z" style="fill:#37474F;opacity:0.2"></path><path d="M357.45,384.52l-19.39-11.19a3.87,3.87,0,0,1-1.74-3v-3.58a3.87,3.87,0,0,1,1.74-3l39-22.51a3.81,3.81,0,0,1,3.48,0l19.39,11.19a3.87,3.87,0,0,1,1.74,3V359a3.74,3.74,0,0,1-1.74,3l-39,22.57A3.81,3.81,0,0,1,357.45,384.52Z" style="fill:#455a64"></path><path d="M359.19,351.51l-21.13,12.2a3.87,3.87,0,0,0-1.74,3v3.58a3.87,3.87,0,0,0,1.74,3l19.39,11.19a3.53,3.53,0,0,0,1.74.42Z" style="fill:#263238"></path><path d="M338.06,365.72l19.39,11.2a3.88,3.88,0,0,0,3.48,0l39-22.52a1.06,1.06,0,0,0,0-2L380.53,341.2a3.81,3.81,0,0,0-3.48,0l-39,22.51A1.06,1.06,0,0,0,338.06,365.72Z" style="fill:#37474f"></path><path d="M365.1,356.83c-2.15,1.24-2.15,3.24,0,4.47a8.66,8.66,0,0,0,7.78,0c2.15-1.23,2.15-3.24,0-4.47A8.6,8.6,0,0,0,365.1,356.83Z" style="fill:#fafafa"></path><path d="M396.76,358.13a1.54,1.54,0,0,0-.68,1.19c0,.44.31.62.68.41a1.48,1.48,0,0,0,.68-1.18C397.44,358.1,397.14,357.92,396.76,358.13Z" style="fill:#fafafa"></path><path d="M396.76,360.76a1.54,1.54,0,0,0-.68,1.19c0,.44.31.62.68.41a1.48,1.48,0,0,0,.68-1.18C397.44,360.73,397.14,360.55,396.76,360.76Z" style="fill:#fafafa"></path></g><polygon points="345.05 433.61 299.94 407.57 299.94 355.53 345.05 381.57 345.05 433.61" style="fill:#263238"></polygon><polygon points="347.99 375.99 347.99 435.76 345.05 437.46 345.05 377.69 347.99 375.99" style="fill:#455a64"></polygon><g id="freepik--Books--inject-507"><path d="M339.45,433.86,312.28,418.2a2,2,0,0,0-1.85,0L289,430.43a.57.57,0,0,0,0,1.07l25.31,14.6a2.08,2.08,0,0,0,1.85,0l11.12-6.34a2.08,2.08,0,0,1,1.85,0h0a2,2,0,0,0,1.85,0l8.5-4.84C340,434.63,340,434.15,339.45,433.86Z" style="opacity:0.2"></path><g id="freepik--Book--inject-507"><polygon points="313.35 380.49 334.72 392.98 334.83 433.95 313.46 421.45 313.35 380.49" style="fill:#37474F"></polygon><path d="M334,393.66l-20.69-12a8.56,8.56,0,0,1-4.71,2.6l20.51,12A20.58,20.58,0,0,0,334,393.66Z" style="fill:#f5f5f5"></path><path d="M327.16,396.12a4.34,4.34,0,0,0,4,0l3.47-2a1.21,1.21,0,0,0,0-2.3L314.21,380l-.86.49,20,11.72c.66.39.66,1,0,1.38l-3.22,1.84a2.65,2.65,0,0,1-2.39,0l-20-11.7-1,.56Z" style="fill:#37474F"></path><path d="M327.16,396.12a4.34,4.34,0,0,0,4,0l3.47-2a1.21,1.21,0,0,0,0-2.3L314.21,380l-.86.49,20,11.72c.66.39.66,1,0,1.38l-3.22,1.84a2.65,2.65,0,0,1-2.39,0l-20-11.7-1,.56Z" style="fill:#fff;opacity:0.6000000000000001"></path><path d="M306.78,384.28l.11,41,20.38,11.84a4.41,4.41,0,0,0,4,0l3.47-2a1.38,1.38,0,0,0,.82-1.14l-.11-41a1.39,1.39,0,0,1-.82,1.15l-3.47,2a4.41,4.41,0,0,1-4,0Z" style="fill:#37474F"></path><path d="M306.78,384.28l.11,41,20.38,11.84a4.41,4.41,0,0,0,4,0l3.47-2a1.38,1.38,0,0,0,.82-1.14l-.11-41a1.39,1.39,0,0,1-.82,1.15l-3.47,2a4.41,4.41,0,0,1-4,0Z" style="fill:#fff;opacity:0.4"></path><path d="M329.15,396.61a4.11,4.11,0,0,0,2-.47l3.47-2a1.39,1.39,0,0,0,.82-1.15l.11,41a1.38,1.38,0,0,1-.82,1.14l-3.47,2a4.15,4.15,0,0,1-2,.47Z" style="fill:#37474F"></path><path d="M329.15,396.61a4.11,4.11,0,0,0,2-.47l3.47-2a1.39,1.39,0,0,0,.82-1.15l.11,41a1.38,1.38,0,0,1-.82,1.14l-3.47,2a4.15,4.15,0,0,1-2,.47Z" style="fill:#fff;opacity:0.7000000000000001"></path></g><g id="freepik--book--inject-507"><polygon points="305.98 393.86 325.78 405.43 320.35 440.22 300.55 428.65 305.98 393.86" style="fill:#37474F"></polygon><polygon points="305.98 393.86 325.78 405.43 320.35 440.22 300.55 428.65 305.98 393.86" style="opacity:0.35000000000000003"></polygon><path d="M325,406l-19.17-11.14a10.26,10.26,0,0,1-5.09,2l19,11.08A25,25,0,0,0,325,406Z" style="fill:#fff"></path><path d="M317.75,407.76a5.14,5.14,0,0,0,4,.19l3.76-1.55c1.19-.49,1.32-1.36.31-1.95l-18.89-11-.94.38,18.57,10.85c.61.36.53.88-.18,1.17l-3.49,1.42a3.11,3.11,0,0,1-2.4-.11l-18.56-10.84-1.06.44Z" style="fill:#37474F"></path><path d="M317.75,407.76a5.14,5.14,0,0,0,4,.19l3.76-1.55c1.19-.49,1.32-1.36.31-1.95l-18.89-11-.94.38,18.57,10.85c.61.36.53.88-.18,1.17l-3.49,1.42a3.11,3.11,0,0,1-2.4-.11l-18.56-10.84-1.06.44Z" style="opacity:0.2"></path><path d="M298.86,396.79l-5.43,34.79,18.89,11a5.1,5.1,0,0,0,4,.18l3.76-1.54c.59-.24.92-.58,1-.94l5.43-34.79c-.06.36-.39.7-1,.94L321.74,408a5.1,5.1,0,0,1-4-.19Z" style="fill:#37474F"></path><path d="M298.86,396.79l-5.43,34.79,18.89,11a5.1,5.1,0,0,0,4,.18l3.76-1.54c.59-.24.92-.58,1-.94l5.43-34.79c-.06.36-.39.7-1,.94L321.74,408a5.1,5.1,0,0,1-4-.19Z" style="opacity:0.30000000000000004"></path><path d="M319.68,408.26a5.07,5.07,0,0,0,2.06-.31l3.76-1.55c.59-.24.92-.58,1-.94l-5.43,34.79c-.06.36-.39.7-1,.94l-3.76,1.54a4.75,4.75,0,0,1-2.06.31Z" style="fill:#37474F"></path><path d="M319.68,408.26a5.07,5.07,0,0,0,2.06-.31l3.76-1.55c.59-.24.92-.58,1-.94l-5.43,34.79c-.06.36-.39.7-1,.94l-3.76,1.54a4.75,4.75,0,0,1-2.06.31Z" style="opacity:0.1"></path></g></g><path d="M304.71,457.46l2.68,1.74-2.11,1.22a5.31,5.31,0,0,1-4.8,0L279.05,448l-18.87-10.89a5.34,5.34,0,0,1-2.41-4.17V378.77a4.92,4.92,0,0,1,.71-2.38L305,403.11Z" style="fill:#263238"></path><path d="M302.88,404.81V459c0,1.53,1.08,2.15,2.41,1.38L458.36,372a5.31,5.31,0,0,0,2.4-4.17V313.66c0-1.54-1.07-2.16-2.4-1.39L305.29,400.65A5.3,5.3,0,0,0,302.88,404.81Zm3.33,0a2.23,2.23,0,0,1,.74-1.28l150.48-86.88v51.22a2.18,2.18,0,0,1-.74,1.28L306.21,456Z" style="fill:#455a64"></path><path d="M460.76,313.66l.26,29.49.08,14.75,0,7.38v1.84a6.48,6.48,0,0,1-.17,1.93,5.8,5.8,0,0,1-2.21,3.21l-51,29.63-51.15,29.39L331,445.89l-25.67,14.52,25.41-15,25.47-14.88,51-29.6,51.13-29.38a5.12,5.12,0,0,0,1.91-2.74,5.61,5.61,0,0,0,.15-1.72v-1.84l0-7.38.08-14.75Z" style="fill:#37474f"></path><path d="M258.48,376.39l45.17,25.94a4.84,4.84,0,0,1,1.64-1.69l153.07-88.37c1.11-.64,2-.31,2.33.7a5.4,5.4,0,0,0-2.33-3.48l-40.3-23.26a5.3,5.3,0,0,0-4.81,0L260.18,374.6A4.82,4.82,0,0,0,258.48,376.39Z" style="fill:#37474f"></path></g><path id="freepik--tv-light--inject-507" d="M429,175.83,370,77.72a243.54,243.54,0,0,0-27.38-14.11C282.33,37,213.6,34.66,154.38,55,31.31,97.32-12.29,252.12,15.31,350c7.2,25.51,22.21,46.75,42.5,64l220.28-37.76a1.45,1.45,0,0,0,1.2-.21L429,289.66a4.36,4.36,0,0,0,2-3.41V177C430.92,175.71,430,175.2,429,175.83Z" style="fill:#37474F;opacity:0.1"></path><g id="freepik--Screen--inject-507"><path d="M278.41,376.81a1.47,1.47,0,0,1-.74-.2,1.81,1.81,0,0,1-.81-1.68V265.64a4.77,4.77,0,0,1,2.2-3.81l149.66-86.41a1.83,1.83,0,0,1,1.86-.14,1.81,1.81,0,0,1,.81,1.68V286.25a4.77,4.77,0,0,1-2.2,3.81L279.53,376.47A2.26,2.26,0,0,1,278.41,376.81ZM429.83,176a1.42,1.42,0,0,0-.64.2L279.53,262.64a3.91,3.91,0,0,0-1.73,3V374.93a.94.94,0,0,0,.34.86.93.93,0,0,0,.92-.14l149.66-86.4a3.91,3.91,0,0,0,1.73-3V177a1,1,0,0,0-.34-.86A.51.51,0,0,0,429.83,176Z" style="fill:#37474F"></path><path d="M277.33,374.93V265.64a4.36,4.36,0,0,1,2-3.41L429,175.83c1.08-.63,2-.12,2,1.13V286.25a4.36,4.36,0,0,1-2,3.41l-149.67,86.4C278.21,376.69,277.33,376.18,277.33,374.93Z" style="fill:#37474F;opacity:0.4"></path></g><g id="freepik--TV--inject-507"><path id="freepik--shadow--inject-507" d="M437.09,299.73l7,4c1.63.94,1.63,2.47,0,3.41L391,337.78c-1.63,1-1.63,2.48,0,3.42l3.9,2.22c1.63.94,1.63,2.47,0,3.41l-29.44,17a6.55,6.55,0,0,1-5.91,0l-3.9-2.22a6.57,6.57,0,0,0-5.92,0l-53.31,30.78a6.48,6.48,0,0,1-5.91,0l-7-4c-1.63-.94-1.63-2.47,0-3.41l147.63-85.24A6.55,6.55,0,0,1,437.09,299.73Z" style="opacity:0.2"></path><path d="M287.16,382.87l-.28-.16a4.34,4.34,0,0,1-2-3.41V270a4.34,4.34,0,0,1,2-3.4l150-86.23a4.34,4.34,0,0,1,3.94,0h0a4.32,4.32,0,0,1,2,3.4V293.06a4.34,4.34,0,0,1-2,3.41l-149.66,86.4A4.32,4.32,0,0,1,287.16,382.87Z" style="fill:#455a64"></path><path d="M291.76,271.7l-6.27-3.63a4,4,0,0,0-.58,1.94V379.3a4.34,4.34,0,0,0,2,3.41l.28.16a4.32,4.32,0,0,0,3.93,0l.67-.38Z" style="fill:#263238"></path><path d="M289.13,381.74V272.45a4.36,4.36,0,0,1,2-3.41l149.66-86.4c1.09-.63,2-.12,2,1.13V293.06a4.34,4.34,0,0,1-2,3.41l-149.66,86.4C290,383.5,289.13,383,289.13,381.74Z" style="fill:#37474f"></path><path d="M442.72,183.77l.26,35.77.15,35.78.08,35.77c0,.77,0,1.45,0,2.28a4.77,4.77,0,0,1-.89,2.3,4.62,4.62,0,0,1-.85.92,9.44,9.44,0,0,1-1,.63l-1.94,1.12-7.74,4.49-15.48,9-62,35.67L322.2,365.22l-31.11,17.65,30.85-18.11,30.91-18,61.9-35.88,15.5-8.92,7.75-4.46,1.94-1.12a8.31,8.31,0,0,0,.89-.54,3.79,3.79,0,0,0,.66-.72,3.94,3.94,0,0,0,.73-1.82c0-.65,0-1.46,0-2.19l.08-35.77.15-35.78Z" style="fill:#455a64"></path><path d="M344.92,286.06a.45.45,0,0,0,.25-.07l42-24.25a.5.5,0,0,0,.18-.67.5.5,0,0,0-.67-.18l-42,24.25a.49.49,0,0,0,.24.92Zm41.76-19.74-42,24.25a.49.49,0,0,0,.24.92.55.55,0,0,0,.25-.07l42-24.25a.5.5,0,0,0,.18-.67A.48.48,0,0,0,386.68,266.32Zm0,5.43-42,24.24a.49.49,0,0,0,.24.92.54.54,0,0,0,.25-.06l42-24.25a.5.5,0,0,0,.18-.67A.48.48,0,0,0,386.68,271.75Zm0,5.42-42,24.25a.49.49,0,0,0,.24.92.45.45,0,0,0,.25-.07l42-24.25a.5.5,0,0,0,.18-.67A.5.5,0,0,0,386.68,277.17Zm0,5.43-42,24.25a.49.49,0,0,0,.24.92.55.55,0,0,0,.25-.07l42-24.25a.5.5,0,0,0,.18-.67A.48.48,0,0,0,386.68,282.6Z" style="fill:#263238"></path><polygon points="390.23 346.89 365.3 361.27 354.93 355.45 354.93 352.77 364.37 358.14 356.88 323.27 382.01 308.74 390.23 346.89" style="fill:#263238"></polygon><polygon points="380.06 338.25 378.14 337.15 353.01 351.68 362.45 357.05 380.06 338.25" style="fill:#455a64"></polygon><polygon points="388.31 345.8 363.38 360.17 353.01 354.36 353.01 351.68 362.45 357.05 354.96 322.18 380.09 307.65 388.31 345.8" style="fill:#263238"></polygon><polygon points="382.01 308.74 380.09 307.65 354.96 322.18 356.88 323.27 382.01 308.74" style="fill:#455a64"></polygon><polygon points="356.88 323.27 365.3 361.27 353.01 354.36 353.01 351.68 362.45 357.05 354.96 322.18 356.88 323.27"></polygon></g><g id="freepik--Zombie--inject-507"><path d="M347.12,132.24l8.39,4.26s-.83,4-3.91,4.06-4.47-.85-5.18-2.95S347.12,132.24,347.12,132.24Z" style="fill:#e0e0e0"></path><path d="M339.85,139.67c-.73-1.3-1.36-3.14-.85-4.6s.79-2.95,1.82-4.11a3.73,3.73,0,0,1,4.37-1.08c1.88.88,3.76,1.75,5.7,2.49l-2.52.34c-.49.07-1.06.19-1.27.64s.21,1.16.67,1.57a12.61,12.61,0,0,0,2.39,1.63,2.91,2.91,0,0,0-1.59.5.48.48,0,0,0-.18.24c-.06.23.18.43.41.51a1.22,1.22,0,0,1,.63.32c-.31.21-.66.62-.41.91a.65.65,0,0,0,.24.15,4.84,4.84,0,0,0,1.91.56,1.78,1.78,0,0,0,1.67-.88,2.71,2.71,0,0,0-.58-2.47l1.12.82a1,1,0,0,0,.4.22c.43.08.79-.42.74-.85a2.11,2.11,0,0,0-.65-1.11l3.67,1.25a17.55,17.55,0,0,1,3.59,1.53,2.07,2.07,0,0,1,.66.55,1.71,1.71,0,0,1,.25,1,4.16,4.16,0,0,1-1.45,2.9,11.2,11.2,0,0,1-2.82,1.75,17.71,17.71,0,0,1-5.1,1.79,11.4,11.4,0,0,1-5.93-.84,16.39,16.39,0,0,1-5-3.38A10.63,10.63,0,0,1,339.85,139.67Z" style="fill:#37474F"></path><path d="M357,201.79c3.07-3.68,12-13.94,7.68-25.65-3.86-10.48-6.59-16.2-6.59-16.2s-17-14.94-24.78-20.05-12.21-9.9-14.75-9.76-6.39.92-10.67,1.56c-3,.44-5.91-1.21-11-2.34-4.81-1.07-5.63-2.25-7.84-5.68s-4.27-5.13-4.92-6.34,4.76-2.15,8.28,1.64,5.34,4.51,8,4.2,8.38-1.31,7.48-3.79-6.3-9.92-8.39-12.64A35.81,35.81,0,0,0,293,101l-8.41-.45a14.74,14.74,0,0,1-7,3c-4.27.59-4-1.55-1.39-3.3s4.88-4.63,6.94-5.43,4.95.59,6.69.44,4.24-1.27,6.25.29,8.35,6.88,8.31,5.84c0-1.19-4.45-5.13-6-6.41s-1.54-2.31-3.44-2.67-6.23-2.19-7.32-2.17-4.35,1.38-7.05,1.68S276,90.28,277,89.52s3.47-1.52,5.57-2.63,3.31-2.41,5.44-1.69a20.89,20.89,0,0,0,6.36,1.24s-.26-1.5,2-1,5,1.6,6.51,1.8,2.92.3,3.29,1.78,2.64,3.33,3.35,3.78a22.2,22.2,0,0,1,3.57,4.66c.67,1.26,2.91,2.88,2.64,1.66s-2.86-5.53-3.83-6.16-1.91-2.42-3.32-3-3.11-1.7-3.14-3.19,2.55.14,4.75.27,2.4.9,3,1.83a12,12,0,0,0,3.08,2.85A10.15,10.15,0,0,1,319.63,96c1,2.06,7,13,8.33,15.3s6.59,10.8,11.6,13.89S348,130,348,130a6.4,6.4,0,0,0-.8.25,10.58,10.58,0,0,0-1.22.35,3.13,3.13,0,0,0-1.84,1.46,3,3,0,0,0,.81,3.27,4.62,4.62,0,0,0-1,1.29,1.55,1.55,0,0,0,.09,1.57c.39.51,1.2.66,1.46,1.25a5.24,5.24,0,0,1,.15,1.19,2,2,0,0,0,1.34,1.33c.61.25,1.27.35,1.86.64a22.23,22.23,0,0,1,1.93,1.34,2.15,2.15,0,0,0,2.22.24,2.55,2.55,0,0,0,.94-2,5.12,5.12,0,0,0,2.86.45,1.71,1.71,0,0,0,.86-.3,1.79,1.79,0,0,0,.5-1.5,5.57,5.57,0,0,0-.42-1.94,1.42,1.42,0,0,0,1.52-.14,1.41,1.41,0,0,0,.47-1.46,9.85,9.85,0,0,0-1-2.06l15.4,6c6.71,2.6,7.73,3.93,10.52,9.38,4.11,8,4.93,10.58,7.65,16.39s7.48,18.23,7.48,18.23Z" style="fill:#37474F"></path><path d="M357,201.79c3.07-3.68,12-13.94,7.68-25.65-3.86-10.48-6.59-16.2-6.59-16.2s-17-14.94-24.78-20.05-12.21-9.9-14.75-9.76-6.39.92-10.67,1.56c-3,.44-5.91-1.21-11-2.34-4.81-1.07-5.63-2.25-7.84-5.68s-4.27-5.13-4.92-6.34,4.76-2.15,8.28,1.64,5.34,4.51,8,4.2,8.38-1.31,7.48-3.79-6.3-9.92-8.39-12.64A35.81,35.81,0,0,0,293,101l-8.41-.45a14.74,14.74,0,0,1-7,3c-4.27.59-4-1.55-1.39-3.3s4.88-4.63,6.94-5.43,4.95.59,6.69.44,4.24-1.27,6.25.29,8.35,6.88,8.31,5.84c0-1.19-4.45-5.13-6-6.41s-1.54-2.31-3.44-2.67-6.23-2.19-7.32-2.17-4.35,1.38-7.05,1.68S276,90.28,277,89.52s3.47-1.52,5.57-2.63,3.31-2.41,5.44-1.69a20.89,20.89,0,0,0,6.36,1.24s-.26-1.5,2-1,5,1.6,6.51,1.8,2.92.3,3.29,1.78,2.64,3.33,3.35,3.78a22.2,22.2,0,0,1,3.57,4.66c.67,1.26,2.91,2.88,2.64,1.66s-2.86-5.53-3.83-6.16-1.91-2.42-3.32-3-3.11-1.7-3.14-3.19,2.55.14,4.75.27,2.4.9,3,1.83a12,12,0,0,0,3.08,2.85A10.15,10.15,0,0,1,319.63,96c1,2.06,7,13,8.33,15.3s6.59,10.8,11.6,13.89S348,130,348,130a6.4,6.4,0,0,0-.8.25,10.58,10.58,0,0,0-1.22.35,3.13,3.13,0,0,0-1.84,1.46,3,3,0,0,0,.81,3.27,4.62,4.62,0,0,0-1,1.29,1.55,1.55,0,0,0,.09,1.57c.39.51,1.2.66,1.46,1.25a5.24,5.24,0,0,1,.15,1.19,2,2,0,0,0,1.34,1.33c.61.25,1.27.35,1.86.64a22.23,22.23,0,0,1,1.93,1.34,2.15,2.15,0,0,0,2.22.24,2.55,2.55,0,0,0,.94-2,5.12,5.12,0,0,0,2.86.45,1.71,1.71,0,0,0,.86-.3,1.79,1.79,0,0,0,.5-1.5,5.57,5.57,0,0,0-.42-1.94,1.42,1.42,0,0,0,1.52-.14,1.41,1.41,0,0,0,.47-1.46,9.85,9.85,0,0,0-1-2.06l15.4,6c6.71,2.6,7.73,3.93,10.52,9.38,4.11,8,4.93,10.58,7.65,16.39s7.48,18.23,7.48,18.23Z" style="fill:#fff;opacity:0.5"></path><path d="M328,111.25c-1.32-2.35-7.34-13.24-8.33-15.3a10.15,10.15,0,0,0-3.37-4.18,12.2,12.2,0,0,1-3.08-2.85c-.61-.93-.81-1.7-3-1.83a13,13,0,0,1-2.68-.59,5.68,5.68,0,0,0,1.3,2,43.44,43.44,0,0,0,4.29,3,5.85,5.85,0,0,1,2.55,3.16c.26,1.26.49,2.53.67,3.8a1.52,1.52,0,0,1-.27,1.36c-.12-.11-.22-.23-.33-.35-.25.51-2-.88-2.63-2a22.2,22.2,0,0,0-3.57-4.66c-.71-.45-3-2.3-3.35-3.78s-1.82-1.58-3.29-1.78-4.29-1.26-6.51-1.8c-1.22-.29-1.68,0-1.86.38a.89.89,0,0,0,.37.32l2.38,1.32a5.31,5.31,0,0,1-1.93-.57c-.41-.17-.82-.32-1.24-.47a23.67,23.67,0,0,1-6-1.25c-2.13-.72-3.34.58-5.44,1.69s-4.5,1.87-5.57,2.63a.6.6,0,0,0-.29.57l.44,0a30,30,0,0,0,7.43-2,7,7,0,0,1,2.82-.77,6.18,6.18,0,0,1,1.87.46l6.09,2.18A6.29,6.29,0,0,1,298,91.32c.79.9,1.53,1.85,2.25,2.8a64.6,64.6,0,0,1,4,5.95c.2.33.38.81.09,1.07h0a.72.72,0,0,1,0,.19c0,1-6.29-4.28-8.31-5.84s-4.52-.45-6.25-.29-4.63-1.24-6.69-.44-4.34,3.68-6.94,5.43c-.19.13-.37.26-.54.4a.66.66,0,0,0,.37.38,1.5,1.5,0,0,0,.73,0,14.48,14.48,0,0,0,5.44-1.93,10.6,10.6,0,0,1,2.25-1.2c1.89-.59,3.88.33,5.85.5a23.55,23.55,0,0,1,3.86.2,9.45,9.45,0,0,1,4.09,2.82,33.15,33.15,0,0,0,3.63,3.58,24.07,24.07,0,0,1,3.1,2.71,23.64,23.64,0,0,1,5.23,7.09c.63,1.46,1,3,1.73,4.44,2.8,5.53,9.66,7.34,15.65,8.95,6.16,1.66,10.47,7.31,16.35,9.76a1.67,1.67,0,0,1,0-1.33,4.62,4.62,0,0,1,1-1.29,3,3,0,0,1-.81-3.27,3.13,3.13,0,0,1,1.84-1.46,10.58,10.58,0,0,1,1.22-.35,6.4,6.4,0,0,1,.8-.25s-3.46-1.76-8.47-4.84S329.29,113.6,328,111.25ZM392.37,167c-2.72-5.81-3.54-8.35-7.65-16.39-2.79-5.45-3.81-6.78-10.52-9.38l-15.4-6a9.85,9.85,0,0,1,1,2.06,1.41,1.41,0,0,1-.47,1.46,1.42,1.42,0,0,1-1.52.14,5.57,5.57,0,0,1,.42,1.94,1.79,1.79,0,0,1-.5,1.5,1.71,1.71,0,0,1-.86.3,5.12,5.12,0,0,1-2.86-.45c0,.11,0,.22-.06.34q4.59,2.33,9,5c4.21,2.52,8.37,5.33,11.43,9.17,5.77,7.28,6.77,17.13,10.23,25.76a14.18,14.18,0,0,0,3.53,5.6,8,8,0,0,0,1.22.88l10.52-3.67S395.1,172.8,392.37,167Z" style="fill:#37474F;opacity:0.30000000000000004"></path><path d="M310.92,99.25c-.52-.68-1.11-1.3-1.7-1.93s-1.2-1.42-1.87-2.07S306,94,305.26,93.34a4.57,4.57,0,0,1-1.52-2.23,3.08,3.08,0,0,0-.87-1.94,6.12,6.12,0,0,0-2.14-.85c-1-.29-2-.54-3-.83a28,28,0,0,0-3-.78c-.09,0-.07.14,0,.17,1.75.77,3.65,1.31,5.47,1.9.75.24,1.91.39,2.19,1.24a12.11,12.11,0,0,0,.59,2.22c.74,1.37,2.3,2.32,3.44,3.34.65.57,1.33,1.08,2,1.64.83.7,1.55,1.51,2.36,2.23C311,99.56,311,99.32,310.92,99.25Z" style="fill:#37474F"></path><path d="M290.18,151.37a14.78,14.78,0,0,0-2.58.3,9.59,9.59,0,0,0-7.21,7.57,15.62,15.62,0,0,0,11.51-.89c1.53-.76,4.32-2.76,3.77-4.85C295.22,151.81,291.54,151.3,290.18,151.37Z" style="fill:#263238"></path><path d="M281.56,156.24a8.07,8.07,0,0,0-1.62,1.35,17.86,17.86,0,0,0-1.75,3.22c-.82,1.49-2.11,2.81-2.31,4.5a12.09,12.09,0,0,0,.49,3.51,9.73,9.73,0,0,1-.09,3.8c-.09.36-.14.85.2,1a.6.6,0,0,0,.35,0c1.2-.13,1.7-1.55,2.35-2.57,1.4-2.18,4.17-2.94,6.52-4a12.16,12.16,0,0,0,5.38-4.48c1.19-2,2.07-6.16-.22-7.76C287.83,152.71,284.22,154.4,281.56,156.24Z" style="fill:#455a64"></path><path d="M282.61,159.33c-2,1.31-4.11,2.82-4.69,5.12-.45,1.76.11,3.66-.38,5.41-.58,2-2.42,3.36-3.72,5a10.88,10.88,0,0,0-2.16,4.94c-.1.63-.85,4.41.73,3.82a1.13,1.13,0,0,0,.58-.68c.38-.95.42-2,.71-3,.56-1.87,1.88-1.78,3.23-2.76a10.33,10.33,0,0,0,2.63-2.52c1.81-2.7,1.41-6.49,3.42-9a24.87,24.87,0,0,1,3.63-3.07c1-.86,3.06-3.36,1.39-4.5S284,158.45,282.61,159.33Z" style="fill:#455a64"></path><path d="M286.1,157.59a3.86,3.86,0,0,0-2,.22,9.82,9.82,0,0,0-2,.84,10.3,10.3,0,0,0-3.42,3.08,6,6,0,0,0-1,2,13.67,13.67,0,0,0-.08,2.79,20.74,20.74,0,0,1-.05,2.73,9.65,9.65,0,0,1-1,2.79s0,.18.07.14c1.4-.89,1.68-2.64,1.72-4.18,0-.89,0-1.78,0-2.66a5.33,5.33,0,0,1,.95-2.69,10.54,10.54,0,0,1,3.27-3.21,9.47,9.47,0,0,1,2-.93,6.41,6.41,0,0,0,1.72-.46C286.46,158,286.28,157.65,286.1,157.59Z" style="fill:#37474f"></path><path d="M339.27,201.67a6.7,6.7,0,0,1,1.4,1.31,2.26,2.26,0,0,1,.47,1.8,3,3,0,0,1-2.1,1.89,7.87,7.87,0,0,1-4.71.44,11.36,11.36,0,0,1-3.5-1.82,7.88,7.88,0,0,1-1.95-1.68,7.77,7.77,0,0,1-1.06-2.73c-.41-1.69-.79-3.61.18-5.06.5-.76,1.9-2,2.9-1.87s1.66,1.58,2.24,2.21A47.84,47.84,0,0,0,339.27,201.67Z" style="fill:#37474F"></path><path d="M317.78,165.14c-3.8-2.06-9.83-6.6-8.79-11.5.78-3.69,5.82-1.1,8-.1a22,22,0,0,1,7.6,5.62,11.52,11.52,0,0,1,2,3,3.05,3.05,0,0,1-3,4.69A12,12,0,0,1,317.78,165.14Z" style="fill:#37474F"></path><path d="M293.58,205.42l.19.23a1.87,1.87,0,0,0,1.31.75,2.25,2.25,0,0,0,.76-.16l.55-.19c.51-.17-.15-.66.08-1.1a.1.1,0,0,1,.06,0s.05,0,.06.06l.36.58a.53.53,0,0,0,.16.2.57.57,0,0,0,.34,0,2.45,2.45,0,0,0,.95-.33c.19-.12.61-.31.67-.52a.56.56,0,0,0-.08-.37,13.3,13.3,0,0,0-.84-1.47.91.91,0,0,0-.26-.29.83.83,0,0,0-.5-.08,6.12,6.12,0,0,0-3.83,1.16.91.91,0,0,0,0,1.54Z" style="fill:#e0e0e0"></path><path d="M303.45,208l-.71,1.32-.81,1.52c-.36.65-.95,1.73-1.84,1.72-.7,0-1.45-.93-1.84-1.43a2.47,2.47,0,0,1-.59-1.39.94.94,0,0,1,.22-.73l.28-.35a1.14,1.14,0,0,1,.55-.45.36.36,0,0,1,.27,0,.37.37,0,0,1,.12.42,1,1,0,0,1-.26.4.31.31,0,0,0,0,.12.16.16,0,0,0,.08.12.74.74,0,0,0,.38.22.26.26,0,0,0,.32-.22c0-.11-.09-.26.06-.33s.69.32.81.37l-.73-1.14a1.19,1.19,0,0,1-.24-.62,1.08,1.08,0,0,1,.22-.53,4.14,4.14,0,0,1,1.66-1.5,1.16,1.16,0,0,1,1,.25c.25.17.5.36.74.56a1.65,1.65,0,0,1,.68,1.1C303.76,207.64,303.52,207.88,303.45,208Z" style="fill:#e0e0e0"></path><path d="M350.85,202.48c-4,1.74-8,.83-10.2-2,.55,1.86-1.73,3.24-3.6,2.07-1.5,3.87-7.74.62-5.06-2.35-3.34,0-4.16-5,1.56-5.64L331,189.87c-1.11-3.11,4.92-18.39-4-29.33,0,4.31-5.56,4.31-7,.82-4.13,1.74-6.51-1.41-5.56-3.88-2.85.86-7-2.63-2.85-6.44-8.1-2.54-16.36-.93-24.61,6.44a23.32,23.32,0,0,0-8.1,19.8c.32,3.76-.95,4.27-1.9,5.76s-.16,4.61,3.33,5,6.19.82,7.46,3.2-.47,3.73-2.06,5,1.9,3,3.33,5,2.54,4.93,5.56,3.66,7-1.43,8.73-.32,0,1.9-1.27,3.33-3,5.24-1.43,7,2.7.16,3.34.63c1.41.82,1.11,3.18,3.81,4.29s6.82-1.75,9.68-5.71c0,0,2.86,3.5,2.7,6s-4.76,9.6-12.38,15.95-10.06,8.57-10,15l93-53.68s-9.16-7.05-20.11-3.56A109.32,109.32,0,0,0,350.85,202.48Z" style="fill:#37474F"></path><path d="M350.85,202.48c-4,1.74-8,.83-10.2-2,.55,1.86-1.73,3.24-3.6,2.07-1.5,3.87-7.74.62-5.06-2.35-3.34,0-4.16-5,1.56-5.64L331,189.87c-1.11-3.11,4.92-18.39-4-29.33,0,4.31-5.56,4.31-7,.82-4.13,1.74-6.51-1.41-5.56-3.88-2.85.86-7-2.63-2.85-6.44-8.1-2.54-16.36-.93-24.61,6.44a23.32,23.32,0,0,0-8.1,19.8c.32,3.76-.95,4.27-1.9,5.76s-.16,4.61,3.33,5,6.19.82,7.46,3.2-.47,3.73-2.06,5,1.9,3,3.33,5,2.54,4.93,5.56,3.66,7-1.43,8.73-.32,0,1.9-1.27,3.33-3,5.24-1.43,7,2.7.16,3.34.63c1.41.82,1.11,3.18,3.81,4.29s6.82-1.75,9.68-5.71c0,0,2.86,3.5,2.7,6s-4.76,9.6-12.38,15.95-10.06,8.57-10,15l93-53.68s-9.16-7.05-20.11-3.56A109.32,109.32,0,0,0,350.85,202.48Z" style="fill:#fff;opacity:0.5"></path><path d="M296.05,200.4c.25.58,1.05.63,1.68.55a13.47,13.47,0,0,0,3.38-.76,7.32,7.32,0,0,1,2-.87c1.81-.14,3.48,2,3.83,3.59.51,2.34-.35,4.73-1,7.05a12.42,12.42,0,0,0-.17,7.09,6.49,6.49,0,0,0,1.68,2.56,2.56,2.56,0,0,0,.37.17c1.45.6,3.32,0,5.19-1.22a10.07,10.07,0,0,0-.2-1.12c-.44-1.77-.87-3.54-1.31-5.31a22.06,22.06,0,0,1-.64-2.64,5.19,5.19,0,0,1,0-2.32,6.36,6.36,0,0,1,.33-.7c.38-.84.44-1.79.83-2.62a7.12,7.12,0,0,0,.37-.79,3.23,3.23,0,0,0,.12-1c0-.78,0-1.56,0-2.33a.35.35,0,0,1,0-.25c.09-.11.28-.06.41,0a13.68,13.68,0,0,1,5.33,5,48.81,48.81,0,0,1,6.55,13.31,4.81,4.81,0,0,1,.15,3.53c-.34.7-1,1.25-1.16,2-.35,1.67,1.85,2.69,3.56,2.72,4.92.08,9.48-2.42,13.76-4.86a59.29,59.29,0,0,0,9.8-6.46,10.32,10.32,0,0,0,2.74-3.33,12.45,12.45,0,0,0,.78-5.08,33.93,33.93,0,0,0-.24-5.62c-2.11,1.09-3.35,1.82-3.35,1.82-4,1.74-8,.83-10.2-2,.55,1.86-1.73,3.24-3.6,2.07-1.5,3.87-7.74.62-5.06-2.35-3.34,0-4.16-5,1.56-5.64L331,189.87c-1.11-3.11,4.92-18.39-4-29.33,0,4.31-5.56,4.31-7,.81-4.13,1.75-6.51-1.4-5.56-3.87-2.85.86-7-2.63-2.85-6.44-8.1-2.54-16.36-.93-24.61,6.44a25.36,25.36,0,0,0-4.26,4.87c-.67,3.43-1.23,7,2.39,8.86,2.44,1.27,5.74,1,7.62,3.25,1.71,2.06,1.34,5.39.33,7.69a31.33,31.33,0,0,1-1.65,2.93,1.94,1.94,0,0,0-.35,1,1.47,1.47,0,0,0,1.13,1.29,6.23,6.23,0,0,0,1.83.12c3.69,0,5.2,1.73,5.18,5.37a8.54,8.54,0,0,1-2.41,5.83C296.36,199.14,295.77,199.77,296.05,200.4Z" style="fill:#37474F;opacity:0.30000000000000004"></path><path d="M308,214.06c-1.2,4.35-.35,6,2.25,5.81,2.41-.58,5.19-2.89,7.29-5.8a22.62,22.62,0,0,1-1.91-2.76,14.15,14.15,0,0,1-.74-4,28.76,28.76,0,0,0-1-4.87,5.67,5.67,0,0,0-1.28-2.51c.26.26.09,1,0,1.33-.12.56-.25,1.14-.38,1.71a22.68,22.68,0,0,1-1.57,4.43A46.94,46.94,0,0,0,308,214.06Z" style="fill:#37474F"></path><path d="M289.25,182.07a4.65,4.65,0,0,0-2.16-.95,12.28,12.28,0,0,0-2.25-.37,16.2,16.2,0,0,0-4.34.24c-.54.11-.18.83.23.85.7,0,1.4,0,2.1-.06s1.47,0,2.21,0a14.8,14.8,0,0,1,1.88.2l1,.22a9,9,0,0,0,1.22.3C289.45,182.56,289.37,182.2,289.25,182.07Z" style="fill:#37474F"></path><path d="M312,190c-.05-.07-.17-.15-.25-.09-.25.17-.24.49-.28.75a4,4,0,0,1-.11.5,4.42,4.42,0,0,1-.49,1,4.92,4.92,0,0,1-.69.82,1.39,1.39,0,0,1-.45.31c-.25.08-.54,0-.76.09s-.06.21,0,.26a1.31,1.31,0,0,0,1.47,0,3.45,3.45,0,0,0,1-1,4.56,4.56,0,0,0,.59-1.19,4.72,4.72,0,0,0,.15-.65A1,1,0,0,0,312,190Z" style="fill:#37474F"></path><path d="M309.35,189.52a7.28,7.28,0,0,0-.9-3.05,7.66,7.66,0,0,0-5-3.86,1.58,1.58,0,0,0-1.61.27,1.13,1.13,0,0,0-.05,1.26c.05.1.12-.06.1-.12-.16-.35.25-.63.53-.72a1.84,1.84,0,0,1,1,0A5.66,5.66,0,0,1,305,184a7.29,7.29,0,0,1,2.17,1.93,6.88,6.88,0,0,1,1.19,2.61,5.9,5.9,0,0,1,.14,1.51,1.23,1.23,0,0,1-.94,1.21c-.15,0-.08.28,0,.35a1.12,1.12,0,0,0,1.5-.33A2.65,2.65,0,0,0,309.35,189.52Z" style="fill:#37474F"></path><path d="M291.16,169.72a2.27,2.27,0,0,1,.41.21,3.89,3.89,0,0,1,1,1.06,14.92,14.92,0,0,1,2.59,4.9c.49,1.91.29,3.93.63,5.87a10.85,10.85,0,0,0,2,4.67c.31.4.72.81,1.22.75s.88-.74,1-1.32c.26-1.84-.63-4.4.64-6a4.57,4.57,0,0,1,4.13-1.37,2.69,2.69,0,0,0,.9,4c2.68,1.84,3.79-.55,3.79-.55s2.67,4.88,1.92,8.46l7.67,5.39s7.67-1.61,11.94-6c-1.11-3.11,4.92-18.39-4-29.33,0,4.31-5.56,4.31-7,.81-4.13,1.75-6.51-1.4-5.56-3.87-2.85.86-7-2.63-2.85-6.44a14.84,14.84,0,0,0-5.85-1.75,17.57,17.57,0,0,0-6.22.18A24.42,24.42,0,0,0,288,155a35.38,35.38,0,0,0-6.57,7.41c-.65,1-2,2.32-1.61,3.53.46,1.61,3.06,2.55,4.48,2.86,2,.42,4,.35,6,.71A4.36,4.36,0,0,1,291.16,169.72Z" style="fill:#455a64"></path><path d="M319.07,195.84s7.67-1.61,11.94-6c-1.11-3.11,4.92-18.39-4-29.33,0,4.31-5.56,4.31-7,.81-4.13,1.75-6.51-1.4-5.56-3.87-2.85.86-7-2.63-2.85-6.44a14.84,14.84,0,0,0-5.77-1.74,27,27,0,0,0-6.39,1.72,21.47,21.47,0,0,0-10.18,8.49,3.42,3.42,0,0,0-.69,2.37,2.87,2.87,0,0,0,.79,1.34c2.67,2.78,7.52,2.58,10,5.5a5.79,5.79,0,0,1,.84,6.1c-.6,1.3-1.71,2.4-1.91,3.81a4.5,4.5,0,0,0,1.6,3.77,4,4,0,0,1,.69-2.54,4.57,4.57,0,0,1,4.13-1.37,2.69,2.69,0,0,0,.9,4c2.68,1.84,3.79-.55,3.79-.55s2.67,4.88,1.92,8.46Z" style="fill:#263238"></path><path d="M304.47,179c-.34.77-.62,2.23,1.22,3.5s3,.5,3.48-.09A7.31,7.31,0,0,0,304.47,179Z" style="fill:#e0e0e0"></path><path d="M287.14,188.7a12,12,0,0,0-3.54-.23c1.91.42,3.38,1.16,4.22,2.73a2.78,2.78,0,0,1-.28,3.37,10.56,10.56,0,0,0,1.13-.76,2.82,2.82,0,0,0,1.09-2.12,2.43,2.43,0,0,0-.51-1.76A3.76,3.76,0,0,0,287.14,188.7Z" style="fill:#37474F"></path><path d="M292.58,191a3.08,3.08,0,0,0-1.32-1.42c-.12-.05-.1.2,0,.25a2.62,2.62,0,0,1,1,1.44,3.82,3.82,0,0,1-.1,1.87,3.42,3.42,0,0,1-1,1.52,5.93,5.93,0,0,1-1.5.83c-.23.11,0,.5.22.49a3.68,3.68,0,0,0,3.15-2.77A3.11,3.11,0,0,0,292.58,191Z" style="fill:#37474F"></path><path d="M312.49,199.08c-.36-.72-.79-1.4-1.2-2.1a14.2,14.2,0,0,0-1.57-2.38c-.16-.17-.26,0-.23.18a10,10,0,0,0,1.09,2.17c.38.66.79,1.31,1.16,2a4.94,4.94,0,0,1,.64,2.11c.05.77-.09,1.53-.1,2.3,0,.09.12.27.19.12A5,5,0,0,0,312.49,199.08Z" style="fill:#37474F"></path><path d="M396.05,171.24c-5.35-11.73-11.5-22.2-11.5-22.2s-7.62-3-17.64,2.85-9.79,11.84-9.79,11.84a100,100,0,0,1,4.9,10.81c1.46,3.62,1.62,5.39,1.06,7.61-1.11,4.39-5.72,10.34-6.82,12.5a28.8,28.8,0,0,1-2.51,4.31c-1.35,1.71-6.67,3.08-8.6,3.52,0,0,3.7,4.22-5.64,11.28-10.59,8-19.69,5.69-19.69,5.69-1.25,5.23-7.85,11.38-13.37,15.48s-7,6.6-8.37,10.24a14.16,14.16,0,0,0-1,6.26l108.52-62.66S401.4,183,396.05,171.24ZM370,165.45a10.41,10.41,0,0,1,3.68-2.25,15.45,15.45,0,0,1,7.63-.62,16.5,16.5,0,0,1,5,1.67,17,17,0,0,1,3.76,3.26,33.72,33.72,0,0,0-9.31-2.08,36.64,36.64,0,0,0-9.74.74C369.84,166.4,368.76,166.64,370,165.45Zm13.3,6.26c-2.71-.55-5.46-.86-8.2-1.14a4.36,4.36,0,0,1-1.6-.29c-.16-.07-.33-.19-.32-.36a.48.48,0,0,1,.14-.25,3.14,3.14,0,0,1,1.32-.77,6.55,6.55,0,0,1,1.23-.25,19.76,19.76,0,0,1,8.5,1.28,19.54,19.54,0,0,1,6.9,3.77C388.58,173,385.93,172.26,383.26,171.71Z" style="fill:#455a64"></path><path d="M396.05,171.24c-5.35-11.73-11.5-22.2-11.5-22.2s-6.87-2.65-16.12,2a28.79,28.79,0,0,1,8.73,11.36,16.1,16.1,0,0,1,4.11.14,16.5,16.5,0,0,1,5,1.67,17,17,0,0,1,3.76,3.26,33.72,33.72,0,0,0-9.31-2.08c-.82-.05-1.64-.07-2.47-.06a32,32,0,0,1,.85,3.3,25.5,25.5,0,0,1,5.24,1.26,19.54,19.54,0,0,1,6.9,3.77c-2.65-.7-5.3-1.44-8-2-1.27-.25-2.54-.46-3.82-.63a27.22,27.22,0,0,1-.23,7.54c-.42,2.42-8.43,9-9.92,10.95-2,2.65-5.24,4.24-7.17,7s-2.47,6.13-5.05,8c-1,.74-2.26,1.13-3.33,1.8-1.86,1.16-3.08,3.07-4.42,4.8A32,32,0,0,1,336.25,221c-3.07,1.24-6.34,2-9.25,3.57a37.65,37.65,0,0,0-7.14,5.52l-11,10c-1.72,1.57-3.59,3.5-3.35,5.82a2.5,2.5,0,0,0,.11.53l99.93-57.67S401.4,183,396.05,171.24Z" style="fill:#263238"></path><path d="M358.63,200a51,51,0,0,1,11.14,1.35c.12,0,.12-.21,0-.25a42.1,42.1,0,0,0-10.56-2.1c-1.4-.12-2.83-.2-4.25-.23.68-.32,1.35-.64,2-.93a58.69,58.69,0,0,1,5.62-2,55.81,55.81,0,0,1,5.72-1.33c.89-.16,1.78-.29,2.68-.42s1.86-.32,2.78-.4c.08,0,.08-.18,0-.19-1,0-2-.1-3-.06s-2.1.12-3.14.25a51.48,51.48,0,0,0-5.89,1.15,44.29,44.29,0,0,0-5.36,1.78c-.52.21-1,.45-1.54.68a15.3,15.3,0,0,1-1.11,1.68,5.34,5.34,0,0,1-1.8,1.34,17.46,17.46,0,0,1,1.77-.22C355.36,200,357,200,358.63,200Z" style="fill:#37474f"></path><path d="M241,241.16c.58-1.15,1.11-1.89,1.75-.76s.3,5.52.88,6.89,4.09,8.65,4.09,8.65a8.1,8.1,0,0,1,3.68,2.82,12.52,12.52,0,0,0,2.85,2.93s-4.93,1.58-7.53-1.62S238.19,246.11,241,241.16Z" style="fill:#37474F"></path><path d="M276.86,275.54a11.49,11.49,0,0,1-5.34-4.94c-1.15-2-.84-8.41-3-10.66a16.09,16.09,0,0,1-4.25-8.24c-.7-3.29-1.59-5.38-4.53-6.48s-6.48-4.1-7.68-4.72-1.22,3.61,2.41,6.57,4.53,3.91,5.07,7.28,1.33,7.75.4,8.15-7-.89-9.42-2.13-3.55-1.35-5.23-5.25-3-6.31-3.46-7.35-1-7.8-.83-8.89,2.55-4.23,2.73-6.75-.07-4.28-2.37-1.48-5,4.58-5.39,5.87.46,2.27.45,5.35a12.8,12.8,0,0,1-1.69,3.71c-1.3,2-3,2.32-2,4.66s3.51,4.35,4.71,6.92a16,16,0,0,1,1.39,3.71,4.29,4.29,0,0,0-.27,3.92c.93,2.17,2.25,2.84,5.51,6.37s5.95,5.87,8.1,8.54,1.75,3.88,5.91,5c3.8,1,16.62,7.71,18.83,8.87Z" style="fill:#37474F"></path><path d="M276.86,275.54a11.49,11.49,0,0,1-5.34-4.94c-1.15-2-.84-8.41-3-10.66a16.09,16.09,0,0,1-4.25-8.24c-.7-3.29-1.59-5.38-4.53-6.48s-6.48-4.1-7.68-4.72-1.22,3.61,2.41,6.57,4.53,3.91,5.07,7.28,1.33,7.75.4,8.15-7-.89-9.42-2.13-3.55-1.35-5.23-5.25-3-6.31-3.46-7.35-1-7.8-.83-8.89,2.55-4.23,2.73-6.75-.07-4.28-2.37-1.48-5,4.58-5.39,5.87.46,2.27.45,5.35a12.8,12.8,0,0,1-1.69,3.71c-1.3,2-3,2.32-2,4.66s3.51,4.35,4.71,6.92a16,16,0,0,1,1.39,3.71,4.29,4.29,0,0,0-.27,3.92c.93,2.17,2.25,2.84,5.51,6.37s5.95,5.87,8.1,8.54,1.75,3.88,5.91,5c3.8,1,16.62,7.71,18.83,8.87Z" style="fill:#fff;opacity:0.5"></path><path d="M276.86,275.54a11.49,11.49,0,0,1-5.34-4.94c-1.15-2-.84-8.41-3-10.66a16.09,16.09,0,0,1-4.25-8.24c-.7-3.29-1.59-5.38-4.53-6.48-2.49-.93-5.41-3.22-7-4.28a2.08,2.08,0,0,0,0,1c.59,2.86,4,4,6.1,6,1.86,1.77,2.74,4.3,3.56,6.73l1.83,5.42a6.25,6.25,0,0,1,.41,4.06,4.14,4.14,0,0,1-3.56,2.42,10.8,10.8,0,0,1-4.43-.8c-4.71-1.62-9.52-4.08-11.9-8.46a20.37,20.37,0,0,1-2-7.75c-.4-.81-.71-1.41-.88-1.81-.45-1-1-7.8-.83-8.89s2.55-4.23,2.73-6.75c.16-2.28,0-3.94-1.79-2.12a10.47,10.47,0,0,1-1.35,2.75c-1.3,2-3,4-2.84,6.48.08.95.44,1.85.51,2.8a2.35,2.35,0,0,1-1.13,2.42l-.63-1.51q-1,2.25-1.94,4.5a4.64,4.64,0,0,0-.5,1.69,3.86,3.86,0,0,0,.37,1.66c1.74,4.17,6.19,7.26,6.31,11.77a1.79,1.79,0,0,1-1.83-1.48,1.81,1.81,0,0,0-.23,0,4.27,4.27,0,0,0-.13,3.67c.93,2.17,2.25,2.84,5.51,6.37s5.95,5.87,8.1,8.54,1.75,3.88,5.91,5c3.8,1,16.62,7.71,18.83,8.87Z" style="fill:#37474F;opacity:0.30000000000000004"></path><path d="M244.64,264.69a6.11,6.11,0,0,1-1.49-3.28,22.41,22.41,0,0,0-2.56-6.74,23.25,23.25,0,0,0-2.06-3c-.67-.82-1.72-1.62-1.92-2.72a4.69,4.69,0,0,1,0-1.4c.09-1.12.39-2.25.41-3.37,0-.14-.27-.34-.32-.14-.27,1.05-.58,2.06-.78,3.13a4.43,4.43,0,0,0,.08,3.11,16.9,16.9,0,0,0,2.1,2.3,14.13,14.13,0,0,1,1.82,3,23.36,23.36,0,0,1,2.5,6.68,3.4,3.4,0,0,0,1.13,2c1.09.91,2.15,1.86,3.23,2.78-.1-.09-.23-.43-.34-.56s-.33-.36-.5-.54C245.5,265.55,245.06,265.13,244.64,264.69Z" style="fill:#37474F"></path><path d="M239.27,262c.8,1.8,1.67,3.55,2.58,5.31a5.87,5.87,0,0,1,.08-.64,1.84,1.84,0,0,0-.16-.7c-.26-.56-.58-1.11-.88-1.65-.6-1.08-1.23-2.15-1.89-3.2a.77.77,0,0,0,.1.49C239.15,261.76,239.21,261.89,239.27,262Z" style="fill:#37474F"></path><circle cx="273.53" cy="204.3" r="5.71" style="fill:#e0e0e0"></circle><path d="M273.87,204.56s-.1,0-.14,0a.28.28,0,0,1-.06-.15A10.23,10.23,0,0,1,274,202a8.36,8.36,0,0,1,0-1.12,6.46,6.46,0,0,1,.24-.86c.07-.24.25-.91,0-1.06a.63.63,0,0,0-.27,0,10.21,10.21,0,0,0-3.26.77c-.21.1-.4.19-.6.07a.31.31,0,0,1,.16-.23,7.37,7.37,0,0,1,2-1.16,5.39,5.39,0,0,1,2-.33,6.31,6.31,0,0,0,1.94-.14,13.52,13.52,0,0,0,1.86-.43c.91-.37.89-1.46,1.07-2.28a6,6,0,0,1,.9-2.1,7.47,7.47,0,0,1,3.89-2.9,8.94,8.94,0,0,1,2.61-.45,4.59,4.59,0,0,1,2.55.39c.45.29.16.83-.29.88a11.9,11.9,0,0,1-1.78-.11,9,9,0,0,0-1.55.1,6.79,6.79,0,0,0-2.7,1.06,6,6,0,0,0-1.79,2,10.05,10.05,0,0,0-.75,2.58,2.54,2.54,0,0,1-1.48,1.85c-.26.11-1.19.21-1.22.6,0,.2.14.32.27.44a2,2,0,0,1,.39.47,7.23,7.23,0,0,1,.65,1.15,7,7,0,0,1,.61,2.55,1.89,1.89,0,0,1-.07.71c0,.08-.07.35-.18.33s-.12-.36-.13-.44a5.56,5.56,0,0,0-.54-1.92,7.94,7.94,0,0,0-1-1.59,2.56,2.56,0,0,0-1.33-1c-.91-.12-1.33,1-1.53,1.69a14.93,14.93,0,0,1-.44,1.75,3.11,3.11,0,0,0-.3.64c0,.21,0,.45,0,.68C273.89,204.51,273.89,204.54,273.87,204.56Z" style="fill:#37474F"></path><path d="M274.42,209.93h0a5.33,5.33,0,0,0-2.05-2.21,7.81,7.81,0,0,0-2.85-1,2.33,2.33,0,0,0-.91,0l-.24.08a5.72,5.72,0,0,0,5.16,3.27A6.54,6.54,0,0,0,274.42,209.93Z" style="fill:#263238"></path></g></g><g id="freepik--Character--inject-507"><g id="freepik--Cushion--inject-507"><path d="M122,204.66c-6-2.07-12.74,3.79-24.15,6.36C76.56,215.81,66,222.24,54.66,230.47s-14.26,5.68-18.5,11.47,2.59,10.34,4,20.33c2.36,16.82,7.38,29,13.65,37.21,11,14.6,7.08,22,13.35,23.4,6.68,1.51,7.56-4.33,19-5.9,27.06-3.74,39.27-9.9,54.75-24.12,6-5.55,11.61-3.64,14.21-9.77,1.3-3.07-2.94-5.89-4.75-16.92-3-18.32-10.42-36.6-19.34-47.3C127.13,214.2,128.05,206.76,122,204.66Z" style="fill:#37474F"></path><path d="M122,204.66c-6-2.07-12.74,3.79-24.15,6.36C76.56,215.81,66,222.24,54.66,230.47s-14.26,5.68-18.5,11.47,2.59,10.34,4,20.33c2.36,16.82,7.38,29,13.65,37.21,11,14.6,7.08,22,13.35,23.4,6.68,1.51,7.56-4.33,19-5.9,27.06-3.74,39.27-9.9,54.75-24.12,6-5.55,11.61-3.64,14.21-9.77,1.3-3.07-2.94-5.89-4.75-16.92-3-18.32-10.42-36.6-19.34-47.3C127.13,214.2,128.05,206.76,122,204.66Z" style="opacity:0.30000000000000004"></path><path d="M40.35,254.28c3.47,8.66,1,15.9,8.54,32.09,7.23,15.56,13.84,21,15.54,27.64,1.41,5.49,4.38,8.61,6.58,3.1s1.59-22.93-5.5-39.38c-8.17-19-14.36-26.94-19-30.53C39.29,241.56,37.62,247.46,40.35,254.28Z" style="opacity:0.2"></path><path d="M88.06,310.78c-7.4.73-9.13,6.72-13.68,10.59A27.87,27.87,0,0,1,86.15,317c12.33-1.71,21.57-3.91,29.45-7.15C105.75,312.36,93.43,310.24,88.06,310.78Zm50.27-21.24c-5.16,2.9-6.39,9.94-13.09,15.43a98.57,98.57,0,0,0,15.66-12.11c5.52-5.07,10.63-3.93,13.46-8.37C149.48,288.35,144.55,286.05,138.33,289.54Z" style="opacity:0.2"></path><path d="M109.92,217.39c-15.23-.74-31.61,3.31-44.31,12.15a11.92,11.92,0,0,0-4.68,7.83A11.66,11.66,0,0,0,64.63,248c3,2.75,8,3.94,11.67,4.34,7.78.82,12.7-.09,22.5,2.07a23,23,0,0,1,9.68,5.06c4.18,3.82,7.06,7.7,10.74,11,5.07,4.5,15.73,5.53,20.16,2.79,4.74-2.92,7-8.46,5.25-16.49C140.83,238.91,130.35,219.93,109.92,217.39Z" style="fill:#37474F;opacity:0.30000000000000004"></path></g><g id="freepik--character--inject-507"><g id="freepik--Bottom--inject-507"><path d="M164.73,334.5l10.19-15.6,15,12.33-23.18,22s-9.8-2.38-10.7-8.06S161.77,335.92,164.73,334.5Z" style="fill:#f0997a"></path><path d="M153.36,338.13c-3.13.26-4.47,1.16-5.46,3.75s-.53,5.28-1.61,8.86-2.95,5.1-4.65,9.75-1.29,12.71,1.32,17.72,5,7.33,11.21,7.15Z" style="fill:#263238"></path><path d="M164.73,334.5l-1.24,1.79a15.32,15.32,0,0,0,4.28,7.59c3.53,3.37,5.26,3.38,5.26,3.38l1-1s.49.58-1.17,2.08a27,27,0,0,0-5.56,6.27c-2.29,3.48-4.82,12.09-5.8,18.42s-.68,11-5.59,12.16-9.11-4.06-11.21-8.64-2.2-11.11-1-15.62,5-7,5-12.47c0-4,1.14-7.81,3-9.48s5.39-1.7,7.88-2.7S163.87,333.86,164.73,334.5Z" style="fill:#455a64"></path><path d="M161,377c-2.28-6.59-12.44-9.82-18-7.89a21.57,21.57,0,0,0,1.7,7.5c2.1,4.58,6.29,9.8,11.21,8.64C159.78,384.3,160.43,381.25,161,377Z" style="fill:#fafafa"></path><path d="M172.89,348.35c1.66-1.5,1.17-2.08,1.17-2.08l-1,1s-1.73,0-5.26-3.38a15.32,15.32,0,0,1-4.28-7.59l1.24-1.79c-.86-.64-2.55.79-5,1.79s-6,1-7.88,2.7a8.65,8.65,0,0,0-2.29,4.07l16,3.15s-2.34,6.8-4.09,13.18c-2.15,7.83-1.79,17.81-6.21,20.46C151,382.4,144,373,143,365.38a24,24,0,0,0,1.69,11.18c2.1,4.58,6.29,9.8,11.21,8.64s4.61-5.82,5.59-12.16,3.51-14.94,5.8-18.42A27,27,0,0,1,172.89,348.35Z" style="opacity:0.1"></path><path d="M162.34,370.49a8.48,8.48,0,0,0-.84-1.38,12.39,12.39,0,0,0-2.12-2.28,12.72,12.72,0,0,0-6-2.94c-.2,0-.23.37-.09.45a37.38,37.38,0,0,1,5.39,3.27,10.67,10.67,0,0,1,2.65,3.1c.24.43.47,1,.92,1.25a.18.18,0,0,0,.17,0C162.81,371.5,162.53,370.92,162.34,370.49Z" style="fill:#fafafa"></path><path d="M163.39,365.81a10.56,10.56,0,0,0-3.65-4.25,14.79,14.79,0,0,0-2.16-1.31,9.91,9.91,0,0,0-1.17-.48,5.71,5.71,0,0,0-1.36-.24c-.17,0-.23.33-.09.4.8.4,1.59.81,2.38,1.23a13.62,13.62,0,0,1,2.13,1.38,16,16,0,0,1,1.79,1.6c.64.68,1.22,1.42,1.85,2.1C163.33,366.48,163.45,366,163.39,365.81Z" style="fill:#fafafa"></path><path d="M164,358.49a12.18,12.18,0,0,0-2-2,14,14,0,0,0-2.61-1.62,6.38,6.38,0,0,0-2.69-.88c-.23,0-.27.44-.11.55a23.21,23.21,0,0,0,2.63,1.34,15.75,15.75,0,0,1,2.36,1.51,10.82,10.82,0,0,1,1.73,1.72c.24.31.46.63.68.95a16,16,0,0,0,.92,1.35c.15.17.29-.12.29-.24A4.7,4.7,0,0,0,164,358.49Z" style="fill:#fafafa"></path><path d="M166.11,353.51c-.63-.66-1.27-1.31-2-1.92a13.7,13.7,0,0,0-2.25-1.6,5.08,5.08,0,0,0-2.43-.83c-.24,0-.25.44-.08.53.75.43,1.54.78,2.26,1.24a17.28,17.28,0,0,1,2,1.57c.57.51,1.13,1.05,1.66,1.6a10,10,0,0,1,.74.85,4.09,4.09,0,0,1,.25.46c.1.22.27.41.38.62s.26.23.37.06C167.67,355.16,166.73,354.17,166.11,353.51Z" style="fill:#fafafa"></path><path d="M150.49,273.16s42.07-4.07,58.43-1.63c16.7,2.49,14.26,21.12,9.74,29.05-10.22,17.89-33.15,35.24-33.15,35.24s-12.61-3.65-14.4-12.58l6.67-11.6-20.84,3.89-9.29-8.67L143,302.64Z" style="fill:#37474F"></path><path d="M150.49,273.16c-1,.08,41.68-4,58.43-1.63s14.26,21.12,9.74,29.05c-10.22,17.89-33.15,35.24-33.15,35.24s-12.61-3.65-14.4-12.58l6.67-11.6-20.84,3.89-9.29-8.67L143,302.64Z" style="fill:#fff;opacity:0.2"></path><path d="M172.85,323.78s8.27,4.94,12.16,6.68a68.35,68.35,0,0,0,6.64,2.6l-4.05,14.82-20.78-5.4Z" style="fill:#ffbda7"></path><path d="M189.69,349.18s4.14,2.14,5.25,2.48,3.9.65,5.9,1.6,9.8,4.74,14.47,5,12.74-1.33,15-9Z" style="fill:#263238"></path><path d="M188.07,331.75c1.48.69,2.05,5.92,1.05,9.12-.77,2.48-3.2,6.28-4.74,6.17l-1.47-.38s.05,1,2.43,1.48,9.57,2.47,12.31,3.06,8.35,3.63,11.88,4.56,6.88,2.43,12.88.36,10.27-8.21,8.19-13.64-7.94-6.89-12.8-7.48-13.29.25-18.63-.9A58.71,58.71,0,0,1,188.78,331a2.67,2.67,0,0,0-2.59,0Z" style="fill:#455a64"></path><path d="M211.28,335.73a11.41,11.41,0,0,0-2.43,5.23,17.08,17.08,0,0,0-.6,6.35c0,.2.34.56.48.22a10.24,10.24,0,0,0,.54-2.76c.11-.95.22-1.89.41-2.83a18.54,18.54,0,0,1,.7-2.63,23.57,23.57,0,0,1,1.41-3C211.94,336.06,211.61,335.38,211.28,335.73Z" style="fill:#fafafa"></path><path d="M207,336c0-.19-.22-.45-.46-.39-.46.11-.6.48-.8.88a12.48,12.48,0,0,0-.59,1.29,17.87,17.87,0,0,0-.79,2.58,23.59,23.59,0,0,0-.43,2.65,5.84,5.84,0,0,0,.23,3c.06.14.31.42.46.18a5.32,5.32,0,0,0,.41-2.55,17.91,17.91,0,0,1,.44-2.62,20.38,20.38,0,0,1,.81-2.51c.17-.43.34-.86.53-1.28A1.53,1.53,0,0,0,207,336Z" style="fill:#fafafa"></path><path d="M201.75,335.28a3.61,3.61,0,0,0-.7,1.2c-.17.38-.34.76-.48,1.15a20.81,20.81,0,0,0-.76,2.59,11.9,11.9,0,0,0-.35,5.27c.06.24.44.61.58.21a11,11,0,0,0,.41-2.48,21.61,21.61,0,0,1,.45-2.53c.19-.8.44-1.59.71-2.37.14-.38.27-.76.42-1.14a4.47,4.47,0,0,0,.42-1.28C202.47,335.6,202.1,335,201.75,335.28Z" style="fill:#fafafa"></path><path d="M197.55,334a13.72,13.72,0,0,0-2.61,10.74c0,.17.21.13.25,0,.4-1.7.73-3.42,1.2-5.1s1.12-3.33,1.73-5C198.23,334.37,197.89,333.61,197.55,334Z" style="fill:#fafafa"></path><path d="M230.6,342.48c-1.64-4.31-5.66-6.11-9.68-7-5.78,3.27-6.81,18.65-5.38,21.6a16.57,16.57,0,0,0,6.87-1C228.42,354.06,232.68,347.91,230.6,342.48Z" style="fill:#fafafa"></path><path d="M222.41,356.12c4.76-1.63,8.41-5.82,8.7-10.2a12.43,12.43,0,0,1-6.37,6.71c-5,2.36-15.78-.61-20.5-3.07-3.84-2-10.15-3.26-16.24-6.17-1.07,1.94-2.56,3.73-3.62,3.65l-1.47-.38s.05,1,2.43,1.48,9.57,2.47,12.31,3.06,8.35,3.63,11.88,4.56S216.41,358.19,222.41,356.12Z" style="opacity:0.1"></path><path d="M177.19,324.75c-10.22-7.51-25.09-19.5-31.54-22.17l-.5-.2c4-7.28,6.86-13.82,5.34-29.22l-63.22,2.78s.53,24.64,4,32.83c4.57,11,8.7,15,19.41,20.05,8.36,3.93,23.88,5.6,23.88,5.6,2.84,2.28,6.91,4.09,12,5.27,6.45,1.5,18.57,3.26,25.59,4.69C177.15,339.47,178.64,325.82,177.19,324.75Z" style="fill:#37474F"></path><path d="M177.19,324.75c-10.22-7.51-25.09-19.5-31.54-22.17l-.5-.2c4-7.28,6.86-13.82,5.34-29.22l-63.22,2.78s.53,24.64,4,32.83c4.57,11,8.7,15,19.41,20.05,8.36,3.93,23.88,5.6,23.88,5.6,2.84,2.28,6.91,4.09,12,5.27,6.45,1.5,18.57,3.26,25.59,4.69C177.15,339.47,178.64,325.82,177.19,324.75Z" style="fill:#fff;opacity:0.2"></path><g style="opacity:0.30000000000000004"><path d="M182.77,299.06a151.21,151.21,0,0,0-10.32,13.57l5.33-1c7.58-13.62,9.3-17.65,19.35-23.11C197.13,288.53,190.2,290.21,182.77,299.06Z"></path><path d="M131.51,330.36a8.11,8.11,0,0,0,.78,3.85c1.38.15,2.23.21,2.23.21l.06,0A20,20,0,0,1,131.51,330.36Z"></path><path d="M156.06,309c4.29,2.88,7.29,5.34,7.29,5.34l3.63-.67S159.05,307.9,153,303.6c-.83-.59-3.73-2.67-4.47-3.27a29.84,29.84,0,0,0,1.95-13,37.49,37.49,0,0,1-3.9,12.29c-2.47-1.11-4.6-1.22-8.36-1.1-6.55.22-25.55.9-25.55.9s18,.6,27.33,1.79a19.07,19.07,0,0,1,5.12,1.17A63.27,63.27,0,0,1,156.06,309Z"></path></g></g><g id="freepik--Top--inject-507"><path d="M191.58,265.62a37.22,37.22,0,0,0-8.89-6.11c-6.46-3.47-14.21-7.46-23.51-11.81-.07-2.36.29-12-.33-31.07-.31-9.61-3.62-15.81-8.34-18.47l-12.42,28.73s-.52,24.47,0,29.18c.5,4.48,2,6.16,4.9,7.27a110.18,110.18,0,0,0,12.55,3.86c9.35,2.43,18.1,4.37,19.25,5.06,3.49,2.1,3.15,5.11,4.88,6.38s16.66,4.79,16.66,4.79c1.18-4.17,1-6.95.8-7.51A28.61,28.61,0,0,0,191.58,265.62Z" style="fill:#ffbda7"></path><path d="M146.76,196c9.88,2.18,11.28,5.76,13,14.73,2.63,13.74-.32,35-.32,35-2.31,1.42-17,3.51-22.34.48l.11-20.65Z" style="fill:#263238"></path><path id="freepik--Chest--inject-507" d="M115.12,197.14c-4.08.86-11.51,2.5-11.51,2.5s-5,6.53-9.19,20.6c-5.72,19.38-6.38,42.28-6.86,62.44a53.65,53.65,0,0,0,37.24,8.39c29.83-4.24,31-18.38,31-18.38a55.82,55.82,0,0,1-3.25-12l1.35-14.33s12.86-5.93,9.91-21.7c-2.89-15.4-17.07-28.69-17.07-28.69l-6.06-.9A89.11,89.11,0,0,0,115.12,197.14Z" style="fill:#455a64"></path><g id="freepik--Head--inject-507"><path d="M122.57,188.58c-.5-5.19-4.58-8.64-8.68-14.25-7.2-9.84-7.58-25,4-27.53,5.67-18.17,26-15.6,35.16-10.57,14,7.68,8.68,20.93,8.68,20.93Z"></path><path d="M155.21,141.06a12,12,0,0,1,10.21,6.15c2.7,4.81,2.59,10.41,1.73,15.72a27.44,27.44,0,0,0-.71,6.8c.2,2.27,1.38,4.64,3.49,5.49a5.3,5.3,0,0,1-5.14-1.54,5.51,5.51,0,0,0,1.62,3.9c-6-1-11.28-4.32-16.39-7.58-2.57-1.64-4.29-4.82-5.7-7.45-1.58-2.93-1.66-8.25-1-11.62C146.65,139.27,153.66,141,155.21,141.06Z" style="fill:#37474F"></path><path d="M112.8,165.94c2-2,5.77-2.75,7.48.23,1.06,1.85,1.19,4.43,3,4.49a2.29,2.29,0,0,0,2-.91A7.75,7.75,0,0,0,126,167c2.26-.44,4-2.33,3.71-6-.7-8.78,9-13.1,13.58-10.07,3.26-4.12,7-4.23,11.79-2.65,3.51,1.16,7.16,5.49,6.56,21.88-.5,13.86-5.62,19.49-9,21.05-2.43,1.1-5.36,1.24-10,.53l-1.48,6.7s7,6.57,3.38,13.61a46.8,46.8,0,0,1-12.7-4.33c-8.93-5-12.57-11-12.57-11l3.7-19.21s-3.29,4.18-7.92.23C111.24,174.52,109.9,169,112.8,165.94Z" style="fill:#ffbda7"></path><path d="M142.65,191.74c-4.84-1-15.05-4.07-16.65-8a11.37,11.37,0,0,0,3.71,5.67c3,2.51,12.4,4.86,12.4,4.86Z" style="fill:#f0997a"></path><path d="M138.27,165.54a2.25,2.25,0,1,0,4.44.78,2.25,2.25,0,0,0-4.44-.78Z" style="fill:#263238"></path><path d="M154.21,166a2.25,2.25,0,1,0,1.63-2.73A2.25,2.25,0,0,0,154.21,166Z" style="fill:#263238"></path><path d="M135.74,159.58l4.53-3.12a2.89,2.89,0,0,1-.74,3.93A2.69,2.69,0,0,1,135.74,159.58Z" style="fill:#263238"></path><path d="M154.67,156.19l4.61,3.08a2.67,2.67,0,0,1-3.77.84A2.91,2.91,0,0,1,154.67,156.19Z" style="fill:#263238"></path><polygon points="146.71 162.13 148.24 175.01 155.28 172.35 146.71 162.13" style="fill:#f0997a"></polygon><path d="M148.55,183c-1.31.87-2.11-.44-4.4-1.39s-4.44.17-4.13-1.73,3.85-3.16,6.14-2.21S150,182,148.55,183Z" style="fill:#b16668"></path><path d="M144.33,181.43a4.54,4.54,0,0,1,.62.32,2.85,2.85,0,0,0-2.42-3.1,2.32,2.32,0,0,0-2,.46,2.22,2.22,0,0,0-.3.62C139.79,181.6,142.05,180.48,144.33,181.43Z" style="fill:#f28f8f"></path></g><path d="M121.72,164.13l-7.34-.09s-1.36-7.22-1.84-11.54c-.1-.83-.16-1.56-.17-2.11,0-.24,0-.48,0-.73,0-3.06.22-5.83,3.48-8.47a18.49,18.49,0,0,1,7.49-3.45,18.31,18.31,0,0,0-2.65,3.1,5.78,5.78,0,0,0-2.58,3.68,7.81,7.81,0,0,0-.06,1.75c0,.79.15,1.73.3,2.76C119.24,155.07,121.72,164.13,121.72,164.13Z" style="fill:#455a64"></path><path d="M125.06,176.81a17.2,17.2,0,0,0-2.83-15.29,7.33,7.33,0,0,0-3.06-2.25,4.37,4.37,0,0,0-2.3-.2l-2.57.48c-1.76.33-3.25,1.82-4.1,4.2a17.23,17.23,0,0,0,2.84,15.3,7.38,7.38,0,0,0,3.06,2.24,4.4,4.4,0,0,0,2.31.2L121,181C122.71,180.69,124.22,179.21,125.06,176.81Z" style="fill:#37474f"></path><path d="M116.1,181.29a7.38,7.38,0,0,1-3.06-2.24,17.23,17.23,0,0,1-2.84-15.3c1.2-3.38,3.72-5,6.41-4a7.3,7.3,0,0,1,3,2.24,17.23,17.23,0,0,1,2.84,15.3C121.31,180.67,118.79,182.25,116.1,181.29Z" style="fill:#263238"></path><path d="M122,177.1a16.56,16.56,0,0,0-2.74-14.75c-1.55-1.82-3.28-2.55-4.83-2.26l-1.27.24c-1.54.28-2.9,1.59-3.69,3.84a16.58,16.58,0,0,0,2.73,14.75c1.56,1.82,3.29,2.55,4.83,2.26l1.28-.23C119.83,180.66,121.18,179.36,122,177.1Z" style="fill:#f0f0f0"></path><path d="M118,162.59a16.59,16.59,0,0,1,2.74,14.75c-1.6,4.51-5.41,5.22-8.52,1.58a16.58,16.58,0,0,1-2.73-14.75C111,159.66,114.85,159,118,162.59Z" style="fill:#e0e0e0"></path><path d="M120.7,177.34A16.59,16.59,0,0,0,118,162.59c-1.55-1.81-3.28-2.54-4.82-2.26-.43.08-1.22.28-1.65.36-1.54.29-2.89,1.59-3.69,3.84a16.59,16.59,0,0,0,2.74,14.75c1.55,1.82,3.28,2.55,4.82,2.26.43-.07,1.22-.28,1.65-.36C118.55,180.9,119.9,179.6,120.7,177.34Z" style="fill:#37474F"></path><path d="M116.32,163a16.59,16.59,0,0,1,2.73,14.75c-1.59,4.51-5.4,5.22-8.51,1.58a16.59,16.59,0,0,1-2.74-14.75C109.4,160,113.21,159.32,116.32,163Z" style="fill:#fff;opacity:0.15"></path><path d="M114,167.15a8.68,8.68,0,0,1,1.44,7.75c-.84,2.37-2.84,2.74-4.47.83a8.71,8.71,0,0,1-1.44-7.75C110.38,165.61,112.38,165.24,114,167.15Z" style="fill:#263238"></path><path d="M115.27,170.06l-3,1.42-1-5.48a2.77,2.77,0,0,1,2.54,1.19A7.7,7.7,0,0,1,115.27,170.06Z" style="fill:#455a64"></path><path d="M115.25,174.94a2.75,2.75,0,0,1-1.93,2l-1-5.47,3-1.42A8.35,8.35,0,0,1,115.25,174.94Z" style="fill:#37474f"></path><path d="M113.32,177a2.75,2.75,0,0,1-2.54-1.18,7.6,7.6,0,0,1-1.45-2.88l3-1.41Z" style="fill:#455a64"></path><path d="M112.3,171.48l-3,1.41a8.4,8.4,0,0,1,0-4.87,2.78,2.78,0,0,1,1.94-2Z" style="fill:#37474f"></path><path d="M160.53,177.71a23.39,23.39,0,0,1,4,3.92,4.47,4.47,0,0,1-.59,6.23l-1.69-1s1.7-1.79,1-3.32-3.31-3.48-3.31-3.48Z"></path><path d="M163.58,186.41c-1.22-1.24-2.26-.58-4.19,1.55s-1.47,3.06-.38,4,2.36.47,3.88-1.32C164.59,188.64,164.89,187.75,163.58,186.41Z" style="fill:#37474F"></path><path d="M163.58,186.41c-1.22-1.24-2.26-.58-4.19,1.55s-1.47,3.06-.38,4,2.36.47,3.88-1.32C164.59,188.64,164.89,187.75,163.58,186.41Z" style="opacity:0.1"></path><path d="M172.07,301.63l-5.51,3.18,3.87,2.24a1.6,1.6,0,0,0,1.21.13,11.26,11.26,0,0,0,4.52-2.61c.21-.22.13-.5-.21-.7Z" style="fill:#37474F"></path><path d="M187.53,292.71l5.51-3.19,3.88,2.24c.34.2.42.49.21.7a11,11,0,0,1-4.52,2.61,1.6,1.6,0,0,1-1.21-.13Z" style="fill:#37474F"></path><path d="M190.46,275c3.15,3.36,5.85,6.11,5.85,8.8,0,.79,0,4.12,0,5a5,5,0,0,1-1.76,3.57c-4.06,4-10.56,2.45-14.76,4.87s-1.54,6.18-8.43,8.52-13.08.25-21.46-2.37c-7.08-2.21-11.78-4.86-11.82-7.25,0-.45,0-4.12,0-5a2,2,0,0,1,.47-1.27c1.72-2.21,7.25-2.12,12.22-2.25,6.69-.18,12.21-1.49,15.3-3.28a11.22,11.22,0,0,0,5.67-8.83c.22-2.87.07-6.06,3.89-7.05C180.31,267.19,185.92,270.11,190.46,275Z" style="fill:#37474f"></path><path d="M190.46,275c4.54,4.84,8.17,8.41,4.1,12.39s-10.56,2.45-14.76,4.87-1.54,6.17-8.43,8.52-13.08.25-21.46-2.37-13.45-5.86-11.35-8.55c1.72-2.21,7.25-2.12,12.22-2.25,6.69-.18,12.21-1.49,15.3-3.28a11.22,11.22,0,0,0,5.67-8.83c.22-2.87.07-6.06,3.89-7.05C180.31,267.19,185.92,270.11,190.46,275Z" style="fill:#455a64"></path><path d="M175.36,279.09c1,4.13-.11,6.17-3.85,8.33s-7.27,2.78-14.43,2.22c-7.56-.59-10.35-1.62-15.9-1.31,2.53-.7,6.19-.68,9.6-.77,6.69-.18,12.21-1.49,15.3-3.28a11.22,11.22,0,0,0,5.67-8.83c.15-2,.13-4.08,1.33-5.54C172.54,273.12,174.33,274.73,175.36,279.09Z" style="fill:#37474f"></path><path d="M168.32,290.61C163.8,288,157,287.72,153,290s-3.42,6.21,1.1,8.82,11.36,2.89,15.28.63S172.84,293.22,168.32,290.61Z" style="fill:#37474f"></path><path d="M162.78,301.29A18.15,18.15,0,0,1,154,299.1c-2.49-1.44-3.91-3.37-3.91-5.29a4.9,4.9,0,0,1,2.81-4.13c4-2.31,11-2,15.62.64,2.48,1.43,3.91,3.36,3.91,5.28a4.9,4.9,0,0,1-2.81,4.13A13.9,13.9,0,0,1,162.78,301.29Zm-3.1-12.5a13.16,13.16,0,0,0-6.47,1.49,4.24,4.24,0,0,0-2.47,3.53c0,1.67,1.3,3.38,3.57,4.69,4.42,2.56,11.12,2.84,14.93.64a4.25,4.25,0,0,0,2.48-3.54c0-1.67-1.3-3.38-3.57-4.69h0A17.39,17.39,0,0,0,159.68,288.79Z" style="fill:#263238"></path><path d="M177.3,289.69l-1.87,1.07c-.23.14-.2.37.07.53h0a1,1,0,0,0,.91,0l1.87-1.08c.23-.13.2-.37-.07-.53h0A1,1,0,0,0,177.3,289.69Z" style="fill:#37474f"></path><path d="M171.54,288.91,169.68,290c-.24.14-.21.37.06.53h0a1,1,0,0,0,.91,0l1.87-1.08c.24-.14.21-.37-.06-.53h0A1,1,0,0,0,171.54,288.91Z" style="fill:#37474f"></path><path d="M169.77,282.91a7.31,7.31,0,0,0-6.55-.28c-1.68,1-1.47,2.67.47,3.78a7.31,7.31,0,0,0,6.55.28C171.91,285.72,171.7,284,169.77,282.91Z" style="fill:#37474f"></path><path d="M167.39,287.67a7.9,7.9,0,0,1-3.87-1,3,3,0,0,1-1.77-2.43,2.27,2.27,0,0,1,1.3-1.94,7.68,7.68,0,0,1,6.89.27,3,3,0,0,1,1.77,2.43,2.27,2.27,0,0,1-1.3,1.94A6.13,6.13,0,0,1,167.39,287.67Zm-1.33-5.35a5.46,5.46,0,0,0-2.67.61,1.64,1.64,0,0,0-1,1.35,2.4,2.4,0,0,0,1.43,1.84,6.94,6.94,0,0,0,6.21.27,1.64,1.64,0,0,0,1-1.35,2.4,2.4,0,0,0-1.43-1.84A7.34,7.34,0,0,0,166.06,282.32Z" style="fill:#263238"></path><path d="M177,285.58c-4.52-2.61-5-6.56-1.1-8.82s10.76-2,15.28.63,5,6.56,1.1,8.82S181.56,288.19,177,285.58Z" style="fill:#37474f"></path><path d="M185.68,288.07a18,18,0,0,1-8.81-2.2h0c-2.49-1.43-3.91-3.36-3.91-5.28a4.9,4.9,0,0,1,2.81-4.13c4-2.31,11-2,15.62.64,2.48,1.43,3.91,3.36,3.91,5.28a4.9,4.9,0,0,1-2.81,4.13A13.9,13.9,0,0,1,185.68,288.07Zm-8.47-2.79c4.42,2.55,11.12,2.84,14.93.64a4.25,4.25,0,0,0,2.48-3.54c0-1.67-1.3-3.38-3.57-4.69-4.42-2.55-11.12-2.84-14.94-.63a4.24,4.24,0,0,0-2.47,3.53c0,1.67,1.3,3.38,3.57,4.69Z" style="fill:#263238"></path><path d="M174.08,287.44l1.87-1.08a1,1,0,0,1,.91,0h0c.27.16.3.39.07.53L175.06,288a1,1,0,0,1-.91,0h0C173.88,287.81,173.85,287.57,174.08,287.44Z" style="fill:#37474f"></path><path d="M168.7,283.52a4.72,4.72,0,0,0-4.24-.17c-1.09.63-1,1.72.3,2.45A4.72,4.72,0,0,0,169,286C170.09,285.34,170,284.25,168.7,283.52Z" style="fill:#37474F"></path><path d="M168.7,283.52a4.72,4.72,0,0,0-4.24-.17c-1.09.63-1,1.72.3,2.45A4.72,4.72,0,0,0,169,286C170.09,285.34,170,284.25,168.7,283.52Z" style="fill:#fff;opacity:0.6000000000000001"></path><path d="M168.52,283.43a3.72,3.72,0,0,0-3.21.41c-1.26.91-.16,2.22,1.21,2.51a4.66,4.66,0,0,1-1.76-.55c-1.25-.73-1.39-1.82-.3-2.45A4.71,4.71,0,0,1,168.52,283.43Z" style="fill:#37474F;opacity:0.30000000000000004"></path><path d="M168.42,284.05c-.54-.11-.5.33-.71.83s-.56.86,0,1a1.46,1.46,0,0,0,1.54-.65C169.44,284.7,169,284.17,168.42,284.05Z" style="fill:#fff;opacity:0.30000000000000004"></path><path d="M167.64,296.14a4.69,4.69,0,0,0-4.24-.18c-1.09.63-1,1.72.3,2.45a4.72,4.72,0,0,0,4.24.17C169,298,168.89,296.86,167.64,296.14Z" style="fill:#37474F"></path><path d="M167.64,296.14a4.69,4.69,0,0,0-4.24-.18c-1.09.63-1,1.72.3,2.45a4.72,4.72,0,0,0,4.24.17C169,298,168.89,296.86,167.64,296.14Z" style="fill:#fff;opacity:0.5"></path><path d="M167.46,296a3.76,3.76,0,0,0-3.21.41c-1.25.91-.16,2.22,1.22,2.51a4.76,4.76,0,0,1-1.77-.55c-1.25-.73-1.39-1.82-.3-2.45A4.71,4.71,0,0,1,167.46,296Z" style="fill:#37474F;opacity:0.30000000000000004"></path><path d="M167.37,296.67c-.55-.12-.51.32-.71.82s-.57.86,0,1a1.46,1.46,0,0,0,1.54-.65C168.38,297.32,167.91,296.78,167.37,296.67Z" style="fill:#fff;opacity:0.30000000000000004"></path><ellipse cx="157.38" cy="296.93" rx="1.71" ry="3.02" transform="translate(-156.4 417.23) rotate(-83.05)" style="fill:#37474F"></ellipse><ellipse cx="157.38" cy="296.93" rx="1.71" ry="3.02" transform="translate(-156.4 417.23) rotate(-83.05)" style="fill:#fff;opacity:0.5"></ellipse><path d="M159.17,295.7a3.72,3.72,0,0,0-3.21.41c-1.25.9-.15,2.21,1.22,2.51a4.5,4.5,0,0,1-1.76-.56c-1.26-.72-1.39-1.82-.31-2.44A4.67,4.67,0,0,1,159.17,295.7Z" style="fill:#37474F;opacity:0.30000000000000004"></path><path d="M159.08,296.32c-.55-.11-.51.33-.71.83s-.57.85,0,1a1.49,1.49,0,0,0,1.54-.65C160.09,297,159.62,296.44,159.08,296.32Z" style="fill:#fff;opacity:0.30000000000000004"></path><path d="M158.76,291a4.69,4.69,0,0,0-4.24-.18c-1.09.63-1,1.72.3,2.45a4.72,4.72,0,0,0,4.24.17C160.15,292.83,160,291.73,158.76,291Z" style="fill:#37474F"></path><path d="M158.76,291a4.69,4.69,0,0,0-4.24-.18c-1.09.63-1,1.72.3,2.45a4.72,4.72,0,0,0,4.24.17C160.15,292.83,160,291.73,158.76,291Z" style="fill:#fff;opacity:0.5"></path><path d="M158.58,290.91a3.76,3.76,0,0,0-3.21.41c-1.26.91-.16,2.22,1.21,2.52a4.85,4.85,0,0,1-1.76-.56c-1.25-.73-1.39-1.82-.3-2.45A4.71,4.71,0,0,1,158.58,290.91Z" style="fill:#37474F;opacity:0.30000000000000004"></path><path d="M158.48,291.54c-.54-.12-.51.33-.71.82s-.56.86,0,1a1.45,1.45,0,0,0,1.54-.65C159.49,292.19,159,291.65,158.48,291.54Z" style="fill:#fff;opacity:0.30000000000000004"></path><path d="M167,291.35a4.73,4.73,0,0,0-4.23-.18c-1.09.63-.95,1.73.3,2.45a4.72,4.72,0,0,0,4.24.18C168.43,293.17,168.3,292.07,167,291.35Z" style="fill:#37474F"></path><path d="M167,291.35a4.73,4.73,0,0,0-4.23-.18c-1.09.63-.95,1.73.3,2.45a4.72,4.72,0,0,0,4.24.18C168.43,293.17,168.3,292.07,167,291.35Z" style="fill:#fff;opacity:0.5"></path><path d="M166.86,291.26a3.7,3.7,0,0,0-3.2.41c-1.26.9-.16,2.21,1.21,2.51a4.67,4.67,0,0,1-1.76-.56c-1.25-.72-1.39-1.82-.3-2.45A4.69,4.69,0,0,1,166.86,291.26Z" style="fill:#37474F;opacity:0.30000000000000004"></path><path d="M166.77,291.88c-.54-.11-.51.33-.71.83s-.56.85,0,1a1.48,1.48,0,0,0,1.54-.65C167.78,292.53,167.32,292,166.77,291.88Z" style="fill:#fff;opacity:0.30000000000000004"></path><path d="M190.54,282.91a4.72,4.72,0,0,0-4.24-.17c-1.09.63-1,1.72.3,2.45a4.72,4.72,0,0,0,4.24.17C191.93,284.73,191.79,283.64,190.54,282.91Z" style="fill:#37474F"></path><path d="M190.54,282.91a4.72,4.72,0,0,0-4.24-.17c-1.09.63-1,1.72.3,2.45a4.72,4.72,0,0,0,4.24.17C191.93,284.73,191.79,283.64,190.54,282.91Z" style="fill:#fff;opacity:0.5"></path><path d="M190.36,282.82a3.72,3.72,0,0,0-3.21.41c-1.25.91-.16,2.21,1.22,2.51a4.76,4.76,0,0,1-1.77-.55c-1.25-.73-1.39-1.82-.3-2.45A4.71,4.71,0,0,1,190.36,282.82Z" style="fill:#37474F;opacity:0.30000000000000004"></path><path d="M190.27,283.44c-.55-.11-.51.33-.71.83s-.57.85,0,1a1.48,1.48,0,0,0,1.54-.65C191.28,284.09,190.81,283.56,190.27,283.44Z" style="fill:#fff;opacity:0.30000000000000004"></path><path d="M182.25,282.57a4.75,4.75,0,0,0-4.24-.18c-1.08.63-.95,1.73.31,2.45a4.7,4.7,0,0,0,4.23.18C183.64,284.39,183.5,283.29,182.25,282.57Z" style="fill:#37474F"></path><path d="M182.25,282.57a4.75,4.75,0,0,0-4.24-.18c-1.08.63-.95,1.73.31,2.45a4.7,4.7,0,0,0,4.23.18C183.64,284.39,183.5,283.29,182.25,282.57Z" style="fill:#fff;opacity:0.5"></path><path d="M182.07,282.48a3.72,3.72,0,0,0-3.21.41c-1.25.9-.15,2.21,1.22,2.51a4.67,4.67,0,0,1-1.76-.56c-1.26-.72-1.39-1.82-.31-2.45A4.71,4.71,0,0,1,182.07,282.48Z" style="fill:#37474F;opacity:0.30000000000000004"></path><path d="M182,283.1c-.55-.11-.51.33-.71.83s-.57.85,0,1a1.49,1.49,0,0,0,1.54-.65C183,283.75,182.52,283.22,182,283.1Z" style="fill:#fff;opacity:0.30000000000000004"></path><path d="M181.65,277.79a4.67,4.67,0,0,0-4.23-.18c-1.09.63-.95,1.72.3,2.45a4.72,4.72,0,0,0,4.24.17C183.05,279.6,182.91,278.51,181.65,277.79Z" style="fill:#37474F"></path><path d="M181.65,277.79a4.67,4.67,0,0,0-4.23-.18c-1.09.63-.95,1.72.3,2.45a4.72,4.72,0,0,0,4.24.17C183.05,279.6,182.91,278.51,181.65,277.79Z" style="fill:#fff;opacity:0.5"></path><path d="M181.48,277.69a3.76,3.76,0,0,0-3.21.41c-1.26.91-.16,2.22,1.21,2.51a4.66,4.66,0,0,1-1.76-.55c-1.25-.73-1.39-1.82-.3-2.45A4.71,4.71,0,0,1,181.48,277.69Z" style="fill:#37474F;opacity:0.30000000000000004"></path><path d="M181.38,278.32c-.54-.12-.51.32-.71.82s-.56.86,0,1a1.45,1.45,0,0,0,1.54-.65C182.39,279,181.93,278.43,181.38,278.32Z" style="fill:#fff;opacity:0.30000000000000004"></path><path d="M189.94,278.13a4.7,4.7,0,0,0-4.23-.18c-1.09.63-1,1.73.3,2.45a4.75,4.75,0,0,0,4.24.18C191.33,280,191.2,278.85,189.94,278.13Z" style="fill:#37474F"></path><path d="M189.94,278.13a4.7,4.7,0,0,0-4.23-.18c-1.09.63-1,1.73.3,2.45a4.75,4.75,0,0,0,4.24.18C191.33,280,191.2,278.85,189.94,278.13Z" style="fill:#fff;opacity:0.5"></path><path d="M189.76,278a3.74,3.74,0,0,0-3.2.41c-1.26.91-.16,2.22,1.21,2.52a4.67,4.67,0,0,1-1.76-.56c-1.25-.72-1.39-1.82-.3-2.45A4.69,4.69,0,0,1,189.76,278Z" style="fill:#37474F;opacity:0.30000000000000004"></path><path d="M189.67,278.66c-.54-.12-.51.33-.71.82s-.56.86,0,1a1.45,1.45,0,0,0,1.54-.65C190.68,279.31,190.22,278.77,189.67,278.66Z" style="fill:#fff;opacity:0.30000000000000004"></path><path d="M107.26,200.26c-12.94,1.28-16.11,9.22-18.72,24.08-1.75,10-4.58,29.1-5.62,43.79-.45,6.33,1.25,9.35,5.37,12.35,7.42,5.4,24.41,11.85,36.05,17.09,7.78,3.5,23.46,7.36,29.44,6.87-5.22-4.11-6.34-8.58-4.87-10.22,3.34-3.71,7.27-2.36,10.68-3.39,2.85-.87,4.55-2.38,4.47-4.48-.05-1.37-3.67-1-9.68-1.53-8.32-.78-10.74,2.6-16.59.92-2.76-.79-29.82-20-29.82-20l5.88-34.8S114.75,204.34,107.26,200.26Z" style="fill:#ffbda7"></path><path d="M108,198.67c-11,1.6-15,4.53-17.66,13-2.49,7.79-5.58,27.34-7,41.9,4.65,4.31,17.52,6.85,27.37,3.1L115.42,230C116.18,221.23,116.42,206.78,108,198.67Z" style="fill:#263238"></path><path d="M182.49,269.14c2.48.77,2.94,3.32,3.13,4.85a33.88,33.88,0,0,0,.61,5.87c.89,3.43,5,4.79,5.11,2.26.11-1.88.52-4.46.64-6.71s-.37-6.05-1.5-7.89S182.36,265.7,182.49,269.14Z" style="fill:#ffbda7"></path></g></g></g><g id="freepik--Pizza--inject-507"><g id="freepik--pizza--inject-507"><g id="freepik--Plate--inject-507"><path d="M119.55,343.7c-13.64-7.88-35.76-7.88-49.41,0h0v-1.42c-7.13,4.12-10.53,9.58-10.2,15-.33,5.4,3.07,10.85,10.2,15,13.64,7.88,35.76,7.88,49.41,0S133.19,351.58,119.55,343.7Z" style="fill:#37474F"></path><path d="M119.55,342.28c13.64,7.88,13.64,20.65,0,28.52s-35.77,7.88-49.41,0-13.64-20.64,0-28.52S105.91,334.4,119.55,342.28Z" style="fill:#37474F"></path><path d="M119.55,342.28c13.64,7.88,13.64,20.65,0,28.52s-35.77,7.88-49.41,0-13.64-20.64,0-28.52S105.91,334.4,119.55,342.28Z" style="fill:#fff;opacity:0.6000000000000001"></path><path d="M78.09,348.7c-9.37,5.41-9.37,14.19,0,19.6s24.58,5.41,34,0,9.37-14.19,0-19.6S87.47,343.28,78.09,348.7Z" style="fill:#37474F"></path><path d="M78.09,348.7c-9.37,5.41-9.37,14.19,0,19.6s24.58,5.41,34,0,9.37-14.19,0-19.6S87.47,343.28,78.09,348.7Z" style="fill:#37474F"></path><path d="M79.25,349.36c-8.74,5.05-8.74,13.23,0,18.27s22.9,5.05,31.64,0,8.74-13.22,0-18.27S88,344.32,79.25,349.36Z" style="fill:#37474F"></path><path d="M79.25,349.36c-8.74,5.05-8.74,13.23,0,18.27s22.9,5.05,31.64,0,8.74-13.22,0-18.27S88,344.32,79.25,349.36Z" style="fill:#fff;opacity:0.6000000000000001"></path></g><g id="freepik--pizza--inject-507"><path d="M129.53,358.89a21.89,21.89,0,0,0-2.8-3.93,23.67,23.67,0,0,0-5-4.5,31.42,31.42,0,0,0-7.93-3.24c-3.12-1-6.31-1.92-9.57-1.8-4,.15-7.65,1.87-11.22,3.56l-18,8.5L66.1,361.7c-.86.41-3,1-4,1.93a18.46,18.46,0,0,0,2.52,3.07l.22.05c13.12,2.7,26.6,3.27,40,3.39,5.3.05,10.6,0,15.89-.08C125.8,366.85,128.72,362.93,129.53,358.89Z" style="opacity:0.15"></path><path d="M61,361.32h0A3.27,3.27,0,0,0,64,364.37c2.17.24,5.56.52,10,.6,8.19.16,43.86,1.49,45.56.39,2.71-1.76-.57-5.87-.57-5.87l-55.61,1Z" style="fill:#ffbda7"></path><path d="M105.2,335.67a6.24,6.24,0,0,1,5.53-.19,10.42,10.42,0,0,1,3.48,2.6c1.43,1.59,3.19,1.5,7.24,4.37s3.87,4.54,4.61,6.05c.64,1.31.22,3,.69,4.41s1.8,2.49,2.46,3.87a6.21,6.21,0,0,1,.57,4.18,3.83,3.83,0,0,1-2.91,2.86c-.46.08-.93.05-1.38.17a8.1,8.1,0,0,0-1.61.81c-1.19.61-2.95,1.36-4.11.69-1.41-.8-1.68-2.07-1.68-4.15-.59-1.61-2.32-3.23-3.32-4.63l-5.89-8.19c-.46-.64-7.4-10.5-7.5-10.44Z" style="fill:#f0997a"></path><path d="M111.33,351.93l.9,1.26,2.13,3c.22.3.42.59.64.87l.07.09a4.82,4.82,0,0,0,.8.83,3.12,3.12,0,0,1,1,1.39,7.9,7.9,0,0,1,1.21,2c0,2.08.27,3.35,1.68,4.15,1.16.67,2.92-.08,4.11-.69a8.1,8.1,0,0,1,1.61-.81c.45-.12.92-.09,1.38-.17a3.83,3.83,0,0,0,2.91-2.86,6.21,6.21,0,0,0-.57-4.18,11,11,0,0,0-1.26-1.87,2.65,2.65,0,0,1-.64,3c-1.06.67-4.47.3-5.86-.43s-.85-3-1.28-4.06-2.45-1.84-2.08-4.06-1-3.93-4.24-5-3.7-2.41-5-3.89-4.88-1.9-7.47-2.39c.1-.06,7,9.78,7.5,10.44C109.7,349.66,110.51,350.8,111.33,351.93Z" style="opacity:0.1"></path><path d="M101.38,338.08a43.93,43.93,0,0,1,9.22,7l.11.11.37.38h0c4.46,4.69,7,10.08,7,15.8h-57l4-2.33,1.49-.86.19-.11Z" style="fill:#ffbda7"></path><path d="M101.38,338.08a43.93,43.93,0,0,1,9.22,7l.11.11.37.38h0c4.46,4.69,7,10.08,7,15.8h-57l4-2.33,1.49-.86.19-.11Z" style="fill:#fff;opacity:0.30000000000000004"></path><path d="M81.82,352.53a4.18,4.18,0,0,1,1.71,1.68c.66,1.31.09,2.79-1.71,3.83a10.57,10.57,0,0,1-9.55,0,3.25,3.25,0,0,1-2-2.89,3.43,3.43,0,0,1,2-2.62A10.57,10.57,0,0,1,81.82,352.53Z" style="fill:#b16668"></path><path d="M98.1,351.92a10.51,10.51,0,0,1,3.27.46c2.1.64,3.54,1.91,3.58,3.37,0,2.15-2.92,3.92-6.65,3.95a9.51,9.51,0,0,1-5-1.2,3.34,3.34,0,0,1-1.89-2.63C91.4,353.72,94.37,352,98.1,351.92Z" style="fill:#b16668"></path><path d="M104.42,341a10.86,10.86,0,0,1,3.27.46c2.1.64,3.54,1.91,3.58,3.38,0,2.14-2.92,3.91-6.65,3.94a9.67,9.67,0,0,1-5-1.19,3.37,3.37,0,0,1-1.88-2.64C97.72,342.76,100.69,341,104.42,341Z" style="fill:#b16668"></path></g></g></g><g id="freepik--Drink--inject-507"><g id="freepik--Soda--inject-507"><path d="M56.16,335.74h0V297.16H32.81v38.58h0c-.1,1.8,1,3.61,3.4,5,4.57,2.64,12,2.64,16.52,0C55.13,339.35,56.25,337.54,56.16,335.74Z" style="fill:#ebebeb"></path><ellipse cx="44.49" cy="297.16" rx="11.68" ry="6.74" style="fill:#fafafa"></ellipse><path d="M36.74,301.54a17.48,17.48,0,0,0,15.51,0c4.28-2.42,4.28-6.34,0-8.76a17.48,17.48,0,0,0-15.51,0C32.46,295.2,32.46,299.12,36.74,301.54Z" style="fill:#ebebeb"></path><path d="M52.25,293.91a17.48,17.48,0,0,0-15.51,0,3.88,3.88,0,0,0,0,7.63,17.48,17.48,0,0,0,15.51,0c1.88-1.07,2.94-2.42,3.16-3.81C55.19,296.33,54.13,295,52.25,293.91Z" style="fill:#f5f5f5"></path><path d="M32.81,331.8c0,1.74,1.13,3.48,3.42,4.8,4.57,2.63,12,2.63,16.52,0,2.28-1.32,3.42-3,3.42-4.77V301c0,1.73-1.14,3.45-3.42,4.77-4.56,2.63-12,2.63-16.52,0-2.29-1.33-3.43-3.07-3.42-4.81Z" style="fill:#37474F"></path><path d="M32.81,331.8c0,1.74,1.13,3.48,3.42,4.8,4.57,2.63,12,2.63,16.52,0,2.28-1.32,3.42-3,3.42-4.77V301c0,1.73-1.14,3.45-3.42,4.77-4.56,2.63-12,2.63-16.52,0-2.29-1.33-3.43-3.07-3.42-4.81Z" style="fill:#fff;opacity:0.30000000000000004"></path><path d="M49.28,342.1c-4.3,1.11-9.52.66-13-1.38-2.38-1.37-3.5-3.18-3.41-5h0V297.16c0,1.73,1.15,3.45,3.43,4.77a9,9,0,0,0,1.12.56v36.09C37.36,340.53,43.87,342.85,49.28,342.1Z" style="opacity:0.05"></path><path d="M50.33,298.18h0c-1.64-.95-3.86-1.2-5-.57s-.66,1.92,1,2.87h0c1.64.95,3.86,1.2,5,.56S52,299.13,50.33,298.18Z" style="fill:#455a64"></path><path d="M46,296.11l-2-1.16c-1.64-.95-3.86-1.2-5-.57s-.66,1.92,1,2.87l2,1.16c1.64.95,3.87,1.2,5,.57S47.6,297.06,46,296.11Zm-3.93,0a2.44,2.44,0,0,1-2.17,0,.67.67,0,0,1,0-1.26,2.44,2.44,0,0,1,2.17,0A.67.67,0,0,1,42,296.15Zm4,2.08a2.46,2.46,0,0,1-2.18,0,.67.67,0,0,1,0-1.26A2.46,2.46,0,0,1,46,297,.67.67,0,0,1,46,298.23Z" style="fill:#ebebeb"></path><polygon points="54.76 332.95 49.93 330.48 46.78 332.25 41.83 328.9 43.92 325.09 47.92 329.27 50.07 327.74 54.76 332.95" style="fill:#455a64"></polygon><polygon points="40.68 316.34 45.95 323.26 48.47 322.05 49.74 326.79 51.82 325.48 54.41 330.77 53.45 321.37 51.17 322.9 50.47 316.64 47.05 318.45 46.09 312.77 40.68 316.34" style="fill:#455a64"></polygon><g id="freepik--Shine--inject-507"><path d="M41.17,321.94a.14.14,0,0,1-.18,0l-.09-.08a.65.65,0,0,0-.85,0L40,322a.11.11,0,0,1-.17,0,.12.12,0,0,1,0-.17l.07-.1h0a.64.64,0,0,0,0-.85l-.09-.09a.14.14,0,0,1,0-.17.14.14,0,0,1,.18,0l.1.08a.65.65,0,0,0,.85,0l.09-.09a.14.14,0,0,1,.17,0,.12.12,0,0,1,0,.17l-.07.1a.65.65,0,0,0,0,.85l.09.09A.15.15,0,0,1,41.17,321.94Zm-1-.42a.83.83,0,0,1,.47,0,.94.94,0,0,1,0-.47.93.93,0,0,1-.47,0A.83.83,0,0,1,40.22,321.52Z" style="fill:#455a64"></path><path d="M42.25,325a.82.82,0,1,1,0-1.17A.83.83,0,0,1,42.25,325Zm-1-.94a.56.56,0,0,0,0,.8.57.57,0,1,0,0-.8Z" style="fill:#455a64"></path><path d="M37.91,324.51a.13.13,0,0,1-.19,0l-.31-.29a.13.13,0,0,1,.17-.19l.32.29A.14.14,0,0,1,37.91,324.51Z" style="fill:#455a64"></path><path d="M37.92,324.88l-.29.31a.13.13,0,0,1-.19-.17l.29-.32a.14.14,0,0,1,.18,0A.14.14,0,0,1,37.92,324.88Z" style="fill:#455a64"></path><path d="M38.62,325.17a.15.15,0,0,1-.19,0l-.31-.29a.14.14,0,0,1,0-.19.13.13,0,0,1,.18,0l.32.29A.14.14,0,0,1,38.62,325.17Z" style="fill:#455a64"></path><path d="M38.57,324.17l-.29.31a.12.12,0,1,1-.18-.17l.29-.32a.14.14,0,0,1,.18,0A.14.14,0,0,1,38.57,324.17Z" style="fill:#455a64"></path></g><g id="freepik--shine--inject-507"><path d="M52.67,317.48a.82.82,0,1,1,.65-1.51.82.82,0,1,1-.65,1.51Zm.55-1.27a.55.55,0,0,0-.74.29.56.56,0,1,0,1,.45A.55.55,0,0,0,53.22,316.21Z" style="fill:#455a64"></path><path d="M51.74,313.21a.13.13,0,0,1-.06-.17l.17-.4a.13.13,0,1,1,.23.11l-.17.39A.13.13,0,0,1,51.74,313.21Z" style="fill:#455a64"></path><path d="M51.41,313.34l-.4-.17A.13.13,0,0,1,51,313a.12.12,0,0,1,.17-.07l.39.17a.13.13,0,0,1,.06.17A.11.11,0,0,1,51.41,313.34Z" style="fill:#455a64"></path><path d="M51.36,314.09a.12.12,0,0,1-.07-.17l.17-.39a.14.14,0,0,1,.17-.07.13.13,0,0,1,.07.17l-.17.39A.13.13,0,0,1,51.36,314.09Z" style="fill:#455a64"></path><path d="M52.29,313.72l-.39-.17a.12.12,0,0,1-.07-.17.13.13,0,0,1,.17-.06l.39.17a.12.12,0,0,1,.07.17A.13.13,0,0,1,52.29,313.72Z" style="fill:#455a64"></path></g><g id="freepik--shine--inject-507"><path d="M44.82,333.14a.13.13,0,0,1-.06.16l-.12.06a.65.65,0,0,0-.32.78l0,.12a.14.14,0,0,1-.07.16.13.13,0,0,1-.17-.06l0-.11h0a.66.66,0,0,0-.79-.33l-.12,0a.14.14,0,0,1-.16-.07.13.13,0,0,1,.06-.16l.11-.06a.66.66,0,0,0,.33-.79l0-.11a.13.13,0,0,1,.07-.16.13.13,0,0,1,.17.06l0,.11a.65.65,0,0,0,.79.32l.12,0A.13.13,0,0,1,44.82,333.14Zm-.78.68a.83.83,0,0,1,.18-.43,1,1,0,0,1-.44-.18.9.9,0,0,1-.18.43A.9.9,0,0,1,44,333.82Z" style="fill:#455a64"></path><path d="M50.24,333.2a.82.82,0,1,1-1.08-.45A.84.84,0,0,1,50.24,333.2Zm-1.28.53a.57.57,0,0,0,.74.31.57.57,0,0,0,.3-.74.56.56,0,1,0-1,.43Z" style="fill:#455a64"></path><path d="M46.59,336.1a.14.14,0,0,1-.07.17l-.4.16a.11.11,0,0,1-.16-.07.13.13,0,0,1,.06-.17l.4-.16A.12.12,0,0,1,46.59,336.1Z" style="fill:#455a64"></path><path d="M46.92,336.24l.17.39a.14.14,0,0,1-.07.17.12.12,0,0,1-.17-.07l-.16-.4a.12.12,0,0,1,.06-.16A.12.12,0,0,1,46.92,336.24Z" style="fill:#455a64"></path><path d="M47.48,335.73a.11.11,0,0,1-.07.16l-.4.17a.11.11,0,0,1-.16-.07.12.12,0,0,1,.07-.17l.39-.16A.12.12,0,0,1,47.48,335.73Z" style="fill:#455a64"></path><path d="M46.55,335.34l.17.4a.14.14,0,0,1-.07.17.13.13,0,0,1-.17-.07l-.17-.4a.13.13,0,0,1,.07-.16A.13.13,0,0,1,46.55,335.34Z" style="fill:#455a64"></path></g></g></g><g id="freepik--Symbols--inject-507"><g id="freepik--Exclamation--inject-507"><path d="M88.93,163.68a.91.91,0,0,1-.16-.7.92.92,0,0,1,.38-.61l3.58-2.53a.92.92,0,0,1,.7-.16.9.9,0,0,1,.61.38l2,2.87a.92.92,0,0,1,.16.7.9.9,0,0,1-.38.61l-3.58,2.53a.92.92,0,0,1-.7.16.87.87,0,0,1-.61-.38Zm-11-15.5a.9.9,0,0,1-.16-.7.92.92,0,0,1,.38-.61l3.59-2.53a.9.9,0,0,1,.7-.15.89.89,0,0,1,.61.38l8.65,12.25a.91.91,0,0,1,.16.7.92.92,0,0,1-.38.61L88,160.66a.91.91,0,0,1-.7.16.9.9,0,0,1-.61-.38Z" style="fill:#37474F"></path><path d="M88.33,179.79a.9.9,0,0,1-.49-.52,1,1,0,0,1,0-.72l1.77-4a.93.93,0,0,1,.52-.49.9.9,0,0,1,.72,0l3.22,1.42a1,1,0,0,1,.48,1.24l-1.77,4a1,1,0,0,1-1.24.48ZM71,172.13a.88.88,0,0,1-.5-.52.92.92,0,0,1,0-.71l1.78-4a.95.95,0,0,1,1.23-.48l13.73,6.06a.84.84,0,0,1,.49.52.86.86,0,0,1,0,.72l-1.77,4a1,1,0,0,1-1.24.48Z" style="fill:#37474F"></path><g style="opacity:0.30000000000000004"><path d="M88.33,179.79a.9.9,0,0,1-.49-.52,1,1,0,0,1,0-.72l1.77-4a.93.93,0,0,1,.52-.49.9.9,0,0,1,.72,0l3.22,1.42a1,1,0,0,1,.48,1.24l-1.77,4a1,1,0,0,1-1.24.48ZM71,172.13a.88.88,0,0,1-.5-.52.92.92,0,0,1,0-.71l1.78-4a.95.95,0,0,1,1.23-.48l13.73,6.06a.84.84,0,0,1,.49.52.86.86,0,0,1,0,.72l-1.77,4a1,1,0,0,1-1.24.48Z" style="fill:#fff"></path></g></g><g id="freepik--exclamation--inject-507"><path d="M185.32,165.12a.93.93,0,0,1,1.29.3l2.33,3.72a.9.9,0,0,1,.11.7.88.88,0,0,1-.41.59l-3,1.86a.89.89,0,0,1-.71.12.93.93,0,0,1-.59-.41L182,168.27a.86.86,0,0,1-.12-.7.91.91,0,0,1,.42-.59Zm16.09-10.05a.89.89,0,0,1,.71-.12.91.91,0,0,1,.59.42l2.32,3.72a.9.9,0,0,1,.11.7.88.88,0,0,1-.41.59l-12.73,8a.9.9,0,0,1-.7.11.87.87,0,0,1-.59-.41l-2.32-3.72a.89.89,0,0,1-.12-.71.91.91,0,0,1,.41-.58Z" style="fill:#37474F"></path><path d="M179.22,143.8a.87.87,0,0,1,.55-.46.92.92,0,0,1,.71,0l3.91,2a.9.9,0,0,1,.46.55.92.92,0,0,1,0,.71l-1.6,3.13a.92.92,0,0,1-.55.47.9.9,0,0,1-.72-.06l-3.9-2a1,1,0,0,1-.47-.55.9.9,0,0,1,.06-.72Zm8.63-16.89a.9.9,0,0,1,.55-.46.84.84,0,0,1,.71,0l3.91,2a.9.9,0,0,1,.46.55.86.86,0,0,1,0,.72l-6.83,13.36a1,1,0,0,1-1.26.41l-3.91-2A.91.91,0,0,1,181,141a.92.92,0,0,1,.05-.71Z" style="fill:#37474F"></path><g style="opacity:0.30000000000000004"><path d="M179.22,143.8a.87.87,0,0,1,.55-.46.92.92,0,0,1,.71,0l3.91,2a.9.9,0,0,1,.46.55.92.92,0,0,1,0,.71l-1.6,3.13a.92.92,0,0,1-.55.47.9.9,0,0,1-.72-.06l-3.9-2a1,1,0,0,1-.47-.55.9.9,0,0,1,.06-.72Zm8.63-16.89a.9.9,0,0,1,.55-.46.84.84,0,0,1,.71,0l3.91,2a.9.9,0,0,1,.46.55.86.86,0,0,1,0,.72l-6.83,13.36a1,1,0,0,1-1.26.41l-3.91-2A.91.91,0,0,1,181,141a.92.92,0,0,1,.05-.71Z" style="fill:#fff"></path></g></g></g></svg>