<svg xmlns="http://www.w3.org/2000/svg" viewBox="0 0 500 500"><g id="freepik--background-complete--inject-119"><path d="M347.9,181.6H271.25s3.81-5,8-5.58c0,0,8.17-24.32,21.85-24.5,12.72-.16,17.82,15,17.82,15s5.89-6.78,11.52-3.68,8.82,12,8.82,12S345.6,178.19,347.9,181.6Z" style="fill:#ebebeb"></path><path d="M49.91,156.87h96.93s0-6.2-13.35-7.41c0,0-12.19-27.07-30.8-23.43-11.6,2.26-17.52,18.18-17.52,18.18s-8.76-12.53-15.77-10.1-11.17,15.75-11.17,15.75S51,153.37,49.91,156.87Z" style="fill:#ebebeb"></path><path d="M130,69.94h65.91s-6.22-5.79-9-5.79-10.84-19.43-21.15-18.61S150,60.84,150,60.84,137.5,56.92,130,69.94Z" style="fill:#ebebeb"></path><path d="M139,206.57H195.4s-2.8-3.65-5.89-4.11c0,0-6-17.89-16.07-18-9.35-.12-13.1,11-13.1,11s-4.33-5-8.47-2.71-6.49,8.81-6.49,8.81S140.73,204.06,139,206.57Z" style="fill:#ebebeb"></path><path d="M393.72,231.25h56.37s-2.81-3.65-5.9-4.1c0,0-6-17.89-16.06-18-9.36-.12-13.11,11-13.11,11s-4.33-5-8.47-2.7-6.48,8.81-6.48,8.81S395.41,228.74,393.72,231.25Z" style="fill:#ebebeb"></path></g><g id="freepik--Buildings--inject-119"><rect x="278.79" y="237.36" width="31.77" height="166.52" style="fill:#dbdbdb"></rect><rect x="283.72" y="242.77" width="6.18" height="6.36" style="fill:#ebebeb"></rect><rect x="291.62" y="242.77" width="6.18" height="6.36" style="fill:#ebebeb"></rect><rect x="283.72" y="253.56" width="6.18" height="6.36" style="fill:#ebebeb"></rect><rect x="291.62" y="253.56" width="6.18" height="6.36" style="fill:#ebebeb"></rect><rect x="283.72" y="264.36" width="6.18" height="6.36" style="fill:#ebebeb"></rect><rect x="291.62" y="264.36" width="6.18" height="6.36" style="fill:#ebebeb"></rect><rect x="283.72" y="275.15" width="6.18" height="6.36" style="fill:#ebebeb"></rect><rect x="291.62" y="275.15" width="6.18" height="6.36" style="fill:#ebebeb"></rect><rect x="283.72" y="285.95" width="6.18" height="6.36" style="fill:#ebebeb"></rect><rect x="291.62" y="285.95" width="6.18" height="6.36" style="fill:#ebebeb"></rect><rect x="283.72" y="296.74" width="6.18" height="6.36" style="fill:#ebebeb"></rect><rect x="291.62" y="296.74" width="6.18" height="6.36" style="fill:#ebebeb"></rect><rect x="283.72" y="307.54" width="6.18" height="6.36" style="fill:#ebebeb"></rect><rect x="291.62" y="307.54" width="6.18" height="6.36" style="fill:#ebebeb"></rect><rect x="283.72" y="318.33" width="6.18" height="6.36" style="fill:#ebebeb"></rect><rect x="291.62" y="318.33" width="6.18" height="6.36" style="fill:#ebebeb"></rect><rect x="283.72" y="329.13" width="6.18" height="6.36" style="fill:#ebebeb"></rect><rect x="291.62" y="329.13" width="6.18" height="6.36" style="fill:#ebebeb"></rect><rect x="283.72" y="339.92" width="6.18" height="6.36" style="fill:#ebebeb"></rect><rect x="291.62" y="339.92" width="6.18" height="6.36" style="fill:#ebebeb"></rect><rect x="283.72" y="350.72" width="6.18" height="6.36" style="fill:#ebebeb"></rect><rect x="291.62" y="350.72" width="6.18" height="6.36" style="fill:#ebebeb"></rect><rect x="283.72" y="361.51" width="6.18" height="6.36" style="fill:#ebebeb"></rect><rect x="291.62" y="361.51" width="6.18" height="6.36" style="fill:#ebebeb"></rect><rect x="283.72" y="372.31" width="6.18" height="6.36" style="fill:#ebebeb"></rect><rect x="291.62" y="372.31" width="6.18" height="6.36" style="fill:#ebebeb"></rect><rect x="283.72" y="383.11" width="6.18" height="6.36" style="fill:#ebebeb"></rect><rect x="299.45" y="383.11" width="6.18" height="6.36" transform="translate(605.07 772.57) rotate(180)" style="fill:#ebebeb"></rect><rect x="299.45" y="372.31" width="6.18" height="6.36" transform="translate(605.07 750.98) rotate(180)" style="fill:#ebebeb"></rect><rect x="299.45" y="361.51" width="6.18" height="6.36" transform="translate(605.07 729.39) rotate(180)" style="fill:#ebebeb"></rect><rect x="299.45" y="350.72" width="6.18" height="6.36" transform="translate(605.07 707.8) rotate(180)" style="fill:#ebebeb"></rect><rect x="299.45" y="339.92" width="6.18" height="6.36" transform="translate(605.07 686.21) rotate(180)" style="fill:#ebebeb"></rect><rect x="299.45" y="329.13" width="6.18" height="6.36" transform="translate(605.07 664.62) rotate(180)" style="fill:#ebebeb"></rect><rect x="299.45" y="318.33" width="6.18" height="6.36" transform="translate(605.07 643.03) rotate(180)" style="fill:#ebebeb"></rect><rect x="299.45" y="307.54" width="6.18" height="6.36" transform="translate(605.07 621.44) rotate(180)" style="fill:#ebebeb"></rect><rect x="299.45" y="296.74" width="6.18" height="6.36" transform="translate(605.07 599.85) rotate(180)" style="fill:#ebebeb"></rect><rect x="299.45" y="285.95" width="6.18" height="6.36" transform="translate(605.07 578.26) rotate(180)" style="fill:#ebebeb"></rect><rect x="299.45" y="275.15" width="6.18" height="6.36" transform="translate(605.07 556.67) rotate(180)" style="fill:#ebebeb"></rect><rect x="299.45" y="264.36" width="6.18" height="6.36" transform="translate(605.07 535.08) rotate(180)" style="fill:#ebebeb"></rect><rect x="299.45" y="253.56" width="6.18" height="6.36" transform="translate(605.07 513.49) rotate(180)" style="fill:#ebebeb"></rect><rect x="299.45" y="242.77" width="6.18" height="6.36" transform="translate(605.07 491.9) rotate(180)" style="fill:#ebebeb"></rect><rect x="291.62" y="383.11" width="6.18" height="6.36" style="fill:#ebebeb"></rect><rect x="310.55" y="237.36" width="25.05" height="166.52" style="fill:#a6a6a6"></rect><rect x="327.92" y="383.11" width="5.1" height="6.36" transform="translate(660.94 772.57) rotate(180)" style="fill:#c7c7c7"></rect><rect x="321.4" y="383.11" width="5.1" height="6.36" transform="translate(647.89 772.57) rotate(180)" style="fill:#c7c7c7"></rect><rect x="327.92" y="372.31" width="5.1" height="6.36" transform="translate(660.94 750.98) rotate(180)" style="fill:#c7c7c7"></rect><rect x="321.4" y="372.31" width="5.1" height="6.36" transform="translate(647.89 750.98) rotate(180)" style="fill:#c7c7c7"></rect><rect x="327.92" y="361.51" width="5.1" height="6.36" transform="translate(660.94 729.39) rotate(180)" style="fill:#c7c7c7"></rect><rect x="321.4" y="361.51" width="5.1" height="6.36" transform="translate(647.89 729.39) rotate(180)" style="fill:#c7c7c7"></rect><rect x="327.92" y="350.72" width="5.1" height="6.36" transform="translate(660.94 707.8) rotate(180)" style="fill:#c7c7c7"></rect><rect x="321.4" y="350.72" width="5.1" height="6.36" transform="translate(647.89 707.8) rotate(180)" style="fill:#c7c7c7"></rect><rect x="327.92" y="339.92" width="5.1" height="6.36" transform="translate(660.94 686.21) rotate(180)" style="fill:#c7c7c7"></rect><rect x="321.4" y="339.92" width="5.1" height="6.36" transform="translate(647.89 686.21) rotate(180)" style="fill:#c7c7c7"></rect><rect x="327.92" y="329.13" width="5.1" height="6.36" transform="translate(660.94 664.62) rotate(180)" style="fill:#c7c7c7"></rect><rect x="321.4" y="329.13" width="5.1" height="6.36" transform="translate(647.89 664.62) rotate(180)" style="fill:#c7c7c7"></rect><rect x="327.92" y="318.33" width="5.1" height="6.36" transform="translate(660.94 643.03) rotate(180)" style="fill:#c7c7c7"></rect><rect x="321.4" y="318.33" width="5.1" height="6.36" transform="translate(647.89 643.03) rotate(180)" style="fill:#c7c7c7"></rect><rect x="327.92" y="307.54" width="5.1" height="6.36" transform="translate(660.94 621.44) rotate(180)" style="fill:#c7c7c7"></rect><rect x="321.4" y="307.54" width="5.1" height="6.36" transform="translate(647.89 621.44) rotate(180)" style="fill:#c7c7c7"></rect><rect x="327.92" y="296.74" width="5.1" height="6.36" transform="translate(660.94 599.85) rotate(180)" style="fill:#c7c7c7"></rect><rect x="321.4" y="296.74" width="5.1" height="6.36" transform="translate(647.89 599.85) rotate(180)" style="fill:#c7c7c7"></rect><rect x="327.92" y="285.95" width="5.1" height="6.36" transform="translate(660.94 578.26) rotate(180)" style="fill:#c7c7c7"></rect><rect x="321.4" y="285.95" width="5.1" height="6.36" transform="translate(647.89 578.26) rotate(180)" style="fill:#c7c7c7"></rect><rect x="327.92" y="275.15" width="5.1" height="6.36" transform="translate(660.94 556.67) rotate(180)" style="fill:#c7c7c7"></rect><rect x="321.4" y="275.15" width="5.1" height="6.36" transform="translate(647.89 556.67) rotate(180)" style="fill:#c7c7c7"></rect><rect x="327.92" y="264.36" width="5.1" height="6.36" transform="translate(660.94 535.08) rotate(180)" style="fill:#c7c7c7"></rect><rect x="321.4" y="264.36" width="5.1" height="6.36" transform="translate(647.89 535.08) rotate(180)" style="fill:#c7c7c7"></rect><rect x="327.92" y="253.56" width="5.1" height="6.36" transform="translate(660.94 513.49) rotate(180)" style="fill:#c7c7c7"></rect><rect x="321.4" y="253.56" width="5.1" height="6.36" transform="translate(647.89 513.49) rotate(180)" style="fill:#c7c7c7"></rect><rect x="327.92" y="242.77" width="5.1" height="6.36" transform="translate(660.94 491.9) rotate(180)" style="fill:#c7c7c7"></rect><rect x="314.93" y="242.77" width="5.1" height="6.36" style="fill:#c7c7c7"></rect><rect x="314.93" y="253.56" width="5.1" height="6.36" style="fill:#c7c7c7"></rect><rect x="314.93" y="264.36" width="5.1" height="6.36" style="fill:#c7c7c7"></rect><rect x="314.93" y="275.15" width="5.1" height="6.36" style="fill:#c7c7c7"></rect><rect x="314.93" y="285.95" width="5.1" height="6.36" style="fill:#c7c7c7"></rect><rect x="314.93" y="296.74" width="5.1" height="6.36" style="fill:#c7c7c7"></rect><rect x="314.93" y="307.54" width="5.1" height="6.36" style="fill:#c7c7c7"></rect><rect x="314.93" y="318.33" width="5.1" height="6.36" style="fill:#c7c7c7"></rect><rect x="314.93" y="329.13" width="5.1" height="6.36" style="fill:#c7c7c7"></rect><rect x="314.93" y="339.92" width="5.1" height="6.36" style="fill:#c7c7c7"></rect><rect x="314.93" y="350.72" width="5.1" height="6.36" style="fill:#c7c7c7"></rect><rect x="314.93" y="361.51" width="5.1" height="6.36" style="fill:#c7c7c7"></rect><rect x="314.93" y="372.31" width="5.1" height="6.36" style="fill:#c7c7c7"></rect><rect x="314.93" y="383.11" width="5.1" height="6.36" style="fill:#c7c7c7"></rect><rect x="321.4" y="242.77" width="5.1" height="6.36" transform="translate(647.89 491.9) rotate(180)" style="fill:#c7c7c7"></rect><rect x="147.83" y="228.38" width="37.58" height="175.5" style="fill:#ebebeb"></rect><rect x="146.93" y="224.54" width="38.48" height="3.84" style="fill:#c7c7c7"></rect><rect x="151.23" y="234.04" width="3.81" height="169.84" style="fill:#fff"></rect><rect x="157.97" y="234.04" width="3.81" height="169.84" style="fill:#fff"></rect><rect x="164.72" y="234.04" width="3.81" height="169.84" style="fill:#fff"></rect><rect x="171.46" y="234.04" width="3.81" height="169.84" style="fill:#fff"></rect><rect x="178.21" y="234.04" width="3.81" height="169.84" style="fill:#fff"></rect><rect x="151.23" y="238.9" width="3.81" height="7.58" style="fill:#ebebeb"></rect><rect x="157.97" y="238.9" width="3.81" height="7.58" style="fill:#ebebeb"></rect><rect x="164.72" y="238.9" width="3.81" height="7.58" style="fill:#ebebeb"></rect><rect x="171.46" y="238.9" width="3.81" height="7.58" style="fill:#ebebeb"></rect><rect x="178.21" y="238.9" width="3.81" height="7.58" style="fill:#ebebeb"></rect><rect x="151.23" y="251.23" width="3.81" height="7.59" style="fill:#ebebeb"></rect><rect x="157.97" y="251.23" width="3.81" height="7.59" style="fill:#ebebeb"></rect><rect x="164.72" y="251.23" width="3.81" height="7.59" style="fill:#ebebeb"></rect><rect x="171.46" y="251.23" width="3.81" height="7.59" style="fill:#ebebeb"></rect><rect x="178.21" y="251.23" width="3.81" height="7.59" style="fill:#ebebeb"></rect><rect x="151.23" y="263.55" width="3.81" height="7.58" style="fill:#ebebeb"></rect><rect x="157.97" y="263.55" width="3.81" height="7.58" style="fill:#ebebeb"></rect><rect x="164.72" y="263.55" width="3.81" height="7.58" style="fill:#ebebeb"></rect><rect x="171.46" y="263.55" width="3.81" height="7.58" style="fill:#ebebeb"></rect><rect x="178.21" y="263.55" width="3.81" height="7.58" style="fill:#ebebeb"></rect><rect x="151.23" y="275.88" width="3.81" height="7.58" style="fill:#ebebeb"></rect><rect x="157.97" y="275.88" width="3.81" height="7.58" style="fill:#ebebeb"></rect><rect x="164.72" y="275.88" width="3.81" height="7.58" style="fill:#ebebeb"></rect><rect x="171.46" y="275.88" width="3.81" height="7.58" style="fill:#ebebeb"></rect><rect x="178.21" y="275.88" width="3.81" height="7.58" style="fill:#ebebeb"></rect><rect x="151.23" y="288.21" width="3.81" height="7.59" style="fill:#ebebeb"></rect><rect x="157.97" y="288.21" width="3.81" height="7.59" style="fill:#ebebeb"></rect><rect x="164.72" y="288.21" width="3.81" height="7.59" style="fill:#ebebeb"></rect><rect x="171.46" y="288.21" width="3.81" height="7.59" style="fill:#ebebeb"></rect><rect x="178.21" y="288.21" width="3.81" height="7.59" style="fill:#ebebeb"></rect><rect x="151.23" y="300.54" width="3.81" height="7.59" style="fill:#ebebeb"></rect><rect x="157.97" y="300.54" width="3.81" height="7.59" style="fill:#ebebeb"></rect><rect x="164.72" y="300.54" width="3.81" height="7.59" style="fill:#ebebeb"></rect><rect x="171.46" y="300.54" width="3.81" height="7.59" style="fill:#ebebeb"></rect><rect x="178.21" y="300.54" width="3.81" height="7.59" style="fill:#ebebeb"></rect><rect x="151.23" y="312.86" width="3.81" height="7.58" style="fill:#ebebeb"></rect><rect x="157.97" y="312.86" width="3.81" height="7.58" style="fill:#ebebeb"></rect><rect x="164.72" y="312.86" width="3.81" height="7.58" style="fill:#ebebeb"></rect><rect x="171.46" y="312.86" width="3.81" height="7.58" style="fill:#ebebeb"></rect><rect x="178.21" y="312.86" width="3.81" height="7.58" style="fill:#ebebeb"></rect><rect x="151.23" y="325.19" width="3.81" height="7.59" style="fill:#ebebeb"></rect><rect x="157.97" y="325.19" width="3.81" height="7.59" style="fill:#ebebeb"></rect><rect x="164.72" y="325.19" width="3.81" height="7.59" style="fill:#ebebeb"></rect><rect x="171.46" y="325.19" width="3.81" height="7.59" style="fill:#ebebeb"></rect><rect x="178.21" y="325.19" width="3.81" height="7.59" style="fill:#ebebeb"></rect><rect x="151.23" y="337.52" width="3.81" height="7.58" style="fill:#ebebeb"></rect><rect x="157.97" y="337.52" width="3.81" height="7.58" style="fill:#ebebeb"></rect><rect x="164.72" y="337.52" width="3.81" height="7.58" style="fill:#ebebeb"></rect><rect x="171.46" y="337.52" width="3.81" height="7.58" style="fill:#ebebeb"></rect><rect x="178.21" y="337.52" width="3.81" height="7.58" style="fill:#ebebeb"></rect><rect x="151.23" y="349.85" width="3.81" height="7.59" style="fill:#ebebeb"></rect><rect x="157.97" y="349.85" width="3.81" height="7.59" style="fill:#ebebeb"></rect><rect x="164.72" y="349.85" width="3.81" height="7.59" style="fill:#ebebeb"></rect><rect x="171.46" y="349.85" width="3.81" height="7.59" style="fill:#ebebeb"></rect><rect x="178.21" y="349.85" width="3.81" height="7.59" style="fill:#ebebeb"></rect><rect x="151.23" y="362.17" width="3.81" height="7.58" style="fill:#ebebeb"></rect><rect x="157.97" y="362.17" width="3.81" height="7.58" style="fill:#ebebeb"></rect><rect x="164.72" y="362.17" width="3.81" height="7.58" style="fill:#ebebeb"></rect><rect x="171.46" y="362.17" width="3.81" height="7.58" style="fill:#ebebeb"></rect><rect x="178.21" y="362.17" width="3.81" height="7.58" style="fill:#ebebeb"></rect><rect x="151.23" y="374.5" width="3.81" height="7.58" style="fill:#ebebeb"></rect><rect x="157.97" y="374.5" width="3.81" height="7.58" style="fill:#ebebeb"></rect><rect x="164.72" y="374.5" width="3.81" height="7.58" style="fill:#ebebeb"></rect><rect x="171.46" y="374.5" width="3.81" height="7.58" style="fill:#ebebeb"></rect><rect x="178.21" y="374.5" width="3.81" height="7.58" style="fill:#ebebeb"></rect><rect x="151.23" y="386.83" width="3.81" height="7.59" style="fill:#ebebeb"></rect><rect x="157.97" y="386.83" width="3.81" height="7.59" style="fill:#ebebeb"></rect><rect x="164.72" y="386.83" width="3.81" height="7.59" style="fill:#ebebeb"></rect><rect x="171.46" y="386.83" width="3.81" height="7.59" style="fill:#ebebeb"></rect><rect x="178.21" y="386.83" width="3.81" height="7.59" style="fill:#ebebeb"></rect><rect x="151.23" y="399.15" width="3.81" height="4.73" style="fill:#ebebeb"></rect><rect x="157.97" y="399.15" width="3.81" height="4.73" style="fill:#ebebeb"></rect><rect x="164.72" y="399.15" width="3.81" height="4.73" style="fill:#ebebeb"></rect><rect x="171.46" y="399.15" width="3.81" height="4.73" style="fill:#ebebeb"></rect><rect x="178.21" y="399.15" width="3.81" height="4.73" style="fill:#ebebeb"></rect><rect x="185.41" y="228.38" width="24.13" height="175.5" style="fill:#dbdbdb"></rect><rect x="185.41" y="224.54" width="25.17" height="3.84" style="fill:#c7c7c7"></rect><rect x="188.81" y="234.04" width="3.81" height="169.84" style="fill:#c7c7c7"></rect><rect x="195.55" y="234.04" width="3.81" height="169.84" style="fill:#c7c7c7"></rect><rect x="202.3" y="234.04" width="3.81" height="169.84" style="fill:#c7c7c7"></rect><rect x="188.81" y="238.9" width="3.81" height="7.58" style="fill:#dbdbdb"></rect><rect x="195.55" y="238.9" width="3.81" height="7.58" style="fill:#dbdbdb"></rect><rect x="202.3" y="238.9" width="3.81" height="7.58" style="fill:#dbdbdb"></rect><rect x="188.81" y="251.23" width="3.81" height="7.59" style="fill:#dbdbdb"></rect><rect x="195.55" y="251.23" width="3.81" height="7.59" style="fill:#dbdbdb"></rect><rect x="202.3" y="251.23" width="3.81" height="7.59" style="fill:#dbdbdb"></rect><rect x="188.81" y="263.55" width="3.81" height="7.58" style="fill:#dbdbdb"></rect><rect x="195.55" y="263.55" width="3.81" height="7.58" style="fill:#dbdbdb"></rect><rect x="202.3" y="263.55" width="3.81" height="7.58" style="fill:#dbdbdb"></rect><rect x="188.81" y="275.88" width="3.81" height="7.58" style="fill:#dbdbdb"></rect><rect x="195.55" y="275.88" width="3.81" height="7.58" style="fill:#dbdbdb"></rect><rect x="202.3" y="275.88" width="3.81" height="7.58" style="fill:#dbdbdb"></rect><rect x="188.81" y="288.21" width="3.81" height="7.59" style="fill:#dbdbdb"></rect><rect x="195.55" y="288.21" width="3.81" height="7.59" style="fill:#dbdbdb"></rect><rect x="202.3" y="288.21" width="3.81" height="7.59" style="fill:#dbdbdb"></rect><rect x="188.81" y="300.54" width="3.81" height="7.59" style="fill:#dbdbdb"></rect><rect x="195.55" y="300.54" width="3.81" height="7.59" style="fill:#dbdbdb"></rect><rect x="202.3" y="300.54" width="3.81" height="7.59" style="fill:#dbdbdb"></rect><rect x="188.81" y="312.86" width="3.81" height="7.58" style="fill:#dbdbdb"></rect><rect x="195.55" y="312.86" width="3.81" height="7.58" style="fill:#dbdbdb"></rect><rect x="202.3" y="312.86" width="3.81" height="7.58" style="fill:#dbdbdb"></rect><rect x="188.81" y="325.19" width="3.81" height="7.59" style="fill:#dbdbdb"></rect><rect x="195.55" y="325.19" width="3.81" height="7.59" style="fill:#dbdbdb"></rect><rect x="202.3" y="325.19" width="3.81" height="7.59" style="fill:#dbdbdb"></rect><rect x="188.81" y="337.52" width="3.81" height="7.58" style="fill:#dbdbdb"></rect><rect x="195.55" y="337.52" width="3.81" height="7.58" style="fill:#dbdbdb"></rect><rect x="202.3" y="337.52" width="3.81" height="7.58" style="fill:#dbdbdb"></rect><rect x="188.81" y="349.85" width="3.81" height="7.59" style="fill:#dbdbdb"></rect><rect x="195.55" y="349.85" width="3.81" height="7.59" style="fill:#dbdbdb"></rect><rect x="202.3" y="349.85" width="3.81" height="7.59" style="fill:#dbdbdb"></rect><rect x="188.81" y="362.17" width="3.81" height="7.58" style="fill:#dbdbdb"></rect><rect x="195.55" y="362.17" width="3.81" height="7.58" style="fill:#dbdbdb"></rect><rect x="202.3" y="362.17" width="3.81" height="7.58" style="fill:#dbdbdb"></rect><rect x="188.81" y="374.5" width="3.81" height="7.58" style="fill:#dbdbdb"></rect><rect x="195.55" y="374.5" width="3.81" height="7.58" style="fill:#dbdbdb"></rect><rect x="202.3" y="374.5" width="3.81" height="7.58" style="fill:#dbdbdb"></rect><rect x="188.81" y="386.83" width="3.81" height="7.59" style="fill:#dbdbdb"></rect><rect x="195.55" y="386.83" width="3.81" height="7.59" style="fill:#dbdbdb"></rect><rect x="202.3" y="386.83" width="3.81" height="7.59" style="fill:#dbdbdb"></rect><rect x="188.81" y="399.15" width="3.81" height="4.73" style="fill:#dbdbdb"></rect><rect x="195.55" y="399.15" width="3.81" height="4.73" style="fill:#dbdbdb"></rect><rect x="202.3" y="399.15" width="3.81" height="4.73" style="fill:#dbdbdb"></rect><rect x="55.81" y="292.88" width="37.42" height="111" style="fill:#ebebeb"></rect><rect x="61.14" y="283.47" width="32.1" height="9.41" style="fill:#c7c7c7"></rect><rect x="59.92" y="297.79" width="29.21" height="106.09" style="fill:#dbdbdb"></rect><rect x="59.92" y="307.92" width="29.21" height="2.51" style="fill:#fff"></rect><rect x="59.92" y="318.3" width="29.21" height="2.51" style="fill:#fff"></rect><rect x="59.92" y="328.68" width="29.21" height="2.51" style="fill:#fff"></rect><rect x="59.92" y="339.07" width="29.21" height="2.51" style="fill:#fff"></rect><rect x="59.92" y="349.45" width="29.21" height="2.51" style="fill:#fff"></rect><rect x="59.92" y="359.84" width="29.21" height="2.51" style="fill:#fff"></rect><rect x="59.92" y="370.22" width="29.21" height="2.51" style="fill:#fff"></rect><rect x="59.92" y="380.61" width="29.21" height="2.51" style="fill:#fff"></rect><rect x="59.92" y="390.99" width="29.21" height="2.51" style="fill:#fff"></rect><rect x="59.92" y="401.38" width="29.21" height="2.51" style="fill:#fff"></rect><rect x="93.23" y="292.88" width="23.44" height="111" style="fill:#dbdbdb"></rect><rect x="93.23" y="283.47" width="19.92" height="9.41" style="fill:#a6a6a6"></rect><rect x="96.47" y="297.79" width="18.02" height="106.09" style="fill:#c7c7c7"></rect><rect x="96.47" y="307.92" width="18.02" height="2.51" style="fill:#fff"></rect><rect x="96.47" y="318.3" width="18.02" height="2.51" style="fill:#fff"></rect><rect x="96.47" y="328.68" width="18.02" height="2.51" style="fill:#fff"></rect><rect x="96.47" y="339.07" width="18.02" height="2.51" style="fill:#fff"></rect><rect x="96.47" y="349.45" width="18.02" height="2.51" style="fill:#fff"></rect><rect x="96.47" y="359.84" width="18.02" height="2.51" style="fill:#fff"></rect><rect x="96.47" y="370.22" width="18.02" height="2.51" style="fill:#fff"></rect><rect x="96.47" y="380.61" width="18.02" height="2.51" style="fill:#fff"></rect><rect x="96.47" y="390.99" width="18.02" height="2.51" style="fill:#fff"></rect><rect x="96.47" y="401.38" width="18.02" height="2.51" style="fill:#fff"></rect><rect x="339.23" y="338.9" width="28.93" height="64.98" style="fill:#dbdbdb"></rect><rect x="343.77" y="344.52" width="5.12" height="3.98" style="fill:#c7c7c7"></rect><rect x="343.77" y="353.03" width="5.12" height="3.98" style="fill:#c7c7c7"></rect><rect x="343.77" y="361.53" width="5.12" height="3.98" style="fill:#c7c7c7"></rect><rect x="343.77" y="370.03" width="5.12" height="3.98" style="fill:#c7c7c7"></rect><rect x="343.77" y="378.54" width="5.12" height="3.98" style="fill:#c7c7c7"></rect><rect x="343.77" y="387.04" width="5.12" height="3.98" style="fill:#c7c7c7"></rect><rect x="343.77" y="395.55" width="5.12" height="3.98" style="fill:#c7c7c7"></rect><rect x="351.14" y="344.52" width="5.12" height="3.98" style="fill:#c7c7c7"></rect><rect x="351.14" y="353.03" width="5.12" height="3.98" style="fill:#c7c7c7"></rect><rect x="351.14" y="361.53" width="5.12" height="3.98" style="fill:#c7c7c7"></rect><rect x="351.14" y="370.03" width="5.12" height="3.98" style="fill:#c7c7c7"></rect><rect x="351.14" y="378.54" width="5.12" height="3.98" style="fill:#c7c7c7"></rect><rect x="351.14" y="387.04" width="5.12" height="3.98" style="fill:#c7c7c7"></rect><rect x="351.14" y="395.55" width="5.12" height="3.98" style="fill:#c7c7c7"></rect><rect x="358.49" y="344.52" width="5.12" height="3.98" style="fill:#c7c7c7"></rect><rect x="358.49" y="353.03" width="5.12" height="3.98" style="fill:#c7c7c7"></rect><rect x="358.49" y="361.53" width="5.12" height="3.98" style="fill:#c7c7c7"></rect><rect x="358.49" y="370.03" width="5.12" height="3.98" style="fill:#c7c7c7"></rect><rect x="358.49" y="378.54" width="5.12" height="3.98" style="fill:#c7c7c7"></rect><rect x="358.49" y="387.04" width="5.12" height="3.98" style="fill:#c7c7c7"></rect><rect x="358.49" y="395.55" width="5.12" height="3.98" style="fill:#c7c7c7"></rect><rect x="368.15" y="338.9" width="20.3" height="64.98" style="fill:#a6a6a6"></rect><rect x="382.2" y="394.91" width="4.17" height="3.98" transform="translate(768.58 793.8) rotate(180)" style="fill:#c7c7c7"></rect><rect x="382.2" y="386.41" width="4.17" height="3.98" transform="translate(768.58 776.8) rotate(180)" style="fill:#c7c7c7"></rect><rect x="382.2" y="377.9" width="4.17" height="3.98" transform="translate(768.58 759.79) rotate(180)" style="fill:#c7c7c7"></rect><rect x="382.2" y="369.4" width="4.17" height="3.98" transform="translate(768.58 742.78) rotate(180)" style="fill:#c7c7c7"></rect><rect x="382.2" y="360.9" width="4.17" height="3.98" transform="translate(768.58 725.77) rotate(180)" style="fill:#c7c7c7"></rect><rect x="382.2" y="352.39" width="4.17" height="3.98" transform="translate(768.58 708.77) rotate(180)" style="fill:#c7c7c7"></rect><rect x="382.2" y="343.89" width="4.17" height="3.98" transform="translate(768.58 691.76) rotate(180)" style="fill:#c7c7c7"></rect><rect x="376.21" y="394.91" width="4.17" height="3.98" transform="translate(756.59 793.8) rotate(180)" style="fill:#c7c7c7"></rect><rect x="376.21" y="386.41" width="4.17" height="3.98" transform="translate(756.59 776.8) rotate(180)" style="fill:#c7c7c7"></rect><rect x="376.21" y="377.9" width="4.17" height="3.98" transform="translate(756.59 759.79) rotate(180)" style="fill:#c7c7c7"></rect><rect x="376.21" y="369.4" width="4.17" height="3.98" transform="translate(756.59 742.78) rotate(180)" style="fill:#c7c7c7"></rect><rect x="376.21" y="360.9" width="4.17" height="3.98" transform="translate(756.59 725.77) rotate(180)" style="fill:#c7c7c7"></rect><rect x="376.21" y="352.39" width="4.17" height="3.98" transform="translate(756.59 708.77) rotate(180)" style="fill:#c7c7c7"></rect><rect x="376.21" y="343.89" width="4.17" height="3.98" transform="translate(756.59 691.76) rotate(180)" style="fill:#c7c7c7"></rect><rect x="370.23" y="394.91" width="4.17" height="3.98" transform="translate(744.63 793.8) rotate(180)" style="fill:#c7c7c7"></rect><rect x="370.23" y="386.41" width="4.17" height="3.98" transform="translate(744.63 776.8) rotate(180)" style="fill:#c7c7c7"></rect><rect x="370.23" y="377.9" width="4.17" height="3.98" transform="translate(744.63 759.79) rotate(180)" style="fill:#c7c7c7"></rect><rect x="370.23" y="369.4" width="4.17" height="3.98" transform="translate(744.63 742.78) rotate(180)" style="fill:#c7c7c7"></rect><rect x="370.23" y="360.9" width="4.17" height="3.98" transform="translate(744.63 725.77) rotate(180)" style="fill:#c7c7c7"></rect><rect x="370.23" y="352.39" width="4.17" height="3.98" transform="translate(744.63 708.77) rotate(180)" style="fill:#c7c7c7"></rect><rect x="370.23" y="343.89" width="4.17" height="3.98" transform="translate(744.63 691.76) rotate(180)" style="fill:#c7c7c7"></rect><rect x="393.35" y="264.36" width="19.99" height="23.61" style="fill:#dbdbdb"></rect><rect x="413.33" y="264.36" width="12.67" height="24.47" style="fill:#c7c7c7"></rect><rect x="414.27" y="274.78" width="12.58" height="14.05" style="fill:#dbdbdb"></rect><rect x="426.85" y="274.78" width="7.84" height="14.05" style="fill:#c7c7c7"></rect><rect x="385.68" y="286.43" width="32.32" height="117.45" style="fill:#ebebeb"></rect><rect x="389.38" y="291.48" width="10.16" height="4.15" style="fill:#fff"></rect><rect x="402.38" y="291.48" width="10.16" height="4.15" style="fill:#fff"></rect><rect x="389.38" y="298.53" width="10.16" height="4.15" style="fill:#fff"></rect><rect x="402.38" y="298.53" width="10.16" height="4.15" style="fill:#fff"></rect><rect x="389.38" y="305.58" width="10.16" height="4.15" style="fill:#fff"></rect><rect x="402.38" y="305.58" width="10.16" height="4.15" style="fill:#fff"></rect><rect x="389.38" y="312.63" width="10.16" height="4.15" style="fill:#fff"></rect><rect x="402.38" y="312.63" width="10.16" height="4.15" style="fill:#fff"></rect><rect x="389.38" y="319.68" width="10.16" height="4.15" style="fill:#fff"></rect><rect x="402.38" y="319.68" width="10.16" height="4.15" style="fill:#fff"></rect><rect x="389.38" y="326.73" width="10.16" height="4.15" style="fill:#fff"></rect><rect x="402.38" y="326.73" width="10.16" height="4.15" style="fill:#fff"></rect><rect x="389.38" y="333.78" width="10.16" height="4.15" style="fill:#fff"></rect><rect x="402.38" y="333.78" width="10.16" height="4.15" style="fill:#fff"></rect><rect x="389.38" y="340.83" width="10.16" height="4.15" style="fill:#fff"></rect><rect x="402.38" y="340.83" width="10.16" height="4.15" style="fill:#fff"></rect><rect x="389.38" y="347.88" width="10.16" height="4.15" style="fill:#fff"></rect><rect x="402.38" y="347.88" width="10.16" height="4.15" style="fill:#fff"></rect><rect x="389.38" y="354.93" width="10.16" height="4.15" style="fill:#fff"></rect><rect x="402.38" y="354.93" width="10.16" height="4.15" style="fill:#fff"></rect><rect x="389.38" y="361.98" width="10.16" height="4.15" style="fill:#fff"></rect><rect x="402.38" y="361.98" width="10.16" height="4.15" style="fill:#fff"></rect><rect x="389.38" y="369.03" width="10.16" height="4.15" style="fill:#fff"></rect><rect x="402.38" y="369.03" width="10.16" height="4.15" style="fill:#fff"></rect><rect x="389.38" y="376.08" width="10.16" height="4.15" style="fill:#fff"></rect><rect x="402.38" y="376.08" width="10.16" height="4.15" style="fill:#fff"></rect><rect x="389.38" y="383.13" width="10.16" height="4.15" style="fill:#fff"></rect><rect x="402.38" y="383.13" width="10.16" height="4.15" style="fill:#fff"></rect><rect x="418" y="286.43" width="26.19" height="117.45" style="fill:#c7c7c7"></rect><rect x="433.22" y="383.13" width="8.34" height="4.15" transform="translate(874.78 770.41) rotate(180)" style="fill:#ebebeb"></rect><rect x="422.54" y="383.13" width="8.34" height="4.15" transform="translate(853.43 770.41) rotate(180)" style="fill:#ebebeb"></rect><rect x="433.22" y="376.08" width="8.34" height="4.15" transform="translate(874.78 756.31) rotate(180)" style="fill:#ebebeb"></rect><rect x="422.54" y="376.08" width="8.34" height="4.15" transform="translate(853.43 756.31) rotate(180)" style="fill:#ebebeb"></rect><rect x="433.22" y="369.03" width="8.34" height="4.15" transform="translate(874.78 742.21) rotate(180)" style="fill:#ebebeb"></rect><rect x="422.54" y="369.03" width="8.34" height="4.15" transform="translate(853.43 742.21) rotate(180)" style="fill:#ebebeb"></rect><rect x="433.22" y="361.98" width="8.34" height="4.15" transform="translate(874.78 728.11) rotate(180)" style="fill:#ebebeb"></rect><rect x="422.54" y="361.98" width="8.34" height="4.15" transform="translate(853.43 728.11) rotate(180)" style="fill:#ebebeb"></rect><rect x="433.22" y="354.93" width="8.34" height="4.15" transform="translate(874.78 714.01) rotate(180)" style="fill:#ebebeb"></rect><rect x="422.54" y="354.93" width="8.34" height="4.15" transform="translate(853.43 714.01) rotate(180)" style="fill:#ebebeb"></rect><rect x="433.22" y="347.88" width="8.34" height="4.15" transform="translate(874.78 699.91) rotate(180)" style="fill:#ebebeb"></rect><rect x="422.54" y="347.88" width="8.34" height="4.15" transform="translate(853.43 699.91) rotate(180)" style="fill:#ebebeb"></rect><rect x="433.22" y="340.83" width="8.34" height="4.15" transform="translate(874.78 685.81) rotate(180)" style="fill:#ebebeb"></rect><rect x="422.54" y="340.83" width="8.34" height="4.15" transform="translate(853.43 685.81) rotate(180)" style="fill:#ebebeb"></rect><rect x="433.22" y="333.78" width="8.34" height="4.15" transform="translate(874.78 671.71) rotate(180)" style="fill:#ebebeb"></rect><rect x="422.54" y="333.78" width="8.34" height="4.15" transform="translate(853.43 671.71) rotate(180)" style="fill:#ebebeb"></rect><rect x="433.22" y="326.73" width="8.34" height="4.15" transform="translate(874.78 657.61) rotate(180)" style="fill:#ebebeb"></rect><rect x="422.54" y="326.73" width="8.34" height="4.15" transform="translate(853.43 657.61) rotate(180)" style="fill:#ebebeb"></rect><rect x="433.22" y="319.68" width="8.34" height="4.15" transform="translate(874.78 643.51) rotate(180)" style="fill:#ebebeb"></rect><rect x="422.54" y="319.68" width="8.34" height="4.15" transform="translate(853.43 643.51) rotate(180)" style="fill:#ebebeb"></rect><rect x="433.22" y="312.63" width="8.34" height="4.15" transform="translate(874.78 629.41) rotate(180)" style="fill:#ebebeb"></rect><rect x="422.54" y="312.63" width="8.34" height="4.15" transform="translate(853.43 629.41) rotate(180)" style="fill:#ebebeb"></rect><rect x="433.22" y="305.58" width="8.34" height="4.15" transform="translate(874.78 615.31) rotate(180)" style="fill:#ebebeb"></rect><rect x="422.54" y="305.58" width="8.34" height="4.15" transform="translate(853.43 615.31) rotate(180)" style="fill:#ebebeb"></rect><rect x="433.22" y="298.53" width="8.34" height="4.15" transform="translate(874.78 601.22) rotate(180)" style="fill:#ebebeb"></rect><rect x="422.54" y="298.53" width="8.34" height="4.15" transform="translate(853.43 601.22) rotate(180)" style="fill:#ebebeb"></rect><rect x="433.22" y="291.48" width="8.34" height="4.15" transform="translate(874.78 587.12) rotate(180)" style="fill:#ebebeb"></rect><rect x="422.54" y="291.48" width="8.34" height="4.15" transform="translate(853.43 587.12) rotate(180)" style="fill:#ebebeb"></rect><rect x="108" y="327.35" width="38.12" height="76.53" style="fill:#c7c7c7"></rect><rect x="113.99" y="333.98" width="6.75" height="4.69" style="fill:#dbdbdb"></rect><rect x="113.99" y="343.99" width="6.75" height="4.69" style="fill:#dbdbdb"></rect><rect x="113.99" y="354.01" width="6.75" height="4.69" style="fill:#dbdbdb"></rect><rect x="113.99" y="364.02" width="6.75" height="4.69" style="fill:#dbdbdb"></rect><rect x="113.99" y="374.04" width="6.75" height="4.69" style="fill:#dbdbdb"></rect><rect x="113.99" y="384.05" width="6.75" height="4.69" style="fill:#dbdbdb"></rect><rect x="113.99" y="394.07" width="6.75" height="4.69" style="fill:#dbdbdb"></rect><rect x="123.7" y="333.98" width="6.75" height="4.69" style="fill:#dbdbdb"></rect><rect x="123.7" y="343.99" width="6.75" height="4.69" style="fill:#dbdbdb"></rect><rect x="123.7" y="354.01" width="6.75" height="4.69" style="fill:#dbdbdb"></rect><rect x="123.7" y="364.02" width="6.75" height="4.69" style="fill:#dbdbdb"></rect><rect x="123.7" y="374.04" width="6.75" height="4.69" style="fill:#dbdbdb"></rect><rect x="123.7" y="384.05" width="6.75" height="4.69" style="fill:#dbdbdb"></rect><rect x="123.7" y="394.07" width="6.75" height="4.69" style="fill:#dbdbdb"></rect><rect x="133.38" y="333.98" width="6.75" height="4.69" style="fill:#dbdbdb"></rect><rect x="133.38" y="343.99" width="6.75" height="4.69" style="fill:#dbdbdb"></rect><rect x="133.38" y="354.01" width="6.75" height="4.69" style="fill:#dbdbdb"></rect><rect x="133.38" y="364.02" width="6.75" height="4.69" style="fill:#dbdbdb"></rect><rect x="133.38" y="374.04" width="6.75" height="4.69" style="fill:#dbdbdb"></rect><rect x="133.38" y="384.05" width="6.75" height="4.69" style="fill:#dbdbdb"></rect><rect x="133.38" y="394.07" width="6.75" height="4.69" style="fill:#dbdbdb"></rect><rect x="120.74" y="319.38" width="25.38" height="7.97" style="fill:#dbdbdb"></rect><rect x="130.03" y="314.44" width="16.09" height="4.94" style="fill:#ebebeb"></rect><rect x="146.12" y="327.35" width="26.74" height="76.53" style="fill:#a6a6a6"></rect><rect x="164.63" y="393.32" width="5.49" height="4.69" transform="translate(334.76 791.32) rotate(180)" style="fill:#c7c7c7"></rect><rect x="164.63" y="383.3" width="5.49" height="4.69" transform="translate(334.76 771.29) rotate(180)" style="fill:#c7c7c7"></rect><rect x="164.63" y="373.29" width="5.49" height="4.69" transform="translate(334.76 751.26) rotate(180)" style="fill:#c7c7c7"></rect><rect x="164.63" y="363.27" width="5.49" height="4.69" transform="translate(334.76 731.23) rotate(180)" style="fill:#c7c7c7"></rect><rect x="164.63" y="353.26" width="5.49" height="4.69" transform="translate(334.76 711.2) rotate(180)" style="fill:#c7c7c7"></rect><rect x="164.63" y="343.24" width="5.49" height="4.69" transform="translate(334.76 691.17) rotate(180)" style="fill:#c7c7c7"></rect><rect x="164.63" y="333.23" width="5.49" height="4.69" transform="translate(334.76 671.14) rotate(180)" style="fill:#c7c7c7"></rect><rect x="156.73" y="393.32" width="5.49" height="4.69" transform="translate(318.96 791.32) rotate(180)" style="fill:#c7c7c7"></rect><rect x="156.73" y="383.3" width="5.49" height="4.69" transform="translate(318.96 771.29) rotate(180)" style="fill:#c7c7c7"></rect><rect x="156.73" y="373.29" width="5.49" height="4.69" transform="translate(318.96 751.26) rotate(180)" style="fill:#c7c7c7"></rect><rect x="156.73" y="363.27" width="5.49" height="4.69" transform="translate(318.96 731.23) rotate(180)" style="fill:#c7c7c7"></rect><rect x="156.73" y="353.26" width="5.49" height="4.69" transform="translate(318.96 711.2) rotate(180)" style="fill:#c7c7c7"></rect><rect x="156.73" y="343.24" width="5.49" height="4.69" transform="translate(318.96 691.17) rotate(180)" style="fill:#c7c7c7"></rect><rect x="156.73" y="333.23" width="5.49" height="4.69" transform="translate(318.96 671.14) rotate(180)" style="fill:#c7c7c7"></rect><rect x="148.85" y="393.32" width="5.49" height="4.69" transform="translate(303.2 791.32) rotate(180)" style="fill:#c7c7c7"></rect><rect x="148.85" y="383.3" width="5.49" height="4.69" transform="translate(303.2 771.29) rotate(180)" style="fill:#c7c7c7"></rect><rect x="148.85" y="373.29" width="5.49" height="4.69" transform="translate(303.2 751.26) rotate(180)" style="fill:#c7c7c7"></rect><rect x="148.85" y="363.27" width="5.49" height="4.69" transform="translate(303.2 731.23) rotate(180)" style="fill:#c7c7c7"></rect><rect x="148.85" y="353.26" width="5.49" height="4.69" transform="translate(303.2 711.2) rotate(180)" style="fill:#c7c7c7"></rect><rect x="148.85" y="343.24" width="5.49" height="4.69" transform="translate(303.2 691.17) rotate(180)" style="fill:#c7c7c7"></rect><rect x="148.85" y="333.23" width="5.49" height="4.69" transform="translate(303.2 671.14) rotate(180)" style="fill:#c7c7c7"></rect><rect x="146.12" y="319.38" width="22.69" height="7.97" style="fill:#c7c7c7"></rect><rect x="146.12" y="314.44" width="12.3" height="4.94" style="fill:#dbdbdb"></rect></g><g id="freepik--Shadow--inject-119"><ellipse cx="250" cy="457.2" rx="137.99" ry="12.27" style="fill:#ebebeb"></ellipse></g><g id="freepik--Floor--inject-119"><polygon points="42.29 409.55 94.21 409.31 146.14 409.22 250 409.05 353.86 409.22 405.79 409.3 457.71 409.55 405.79 409.79 353.86 409.88 250 410.05 146.14 409.88 94.21 409.79 42.29 409.55" style="fill:#263238"></polygon><rect x="48.87" y="403.88" width="402.27" height="5.83" style="fill:#c7c7c7"></rect><path d="M77.07,403.88a8.55,8.55,0,0,1,.48,2.92,8.32,8.32,0,0,1-.48,2.92,8.1,8.1,0,0,1-.48-2.92A8.32,8.32,0,0,1,77.07,403.88Z" style="fill:#263238"></path><path d="M108.51,403.88a9.12,9.12,0,0,1,0,5.84,9.12,9.12,0,0,1,0-5.84Z" style="fill:#263238"></path><path d="M140,403.88a8.32,8.32,0,0,1,.48,2.92,8.1,8.1,0,0,1-.48,2.92,9.12,9.12,0,0,1,0-5.84Z" style="fill:#263238"></path><path d="M171.39,403.88a9.12,9.12,0,0,1,0,5.84,9.31,9.31,0,0,1,0-5.84Z" style="fill:#263238"></path><path d="M202.84,403.88a8.3,8.3,0,0,1,.47,2.92,8.08,8.08,0,0,1-.47,2.92,9.12,9.12,0,0,1,0-5.84Z" style="fill:#263238"></path><path d="M234.28,403.88a9.12,9.12,0,0,1,0,5.84,8.1,8.1,0,0,1-.48-2.92A8.32,8.32,0,0,1,234.28,403.88Z" style="fill:#263238"></path><path d="M265.72,403.88a8.32,8.32,0,0,1,.48,2.92,8.1,8.1,0,0,1-.48,2.92,9.12,9.12,0,0,1,0-5.84Z" style="fill:#263238"></path><path d="M297.16,403.88a9.12,9.12,0,0,1,0,5.84,8.08,8.08,0,0,1-.47-2.92A8.3,8.3,0,0,1,297.16,403.88Z" style="fill:#263238"></path><path d="M328.61,403.88a9.31,9.31,0,0,1,0,5.84,9.12,9.12,0,0,1,0-5.84Z" style="fill:#263238"></path><path d="M360.05,403.88a9.12,9.12,0,0,1,0,5.84,8.1,8.1,0,0,1-.48-2.92A8.32,8.32,0,0,1,360.05,403.88Z" style="fill:#263238"></path><path d="M391.49,403.88a9.12,9.12,0,0,1,0,5.84,9.12,9.12,0,0,1,0-5.84Z" style="fill:#263238"></path><path d="M422.93,403.88a8.32,8.32,0,0,1,.48,2.92,8.1,8.1,0,0,1-.48,2.92,8.32,8.32,0,0,1-.48-2.92A8.55,8.55,0,0,1,422.93,403.88Z" style="fill:#263238"></path></g><g id="freepik--speech-bubbles--inject-119"><path d="M389.93,134.84a30.51,30.51,0,0,1-48.7,24.5l-15,3.82,6.22-13.92a30.52,30.52,0,1,1,57.43-14.4Z" style="fill:#37474F"></path><path d="M389.93,134.84a30.7,30.7,0,0,1-4.53,16,32.88,32.88,0,0,1-2.42,3.45,33.57,33.57,0,0,1-2.92,3,19.06,19.06,0,0,1-1.59,1.39L376.79,160c-.56.42-1.19.75-1.78,1.13l-.9.56c-.31.17-.63.31-.94.47a30.32,30.32,0,0,1-8,2.79,31.09,31.09,0,0,1-4.2.52,27.28,27.28,0,0,1-4.24,0A30.72,30.72,0,0,1,341,159.63l.3.06-14.93,3.89-.88.23.37-.83L332.06,149l0,.42a30.78,30.78,0,0,1-1-27.15,31.26,31.26,0,0,1,8.4-11.09,30.77,30.77,0,0,1,50.41,23.62Zm0,0a30.26,30.26,0,0,0-37.87-29.31A30.3,30.3,0,0,0,340,111.79a31.6,31.6,0,0,0-8.08,10.88,30.2,30.2,0,0,0,1,26.34l.11.21-.1.21-6.26,13.91-.51-.61,15-3.73.17-.05.13.1a30.12,30.12,0,0,0,15.36,6,26.52,26.52,0,0,0,4.18.06,29.07,29.07,0,0,0,4.16-.45,29.67,29.67,0,0,0,7.92-2.65c.31-.15.64-.28.94-.45l.91-.54c.59-.37,1.21-.69,1.78-1.11a29.42,29.42,0,0,0,3.28-2.62,33.22,33.22,0,0,0,2.92-3,33.8,33.8,0,0,0,2.43-3.43A30.61,30.61,0,0,0,389.93,134.84Z" style="fill:#263238"></path><path d="M371.3,136.11a2.68,2.68,0,1,0,2.68-2.68A2.68,2.68,0,0,0,371.3,136.11Z" style="fill:#263238"></path><path d="M357.2,136.11a2.69,2.69,0,1,0,2.69-2.68A2.68,2.68,0,0,0,357.2,136.11Z" style="fill:#263238"></path><path d="M343.11,136.11a2.68,2.68,0,1,0,2.68-2.68A2.68,2.68,0,0,0,343.11,136.11Z" style="fill:#263238"></path><path d="M147,110.61a30.51,30.51,0,0,0,48.7,24.5l15,3.82L204.46,125A30.52,30.52,0,1,0,147,110.61Z" style="fill:#37474F"></path><path d="M147,110.61a30.71,30.71,0,0,0,4.61,16,34.27,34.27,0,0,0,2.43,3.43,32,32,0,0,0,2.93,3,28.43,28.43,0,0,0,3.27,2.62c.57.42,1.2.74,1.79,1.11l.9.54c.3.17.63.3.94.46A29,29,0,0,0,176,140.84a25.36,25.36,0,0,0,4.18-.06,30.16,30.16,0,0,0,15.36-5.95l.13-.11.17.05,15,3.73-.51.61L204,125.2l-.1-.21.12-.21a30.16,30.16,0,0,0,1-26.34A31.48,31.48,0,0,0,197,87.56a30.48,30.48,0,0,0-25.69-6.63A30.38,30.38,0,0,0,147,110.61Zm0,0a30.69,30.69,0,0,1,11.72-24.1A30.5,30.5,0,0,1,185,80.77,30.85,30.85,0,0,1,197.44,87a31.23,31.23,0,0,1,8.41,11.1,30.78,30.78,0,0,1-1,27.15l0-.43,6.18,13.94.37.83-.88-.23-14.92-3.89.3-.06a30.7,30.7,0,0,1-15.75,5.85,27.28,27.28,0,0,1-4.24,0,29.57,29.57,0,0,1-4.2-.52,30.6,30.6,0,0,1-8-2.78c-.32-.16-.64-.3-1-.48l-.9-.55c-.59-.39-1.21-.72-1.78-1.14l-1.68-1.28a18.94,18.94,0,0,1-1.59-1.38,35.06,35.06,0,0,1-2.92-3,34.44,34.44,0,0,1-2.42-3.45A30.7,30.7,0,0,1,147,110.61Z" style="fill:#263238"></path><path d="M165.67,111.88A2.69,2.69,0,1,1,163,109.2,2.69,2.69,0,0,1,165.67,111.88Z" style="fill:#263238"></path><path d="M179.76,111.88a2.68,2.68,0,1,1-2.68-2.68A2.69,2.69,0,0,1,179.76,111.88Z" style="fill:#263238"></path><path d="M193.85,111.88a2.68,2.68,0,1,1-2.68-2.68A2.69,2.69,0,0,1,193.85,111.88Z" style="fill:#263238"></path><path d="M258,70.73a13.58,13.58,0,0,0,2.32-7.48c0-9.49-10.42-17.18-23.26-17.18s-23.25,7.69-23.25,17.18S224.19,80.42,237,80.42a27.9,27.9,0,0,0,16-4.75l8,2Z" style="fill:#fffefd"></path><path d="M258,70.73a13.71,13.71,0,0,0,2.19-7.08,13.3,13.3,0,0,0-2-7.09,21,21,0,0,0-11.74-8.63,31,31,0,0,0-14.72-1,26,26,0,0,0-7.05,2.23,21.65,21.65,0,0,0-6,4.2,15,15,0,0,0-3.81,6.15,12.35,12.35,0,0,0-.1,7.15,15.17,15.17,0,0,0,3.72,6.21,21.73,21.73,0,0,0,6,4.28,27.19,27.19,0,0,0,7.05,2.29,31.14,31.14,0,0,0,7.41.51,27.23,27.23,0,0,0,14-4.52l.09-.06.1,0,8,2.14-.14.17Zm0,0,3.22,6.93.11.22-.25-.06-8-1.93.19,0A27.64,27.64,0,0,1,239,80.72,29.86,29.86,0,0,1,224.07,78a22.28,22.28,0,0,1-6.25-4.43,15.85,15.85,0,0,1-4-6.58,13.19,13.19,0,0,1,.07-7.72A16.21,16.21,0,0,1,218,52.73a22.79,22.79,0,0,1,6.31-4.35,27.55,27.55,0,0,1,7.29-2.27,31.91,31.91,0,0,1,7.62-.37,31.18,31.18,0,0,1,7.47,1.52,24.66,24.66,0,0,1,6.77,3.47,18.3,18.3,0,0,1,5.12,5.61,13.22,13.22,0,0,1-.6,14.39Z" style="fill:#263238"></path><path d="M228.67,63.25a2.42,2.42,0,1,1-2.42-2.42A2.41,2.41,0,0,1,228.67,63.25Z" style="fill:#263238"></path><path d="M239.44,63.25A2.41,2.41,0,1,1,237,60.83,2.41,2.41,0,0,1,239.44,63.25Z" style="fill:#263238"></path><path d="M250.22,63.25a2.41,2.41,0,1,1-2.41-2.42A2.41,2.41,0,0,1,250.22,63.25Z" style="fill:#263238"></path><path d="M324.92,196.6a13.58,13.58,0,0,0-2.31,7.49c0,9.48,10.41,17.17,23.25,17.17s23.25-7.69,23.25-17.17-10.4-17.18-23.25-17.18a27.92,27.92,0,0,0-16,4.75l-8-2Z" style="fill:#fffefd"></path><path d="M324.92,196.6a13.8,13.8,0,0,0-2.19,7.08,13.39,13.39,0,0,0,2,7.09,21.13,21.13,0,0,0,11.75,8.64,31.07,31.07,0,0,0,14.71.94,26,26,0,0,0,7.05-2.23,21.7,21.7,0,0,0,6-4.2,15.15,15.15,0,0,0,3.8-6.14,12.3,12.3,0,0,0,.1-7.16,15,15,0,0,0-3.72-6.21,21.73,21.73,0,0,0-6-4.28,26.73,26.73,0,0,0-7-2.28,30.75,30.75,0,0,0-7.42-.52,27.23,27.23,0,0,0-14,4.52l-.09.06-.09,0-8-2.14.14-.17Zm0,0-3.22-6.93-.1-.22.24.06,8,1.93-.19,0a27.64,27.64,0,0,1,14.25-4.86,29.93,29.93,0,0,1,14.88,2.73,22.47,22.47,0,0,1,6.26,4.43,16,16,0,0,1,4,6.58,13.36,13.36,0,0,1-.07,7.72,16.23,16.23,0,0,1-4.09,6.53,22.39,22.39,0,0,1-6.3,4.35,27.51,27.51,0,0,1-7.3,2.27,31.91,31.91,0,0,1-7.62.37,31.27,31.27,0,0,1-7.47-1.52,24.66,24.66,0,0,1-6.77-3.47,18.43,18.43,0,0,1-5.12-5.61,13.22,13.22,0,0,1,.6-14.39Z" style="fill:#263238"></path><path d="M354.23,204.09a2.41,2.41,0,1,1,2.41,2.41A2.41,2.41,0,0,1,354.23,204.09Z" style="fill:#263238"></path><path d="M343.45,204.09a2.41,2.41,0,1,1,2.41,2.41A2.41,2.41,0,0,1,343.45,204.09Z" style="fill:#263238"></path><path d="M332.67,204.09a2.42,2.42,0,1,1,2.41,2.41A2.41,2.41,0,0,1,332.67,204.09Z" style="fill:#263238"></path></g><g id="freepik--Dove--inject-119"><path d="M415.63,90.4l-5.16,8.79s-15.38,2-17.11.88a6,6,0,0,1-1-.94A63.7,63.7,0,0,0,402.6,95a37,37,0,0,1-11.31,2.73,30.24,30.24,0,0,1-2.42-4,27.13,27.13,0,0,0,14.06-4,28.72,28.72,0,0,1-15.28,1.34,34.86,34.86,0,0,1-1.91-6.09,26.07,26.07,0,0,0,10.94,1.7,24.43,24.43,0,0,1-11.51-5.38A32.13,32.13,0,0,1,385.3,74a33.13,33.13,0,0,1,.79-4c3.93,5.64,7.78,6.9,7.92,7-3.64-2.89-5.85-7.32-6.95-10.07a38.63,38.63,0,0,1,3.63-7.4A44.75,44.75,0,0,0,399,76.77a45.15,45.15,0,0,1-6.37-20c2.82-3.73,5.34-5.64,5.35-5.1C398.12,67.88,412.33,87.87,415.63,90.4Z" style="fill:#dbdbdb"></path><path d="M419.52,95.11c0,.07,0,.13,0,.19s0,.33,0,.48a2.28,2.28,0,0,0,0,.27v0h0c-.2,3.6-.2,11.41-6.79,15.24-.62.35-1.28.69-2,1h0l-.29.13h0a78.76,78.76,0,0,1-14,4.54l-.11,0h0l-.22.05-.12,0c-1.5.35-2.45.54-2.45.54s-1.64,3.41-3.23,6.31h0c-.18.21-.14.22-.11.24-.21.38-.42.74-.62,1.09h0l-.09.16-.31.51h0l-.07.11c-.67,1.1-1.24,1.85-1.52,1.86s-1.23,0-2.59,0l.24-.51.07-.15h0l.25-.52.16-.35.4-.84h0l.85-1.79h0l0-.1.1-.2.2-.42.11-.23-.48.71-.58.87-.07.11-.91,1.36-.06.1-.38.56-.22.33h0l-.7,1v0h-.19l-2.06,0h-.3l-.37,0h-.12l-.8,0,.4-.58,0-.05h0l0,0,.06-.08.14-.21h0l0-.06.41-.6.81-1.18h0l.05-.08.21-.31.52-.75v0h0l.32-.46,0,0,.53-.77h0l.06-.09.07-.09.09-.14h0l.33-.48,0,0,2.28-3.31-.72.78h0l-.17.18-2.29,2.5,0,0-2.16,2.37-.17.17-.13.15-.66.72-.06.07-.22.24-.15.17-.28.3-.52.57,0,0h0l-.9,1H378l-1.71-.1h-.15c-.63,0-1.22-.09-1.73-.14h0c-1.31-.14-2.16-.31-2.16-.52s0-.43.06-.89a.62.62,0,0,1,0-.13c0-.45.06-1,.11-1.67l.17-.1,0,0,.54-.35h0l.15-.1,0,0,.33-.22h0l.07,0,.05,0,.06,0,.3-.19.24-.16h0l.3-.19.24-.16h0l.44-.28,0,0,.05,0h0l.1-.07L376,122h0l.24-.16h0l0,0h0l7.51-4.77-8.52,4.18-.07,0-.21.1-.07,0-.09,0h0s0,0,0,0h0l-.2.09h0l-.54.27-.4.2h0l-.09,0-.26.13h0l-.05,0h0l0,0-.5.24-.23.12,0-.4.06-.77v0h0a.13.13,0,0,1,0-.06h0c0-.2,0-.41,0-.61h0c0-.07,0-.14,0-.21l0-.34h0a.62.62,0,0,1,0-.13h0c0-.06,0-.13,0-.19s0,0,0,0h0c0-.18,0-.37,0-.55s0-.11,0-.17v0s0,0,0-.07v0c0-.06,0-.11,0-.17h.06l.06,0,8.25-2.84L373,117.31c0-.53.1-1,.14-1.49l4.6-.67-4.52-.05a10,10,0,0,1,.26-1.77c.3-.6,12.78-2.42,12.78-2.42a119.84,119.84,0,0,1,18.93-21.45c1.51-1.3,2.13-7.54,4.49-11s10.07-3.23,10.77.41C421.07,82.24,419.85,91.21,419.52,95.11Z" style="fill:#ebebeb"></path><path d="M415.79,83.18c-1.36-.06-1.36,2.36-.1,2.42S416.94,83.23,415.79,83.18Z" style="fill:#263238"></path><path d="M418.45,84a2.68,2.68,0,0,1,2.12-.88c1.12.2,1.32,1.91,1.32,1.91a10,10,0,0,0-2.66.11C418.21,85.43,418.45,84,418.45,84Z" style="fill:#dbdbdb"></path><path d="M418.91,86.22a3,3,0,0,0,1.66.73,5.45,5.45,0,0,0,2-.52Z" style="fill:#37474F"></path><path d="M435.6,82.17a32,32,0,0,1-6.37,1,.12.12,0,1,1,0-.23l.57-.08c1.69-.73,3.07-1.89,4.67-2.77.89-.49,2.72-1.22,3.15.24C437.92,81.48,436.39,81.94,435.6,82.17Z" style="fill:#455a64"></path><path d="M435.28,85.23c-.35,1.06-2.52.85-3.33.74-2.07-.28-3.71-1.71-5.84-1.75-.13,0-.13-.22,0-.24l.36,0a.1.1,0,0,1,0,0C427.49,83.75,436.13,82.67,435.28,85.23Z" style="fill:#455a64"></path><path d="M430.58,82.14c-1.46.67-3,1-4.42,1.81l-.09.09a.08.08,0,0,1-.08,0l-.42.28a.14.14,0,0,1-.17-.22,6.84,6.84,0,0,1,.92-.59c1.41-1.57,5.88-6.18,6.68-4C433.43,80.77,431.41,81.77,430.58,82.14Z" style="fill:#455a64"></path><path d="M429.54,88.05c-2.27-.5-3.66-2.91-6.1-2.76-.15,0-.19-.22,0-.23s.21,0,.31,0a11.12,11.12,0,0,1,5.15.45c.88.24,2.58.82,2.68,2S430.13,88.18,429.54,88.05Z" style="fill:#455a64"></path><path d="M426.4,82.48c-1.63,1.22-3.46,2.07-4.82,3.64-.09.1-.26,0-.18-.13a.87.87,0,0,0,.09-.11.08.08,0,0,1,0-.12,28.82,28.82,0,0,1,3.19-4.55c.54-.55,2.29-2.32,3.2-1.46S427,82,426.4,82.48Z" style="fill:#455a64"></path><path d="M434,84.77a21.28,21.28,0,0,1-4-.66,16.1,16.1,0,0,0-2-.38l.21,0c1.83-.41,6-1.58,7.55-2.68a.09.09,0,0,0-.09-.15,48.56,48.56,0,0,1-8.29,2.49c1.5-1.34,3.39-2.18,4.74-3.67.05,0,0-.13-.08-.08-1.59,1.27-3.83,2.17-5.07,3.84l-.1,0a19.26,19.26,0,0,0-4.37,1.61c1.12-1.69,2.84-2.73,4.28-4.17,0-.05,0-.12-.06-.08a12.37,12.37,0,0,0-4.55,4.42c-.24.13-.47.26-.69.4a16.75,16.75,0,0,0-7.24,8.15c0,.06.07.11.1.06a19.6,19.6,0,0,1,8.25-8.2c.32-.17.65-.32,1-.47a9.28,9.28,0,0,1,3.69.82,8.68,8.68,0,0,0,3.24,1c.06,0,.11-.11,0-.13-1.5-.4-2.84-1-4.29-1.52a5.9,5.9,0,0,0-2-.43,23.26,23.26,0,0,1,2.82-.93,20.28,20.28,0,0,1,3.24.48,11,11,0,0,0,3.68.47C434.05,84.9,434.05,84.77,434,84.77Z" style="fill:#263238"></path><path d="M419.19,85.08a9,9,0,0,1,2.14-.09,3.64,3.64,0,0,1,2.58,1.65c-.08.09-5-.23-5-.23Z" style="fill:#37474F"></path><path d="M417.91,84.23a1.4,1.4,0,1,1-.52,1.67A1.42,1.42,0,0,1,417.91,84.23Z" style="fill:#dbdbdb"></path><path d="M419,95.85c-.25.46-.36,1.82-1.22,1.2a3.9,3.9,0,0,1-.89-1.25l0,0h0a0,0,0,0,0-.08,0,.13.13,0,0,0-.06,0c-.36.68-.73,2.15-1.74,1.91s-1.11-1.65-1.26-2.45v0c0-.08-.06-.2-.15-.13a5.79,5.79,0,0,1-1.49,1.11c-1.36.48-1.07-1-1-1.76,0-.11-.13-.15-.16,0-.25.74-.62,2,.48,2.24a2.46,2.46,0,0,0,2.14-1.11c0,1,.33,2.53,1.4,2.67s1.69-1.14,1.9-2.05c.19.62.58,1.37,1.24,1.41s1.11-1,1.08-1.66A.09.09,0,0,0,419,95.85Z" style="fill:#dbdbdb"></path><path d="M418.46,101.8c-.19.47-.26,1.32-.84,1.44s-.89-.57-1.14-1v-.11c0-.14-.22-.21-.27-.07-.28.68-.49,2.09-1.48,2.07s-1.12-1.88-1.19-2.55a.11.11,0,0,0-.05-.09.15.15,0,0,0-.22,0c-.6.51-2.44,2.64-3.1,1.13-.38-.86.33-2.08.52-2.92h0c.07-.09,0-.23-.12-.19a5.62,5.62,0,0,1-2,.71c-1.37,0-.69-1.62-.37-2.31a.08.08,0,0,0-.14-.08c-.44.7-1.21,2-.24,2.63a2.28,2.28,0,0,0,2.28-.29c-.46,1-.79,2.54.07,3.17s2.41-.52,3.08-1.41c0,1,.25,2.48,1.28,2.65s1.68-.93,1.87-1.85c.24.53.66,1,1.23,1s1.06-1.16,1-1.75C418.67,101.75,418.51,101.69,418.46,101.8Z" style="fill:#dbdbdb"></path><path d="M403.85,91.21l-2.36,10.11s-14.35,6.63-16.38,6a10.1,10.1,0,0,1-2.3-1.32c3.47-2.19,6.59-4.58,6.59-4.58a29,29,0,0,1-8.59,3,35.59,35.59,0,0,1-3.48-3.48c4.48-.75,9.19-2.1,9.19-2.1a28.58,28.58,0,0,1-11.58-1,34.47,34.47,0,0,1-3.52-6.41,42.33,42.33,0,0,0,11.06,2.13,26.62,26.62,0,0,1-12.18-5.25h0a31.18,31.18,0,0,1-.93-3.92,35.06,35.06,0,0,1-.47-5.12c6.29,6.55,15.66,8.74,15.66,8.74A49,49,0,0,1,369,76.21a38.83,38.83,0,0,1,1.24-7.46A28.25,28.25,0,0,0,381.4,78.89c-6.34-6.89-9.14-11.44-10-13.93,1.57-4.17,3.32-6.58,3.48-6.08C380,74.6,399.87,89.74,403.85,91.21Z" style="fill:#ebebeb"></path><path d="M406.16,94.7c-4.57-1-18.43-9.27-23.47-14.89a.14.14,0,0,0-.21.19c8.33,9.5,21.25,14.83,23.6,15.09C406.3,95.12,406.38,94.75,406.16,94.7Z" style="fill:#dbdbdb"></path><path d="M405.6,90.83a2.44,2.44,0,0,0-1.42.37l0,0a7.47,7.47,0,0,1-1.23-.55c-.06,0-.12,0-.06.09a5.93,5.93,0,0,0,2.59,1.11c.13,0,.17-.19,0-.23l-1-.32a7.42,7.42,0,0,1,1.15-.28A.11.11,0,0,0,405.6,90.83Z" style="fill:#dbdbdb"></path><path d="M401.75,102.1c-.3,0-.6,0-.91,0,.24-.13.48-.28.71-.43a.1.1,0,0,0-.09-.18c-1.36.57-2.67,1.27-4,1.83s-2.8,1-4.15,1.55c-.08,0,0,.16.06.15a20.15,20.15,0,0,0,4.05-1.31c1-.39,1.93-.8,2.87-1.28a4.75,4.75,0,0,0,1.51-.11A.13.13,0,0,0,401.75,102.1Z" style="fill:#dbdbdb"></path><path d="M406.91,110.94a2,2,0,0,0-1.42-1,2.72,2.72,0,0,0-1.76.55.22.22,0,0,0-.09.25.15.15,0,0,0,.14.17,1,1,0,0,1,1,1.06c0,.53-.42.89-.67,1.33a.14.14,0,0,0,.17.2,2,2,0,0,0,1.34-2.11l0-.07a1,1,0,0,1,.19.17c.54.65.11,1.55-.2,2.19-.05.12.06.29.2.23A2.49,2.49,0,0,0,406.91,110.94Z" style="fill:#37474F"></path><path d="M411.86,111.63a2,2,0,0,0-1.43-.95,2.69,2.69,0,0,0-1.75.55.2.2,0,0,0-.09.25.14.14,0,0,0,.14.17,1,1,0,0,1,1,1.06c0,.53-.42.89-.67,1.33a.14.14,0,0,0,.17.2,2,2,0,0,0,1.33-2.11.24.24,0,0,0,0-.08l.19.18c.54.65.1,1.55-.2,2.19-.06.12.05.29.19.23A2.49,2.49,0,0,0,411.86,111.63Z" style="fill:#37474F"></path></g><g id="freepik--Character--inject-119"><path d="M242.32,396.21s-3.07,42.56-3.07,42.59c0,8.33.07,15.64.48,19.42a.13.13,0,0,0,0,.06,5.78,5.78,0,0,0,.6,2.57s0,0,0,.06c2.47,1.69,69.06,4,71.41,3.27s.53-7.46-2-9.61-27.63-14.42-27.63-14.42l2.66-42.54Z" style="fill:#f7a9a0"></path><path d="M239.25,429.85v8.95c0,8.33.07,15.64.48,19.42a.13.13,0,0,0,0,.06,11.21,11.21,0,0,0,.6,2.57s0,0,0,.06c2.47,1.69,69.06,4,71.41,3.27s.53-7.46-2-9.61-27.63-14.42-27.63-14.42l.12-9.08Z" style="fill:#fff"></path><path d="M311.8,464.18c-2.35.7-68.94-1.58-71.42-3.27-.95-.63-1.18-10.36-1.13-22.11,0-.12,0-.25,0-.37l43,1,0,.73s25.1,12.27,27.63,14.43S314.16,463.48,311.8,464.18Z" style="fill:#37474F"></path><path d="M311.14,461.57c-11.22-.66-56.51-2.26-67.65-2.06-.09,0-.09.06,0,.07,11.1.9,56.41,2.13,67.64,2.17C311.37,461.76,311.38,461.58,311.14,461.57Z" style="fill:#263238"></path><path d="M285.8,440.4c-4.39-1-9.82-.48-13.3,2.55-.13.12,0,.31.18.27A62.19,62.19,0,0,1,285.76,441,.28.28,0,0,0,285.8,440.4Z" style="fill:#263238"></path><path d="M288.92,442.43c-4.39-1-9.81-.48-13.3,2.55-.13.12,0,.31.18.27A62.41,62.41,0,0,1,288.88,443,.28.28,0,0,0,288.92,442.43Z" style="fill:#263238"></path><path d="M292,444.46c-4.39-1-9.81-.48-13.29,2.55-.14.12,0,.31.17.27A62.4,62.4,0,0,1,292,445,.28.28,0,0,0,292,444.46Z" style="fill:#263238"></path><path d="M236.69,440.64l46.61-.94s5.68-83.88,4.63-111.84c-1.16-30.38-14.2-120.76-14.2-120.76H234.36s10.06,90.74,10.28,121.13C244.83,356.4,236.69,440.64,236.69,440.64Z" style="fill:#37474f"></path><path d="M266,207.1l-23.65,81.82c-2.8-38.72-8-81.82-8-81.82Z" style="fill:#263238"></path><path d="M241.83,211.56l2.5,27,2.32,27c1.48,18,2.89,36,4,54.05.26,4.51.42,9,.36,13.58s-.28,9-.51,13.55q-.71,13.55-1.74,27.05t-2.19,27l-2.51,27,2-27q1-13.51,1.9-27c.57-9,1.18-18,1.6-27q.32-6.76.46-13.53c0-4.5-.13-9-.4-13.5-1-18-2.41-36-3.73-54.05Z" style="fill:#263238"></path><path d="M281.35,431.93c-7.28-.06-5.19-.15-12.46-.13-3.57,0-27,.09-30.29.68-.07,0-.07.14,0,.15,3.34.51,26.73,0,30.29-.06,7.28-.16,5.19-.19,12.46-.43A.11.11,0,0,0,281.35,431.93Z" style="fill:#263238"></path><path d="M166.55,373.39s-22.49,36.54-22.5,36.57c-3.66,7.49-6.72,14.12-8,17.7a.14.14,0,0,0,0,.06,5.9,5.9,0,0,0-.58,2.59s0,.05,0,.06C137,433,196,463.9,198.42,464.29s3.71-6.49,2.38-9.51-18.65-25-18.65-25l22.11-36.71Z" style="fill:#f7a9a0"></path><path d="M135.47,430.31a.2.2,0,0,0,0,.07C137,433,196,463.9,198.42,464.29s3.71-6.49,2.38-9.51-18.64-25-18.64-25l3.94-6.55c-9.65-5.14-27.18-14.17-38.07-19.76-2.37,3.84-4,6.47-4,6.48-3.66,7.49-6.73,14.12-8,17.7a.14.14,0,0,0,0,.06A5.54,5.54,0,0,0,135.47,430.31Z" style="fill:#fff"></path><path d="M198.42,464.29C196,463.91,137,433,135.48,430.37c-.58-1,3.42-9.84,8.57-20.41l.16-.33,38.3,19.53-.35.64s17.29,21.94,18.63,25S200.84,464.69,198.42,464.29Z" style="fill:#37474F"></path><path d="M199,461.65c-9.82-5.45-49.94-26.54-60.06-31.19-.09,0-.12,0,0,.06,9.62,5.62,49.91,26.39,60,31.3C199.08,461.92,199.16,461.77,199,461.65Z" style="fill:#263238"></path><path d="M185.29,431.59c-3.53-2.78-8.63-4.69-13.08-3.47-.18.05-.11.29,0,.32A62.46,62.46,0,0,1,185,432.08.28.28,0,0,0,185.29,431.59Z" style="fill:#263238"></path><path d="M187.23,434.77c-3.53-2.78-8.64-4.69-13.09-3.46-.17,0-.1.29.05.31A62.37,62.37,0,0,1,187,435.26.29.29,0,0,0,187.23,434.77Z" style="fill:#263238"></path><path d="M189.16,438c-3.53-2.78-8.63-4.69-13.09-3.47-.17.05-.1.29.05.32a62,62,0,0,1,12.77,3.63A.28.28,0,0,0,189.16,438Z" style="fill:#263238"></path><path d="M269.7,207.06v0c-.17.81-2.93,13.59-5.78,24.56-2.07,8-4.21,15.05-5.43,15.78-1.39.82-8.15,3.82-10.42,4.76,0,0-15.2,75.9-23.23,99.43-7.4,21.72-38.05,79.77-38.05,79.77l-44.47-22.47S177,350,180.69,339.45c5.66-16.39,26.86-96.4,26.86-96.4s-.16-25.05,8.28-36Z" style="fill:#37474f"></path><path d="M186.12,422.73c-6.35-3.55-4.48-2.62-10.87-6.1-3.13-1.7-23.7-12.87-26.89-13.95a.08.08,0,0,0-.07.14c2.68,2,23.43,12.85,26.6,14.49,6.45,3.36,4.64,2.32,11.13,5.61C186.14,423,186.24,422.79,186.12,422.73Z" style="fill:#263238"></path><path d="M219,236.08c1.22-.31,2.52-.41,3.77-.61,1-.16,2-.33,3-.55A13.09,13.09,0,0,0,231,232.7c1.72-1.34,2.6-3.38,3.43-5.33.49-1.16,1-2.31,1.52-3.46.25-.56.5-1.11.76-1.66a19.28,19.28,0,0,0,.94-2c0-.09.19,0,.15,0a11.88,11.88,0,0,0-.42,1.44c-.17.56-.33,1.12-.5,1.68-.31,1-.61,2-.94,3a23.88,23.88,0,0,1-2.12,5.24c-1.84,2.92-5.12,4.1-8.4,4.51-.94.12-1.89.19-2.84.24a20.39,20.39,0,0,1-3.58,0A.17.17,0,0,1,219,236.08Z" style="fill:#263238"></path><path d="M262.07,245.65a88.57,88.57,0,0,0-13.93,6.49.16.16,0,0,0,.13.29c4.69-2,9.48-4,14.06-6.22A.31.31,0,0,0,262.07,245.65Z" style="fill:#263238"></path><path d="M263.49,213.5c0-.17-.3-.2-.3,0a155.88,155.88,0,0,1-.79,15.69c-.22,2.42-2.16,15.78-6.35,14.81-.71-.17-1.06-.86-1.17-1.92a16.37,16.37,0,0,1,.55-4.09c.47-2.8.84-5.61,1.08-8.43a76.64,76.64,0,0,0-.17-15.81.14.14,0,0,0-.27,0,143.6,143.6,0,0,1-1.28,21.83c-.52,3.47-2.27,8.7,1.36,9.24s6.1-8.22,6.55-10.62A79.57,79.57,0,0,0,263.49,213.5Z" style="fill:#263238"></path><path d="M256.16,244.33a22.06,22.06,0,0,0-1,2.77,6.34,6.34,0,0,0-.39,2.27.16.16,0,0,0,.29.07,8.34,8.34,0,0,0,1-2.22c.32-.86.65-1.71,1-2.57A.47.47,0,0,0,256.16,244.33Z" style="fill:#263238"></path><path d="M154.31,401.55c6.33-11.91,12.86-23.72,19.41-35.51,3.23-5.82,6.59-11.57,9.68-17.46a105.67,105.67,0,0,0,7-18.2q5.88-19.1,11.13-38.37t9.86-38.7c.77-3.24,1.62-6.48,2.24-9.75a30.12,30.12,0,0,0,0-10,32.21,32.21,0,0,1-.08-9.3,62.83,62.83,0,0,1,2.18-9.08c.49-1.56,1-3.12,1.56-4.67a.14.14,0,0,1,.27.09c-1.92,6.27-3.88,12.61-3.46,19.26.19,3.19,1,6.33,1,9.54a45.17,45.17,0,0,1-1.61,9.43q-4.53,19.54-9.74,38.93t-11,38.59c-1.89,6.23-3.65,12.55-6.33,18.49s-6.08,11.58-9.27,17.27c-6.61,11.75-13.27,23.47-20.08,35.1q-1.29,2.2-2.6,4.41C154.4,401.74,154.26,401.65,154.31,401.55Z" style="fill:#263238"></path><path d="M249.9,149c10.92,23.37,28.72,51.79,38.42,52.31,1.68.08,8.45-.71,11.21-7,4.67-10.62,9.1-31.82,9.75-41.91.29-4.47-29.76-9.06-30.68-4.36-1.3,6.59-2,13.67-2.71,13.59-1.18-.14-6.13-7.56-17.74-19.89C243.72,126.38,245.83,140.28,249.9,149Z" style="fill:#f7a9a0"></path><path d="M313.68,140.32c-.78,6.29-7.41,18.54-10.14,20.87S279.61,153,278.9,149.34s3.54-24.6,8.17-29.12S314.48,133.8,313.68,140.32Z" style="fill:#f7a9a0"></path><path d="M279,145.64a52.68,52.68,0,0,0-6-14.06c-3.37-5.09-9-12.27-6.29-14.19,5.48-3.93,19.41,14,19.41,14s4.87,8.89-.21,13.27A6.7,6.7,0,0,1,279,145.64Z" style="fill:#f7a9a0"></path><polygon points="292.17 141.28 299.46 137.95 289.83 116.85 280.61 121.06 292.17 141.28" style="fill:#37474F"></polygon><polygon points="280.61 121.05 285.02 128.77 292.17 141.28 299.46 137.96 289.83 116.85 280.61 121.05" style="fill:#37474F"></polygon><polygon points="280.61 121.05 285.02 128.77 293.5 124.9 289.83 116.85 280.61 121.05" style="opacity:0.1"></polygon><rect x="278.61" y="112.8" width="12.61" height="9.58" transform="translate(592.94 106.31) rotate(155.48)" style="fill:#37474F"></rect><polygon points="268.06 116.17 277.38 112.99 270.94 98.88 262.43 103.84 268.06 116.17" style="fill:#37474F"></polygon><polygon points="274.25 94 283.75 114.82 299.52 109.78 340.13 106.71 317.33 56.72 288.39 85.38 274.25 94" style="fill:#37474F"></polygon><path d="M321.47,85c6.33,13.88,15.07,23.47,19.53,21.44s2.95-14.93-3.38-28.8-15.08-23.48-19.54-21.44S315.14,71.16,321.47,85Z" style="fill:#37474F"></path><ellipse cx="329.76" cy="80.73" rx="7.27" ry="24.51" transform="translate(-3.76 144.15) rotate(-24.52)" style="opacity:0.2"></ellipse><path d="M324.23,83.25c.75,1.64,1.53,3.22,2.34,4.71a5.48,5.48,0,0,0,6.36-7.59L331.85,78a5.48,5.48,0,0,0-9.87-.2C322.63,79.58,323.39,81.41,324.23,83.25Z" style="fill:#37474F"></path><polygon points="276.21 119.65 294.23 113.51 281.79 86.23 265.33 95.81 276.21 119.65" style="fill:#37474F"></polygon><polygon points="276.21 119.65 294.23 113.51 281.79 86.23 265.33 95.81 276.21 119.65" style="opacity:0.2"></polygon><path d="M316.55,61.21a17.29,17.29,0,0,0-.38,6.17,39.82,39.82,0,0,0,1.08,6.12c.23,1,.56,2,.84,3s.66,2,1,2.93.73,1.94,1.14,2.89.81,1.91,1.24,2.85A68,68,0,0,0,327.61,96a35.61,35.61,0,0,0,4,4.74,14.85,14.85,0,0,0,5.13,3.42,15.31,15.31,0,0,1-4.93-3.63,34.24,34.24,0,0,1-3.84-4.8,70.7,70.7,0,0,1-6-10.78,73.15,73.15,0,0,1-4.34-11.53,38.61,38.61,0,0,1-1.23-6A17.83,17.83,0,0,1,316.55,61.21Z" style="opacity:0.2"></path><path d="M334.48,51.71c-.86,1.15-1.67,2.33-2.47,3.51s-1.56,2.4-2.32,3.61-1.49,2.43-2.2,3.68l-1.05,1.87c-.33.63-.68,1.25-1,1.9.44-.57.85-1.16,1.27-1.74l1.21-1.77c.8-1.18,1.56-2.39,2.32-3.6s1.49-2.44,2.19-3.68S333.84,53,334.48,51.71Z" style="fill:#263238"></path><path d="M337.25,94.19c1.62,0,3.23-.06,4.84-.14s3.22-.2,4.82-.32,3.21-.28,4.81-.47l2.41-.29c.79-.12,1.59-.22,2.39-.36-.81,0-1.61,0-2.42,0l-2.42.11c-1.61.07-3.21.2-4.82.32s-3.21.28-4.81.47S338.85,93.93,337.25,94.19Z" style="fill:#263238"></path><path d="M364.58,81.31c-2.34.41-4.66.9-7,1.39s-4.62,1-6.93,1.55-4.61,1.1-6.9,1.7l-3.44.91c-1.14.32-2.28.62-3.42,1,1.17-.2,2.33-.44,3.49-.66l3.48-.72c2.32-.49,4.63-1,6.94-1.56s4.6-1.1,6.9-1.7S362.3,82,364.58,81.31Z" style="fill:#263238"></path><path d="M347.41,48.85c-1.64,1.77-3.22,3.58-4.79,5.4s-3.11,3.66-4.65,5.5-3.05,3.72-4.53,5.6l-2.23,2.84c-.72,1-1.46,1.9-2.17,2.88.82-.88,1.61-1.79,2.42-2.68l2.36-2.72c1.58-1.81,3.11-3.66,4.65-5.5s3-3.72,4.53-5.61S346,50.79,347.41,48.85Z" style="fill:#263238"></path><path d="M333.7,79.22c2.57-1.06,5.11-2.18,7.64-3.31s5-2.31,7.57-3.46,5-2.38,7.5-3.6L360.14,67c1.23-.64,2.47-1.25,3.7-1.91-1.29.52-2.56,1.08-3.84,1.62l-3.8,1.69c-2.54,1.13-5.05,2.31-7.57,3.46s-5,2.38-7.5,3.6S336.15,77.92,333.7,79.22Z" style="fill:#263238"></path><path d="M281.34,128.6c1.37,3.06,4.2-.31,4.2-.31s-2.9,5.84-.26,8.45,5.82-1.68,6.06-2c-.15.31-2.68,5.74.24,8.1s5.6-2.33,5.76-2.64c0,.34-.64,4.81,2,6.09,4.51,2.21,6.34-9.19,9.73-11.43,0,0,4.45,5.31,4.62,5.44,0,0,2-10.8-1.32-15.21a3.52,3.52,0,0,0-4.24-1.17s1-3.41-1.22-5.34c-1.15-1-3.75,0-3.75,0a4.39,4.39,0,0,0-1.4-4.35c-1.67-1.27-4-.11-4-.11s-.56-3-2.69-3.71C290.74,108.89,278.41,122,281.34,128.6Z" style="fill:#f7a9a0"></path><path d="M297.33,114.25a.05.05,0,0,0-.06-.08,31.32,31.32,0,0,0-11.9,14.29c-.07.19.2.39.32.19A63.81,63.81,0,0,1,297.33,114.25Z" style="fill:#263238"></path><path d="M303.18,118.49c.05,0,0-.13-.09-.09a29.32,29.32,0,0,0-12,16.39c-.06.24.12.51.21.24C292.81,130.53,298.85,122.38,303.18,118.49Z" style="fill:#263238"></path><path d="M297.39,140.74c1.94-6.55,5.78-11.82,10.51-16.67.06-.06,0-.14-.1-.1-3,1.74-5.65,5.14-7.52,8a18,18,0,0,0-3.12,8.74C297.15,140.8,297.35,140.88,297.39,140.74Z" style="fill:#263238"></path><path d="M285.43,128.32c-.08.23.34.11.26.33-.33,1-1.84,6.92,0,8.06,1.5.91,3.76-.47,4.43-1.34l1.66-2.2-.8,2.64a11.17,11.17,0,0,0-.51,3.62,4,4,0,0,0,1.24,3,2.3,2.3,0,0,0,2.89.21,7,7,0,0,0,2.22-2.7l1.47-2.91-.44,3.22a10.61,10.61,0,0,0,0,2.7,4.35,4.35,0,0,0,.91,2.35,2.07,2.07,0,0,0,2.08.66,4.61,4.61,0,0,0,2-1.61,35.37,35.37,0,0,0,2.93-4.84c.46-.83.92-1.68,1.43-2.5a6.83,6.83,0,0,1,1.85-2.18,7.31,7.31,0,0,0-1.62,2.31c-.44.85-.83,1.72-1.22,2.59a31.42,31.42,0,0,1-2.74,5.1,5.37,5.37,0,0,1-2.34,2A2.94,2.94,0,0,1,298,146a5.36,5.36,0,0,1-1.21-2.88,11.66,11.66,0,0,1,0-3l1,.31a7.92,7.92,0,0,1-2.59,3.2,3.3,3.3,0,0,1-2.18.58,3.8,3.8,0,0,1-2-.9,5.12,5.12,0,0,1-1.58-3.87,12.34,12.34,0,0,1,.63-4l.86.44c-.88,1.08-3.24,2.9-5.74,1.78C282.15,135.77,284.86,129.44,285.43,128.32Z" style="fill:#263238"></path><path d="M285.54,128.29a6.7,6.7,0,0,1-1.78,1,1.59,1.59,0,0,1-1.57-.21,3.24,3.24,0,0,1-.83-1.61c-.16-.65-.29-1.35-.41-2.08a5.44,5.44,0,0,0-.31,2.2,3.15,3.15,0,0,0,.95,2.21,2.1,2.1,0,0,0,2.47.15A3.53,3.53,0,0,0,285.54,128.29Z" style="fill:#263238"></path><path d="M314.14,160.49l-35.62-13.6s-2.43,14.16-2.85,14.23-10.82-15.05-22-24.36-9.68,2.27-6.29,12c4.36,12.51,22.47,51.87,30.74,54.62s21-3,22.84-6.49C303.49,192.08,314.14,160.49,314.14,160.49Z" style="fill:#37474F"></path><path d="M288,194.33v-4.27h4.57V188H288v-4.2h4.57v-.57H282v.57h3.91V188H282v2.08h3.91v4.27H269.66c.12.2.25.39.38.57h31.79q.1-.27.24-.57Zm-24.9-11.12.31.57H306c.07-.19.14-.38.2-.57Zm41.16-11.13v-4.19h-.57v4.19h-4.6v-4.19H297v4.19H257.42c.09.19.18.39.28.58H310c.06-.19.13-.37.19-.56v0ZM275.77,161c0,.1-.07.16-.1.16s-.09-.05-.19-.16H254.74v.58h9v4.27h2.08v-4.27h4.48v4.27h-4.48v2.08h4.48v4.19h.58v-4.19h3.94v4.19h-3.94v.58h21.67v-.58H288v-4.19h4.57v4.19h.57v-4.19h14.95v-2.08h-3.83v-4.27h9.53c.08-.23.15-.42.2-.58Zm10.15.58v4.27H282v-4.27Zm-4.49,0v4.27h-4.52v-4.27Zm-10.54,4.27v-4.27h3.94v4.27Zm6,6.27v-4.19h4.52v4.19Zm9,0H282v-4.19h3.91Zm2.07-6.27v-4.27h4.57v4.27Zm5.14,0v-4.27H297v4.27Zm10.55,0h-4.6v-4.27h4.6Zm-51.14-4.27h.12V161h-.37C252.37,161.15,252.45,161.35,252.54,161.54Zm33.71-11.7H278c0,.18-.07.38-.1.58h9.87Zm-19.74,0H254.74v.58H267Zm-18.78,0,.21.58h4.72v-.58Zm8.16-11.12h-1.15v.57h1.77Zm-11,0c0,.19,0,.38,0,.57h7.68v-.57Zm58.75,17.78V161h-4.6V156.8H297v15.28h-4.44v4.81H288v-4.23h-2.07v10.55H288V179h4.57v4.24h.57V179H297v4.24h2.08V179h4.6V190.2a1.47,1.47,0,0,1,.06-.14c.16-.45.34-.91.51-1.39v-32Zm-10.55,20.39v-4.23H297v4.23Zm10.55,0h-4.6v-4.23h4.6Zm0-4.81h-4.6v-4.19h4.6Zm0-6.27h-4.6v-4.27h4.6Zm-11.12-13.56v24.64H288v-4.23h-2.07v10.55H288V179h4.57v23.25l.57-.21V152.47ZM282,176.89V148.22l-.58-.22v56l.58,0V179h3.91v-2.08Zm0,0v-4.23h-.58v4.23h-4.52v-4.23h-2.08v4.23h-3.94V155.17c-.11-.15-.23-.29-.35-.44l-.23-.29V161h-4.48V156.8h-2.08V161h-4v.58h4v4.27h2.08v-4.27h4.48v4.27h-4.48v2.08h4.48v27.42l.58.84v-6.09h3.94v4.27h2.08v-4.27h4.52v4.27H282V179h3.91v-2.08ZM270.89,179h3.94v4.24h-3.94Zm0,9v-4.2h3.94V188Zm10.54,0h-4.52v-4.2h4.52Zm0-4.77h-4.52V179h4.52Zm-21.67-17.4V142.44l-.57-.57v8h-4.45v.58h4.45v25.27l.57,1.14v-8.94h4v4.19h2.08v-6.27Zm-11.69-32.37v17.32l.57,1.48V133.6A5,5,0,0,0,248.07,133.44Zm45.06,65.62V194.9H297v-.57h-9v-4.27h4.57V188H288v-4.2h4.57v-.57H282v.57h3.91V188H282v2.08h3.91v4.27H282v.57h3.91v4.16H273.09c.6.74,1.18,1.4,1.74,2l.11.11h20.22c.66-.31,1.27-.63,1.84-.95s1.24-.76,1.76-1.13Zm-5.14,0V194.9h4.57v4.16ZM299.08,188v-4.2h4.6v-.57H282v.57h3.91V188H265.76a.83.83,0,0,0,.07.13q.57,1,1.14,1.95h36.77c.16-.45.34-.91.51-1.39l.26-.69ZM288,188v-4.2h4.57V188Zm5.14,0v-4.2H297V188Zm-33.34-11.09c.35.7.71,1.39,1.06,2.08h46.91c.1-.31.21-.61.32-.92l.41-1.16Zm-5.05-11.08v.6c.22.49.45,1,.69,1.48h14.88v4.19h.58v-4.19h3.94v4.19h-3.94v.58h21.67v-.58H288v-4.19h4.57v4.19h.57v-4.19h18.48c.26-.73.5-1.43.72-2.08Zm22.17,6.27v-4.19h4.52v4.19Zm9,0H282v-4.19h3.91Zm18.33-15.37-.57-.21-4.6-1.76h-22c-.07.36-.14.71-.2,1.06s-.13.68-.2,1h4.72V161h-4.52v.58h4.52v4.27h-4.52v2.08h4.52v4.19h-4.52v.58h15.65v-.58H288v-4.19h4.57v4.19h.57v-4.19H297v-2.08h-3.87v-4.27H297V161h-3.87V156.8h11.35ZM282,156.8h3.91V161H282Zm0,4.74h3.91v4.27H282Zm3.91,10.54H282v-4.19h3.91Zm6.64-6.27H288v-4.27h4.57Zm0-4.85H288V156.8h4.57Zm-21.67-5.79c-.11-.15-.23-.29-.35-.44h-15.8v2.07h17.44ZM250.5,156.8h2.16v-2.07h-3C249.91,155.4,250.2,156.09,250.5,156.8Zm10.42-13.16h-6.18v2.08h8.13C262.23,145,261.59,144.33,260.92,143.64Zm-15.12,0c.17.69.36,1.38.57,2.08h6.29v-2.08Zm2.84-10a5,5,0,0,0-.57-.16,2.15,2.15,0,0,0-2.75,1.2h5.42A10.65,10.65,0,0,0,248.64,133.6Zm59.44,24.58v14.48H310c.06-.19.13-.37.19-.56V159Zm0,18.71v1.16l.41-1.16Zm-9-22.16L297,154v18.13h-4.44v4.81H288v-4.23h-2.07v10.55H288V179h4.57v15.36h.57v-4.27H297v10.13c.65-.38,1.24-.76,1.76-1.13l.32-.24V154.73ZM297,188h-3.87v-4.2H297Zm0-4.77h-3.87V179H297Zm0-6.32h-3.87v-4.23H297Zm-9.23-26.47-1.52-.58-.33-.12v5H282v2.07h3.91V161H282v.58h3.91v4.27H282v2.08h3.91v4.19H282v.58h3.91v31.23c.69-.09,1.39-.21,2.07-.35v-53ZM282,176.89v-4.23h-.58v4.23h-4.52v-21.1c-.07.34-.13.68-.2,1a42.35,42.35,0,0,1-.94,4.16c0,.1-.07.16-.1.16s-.09-.05-.19-.16a9.62,9.62,0,0,1-.65-.78V201l.11.11a12.84,12.84,0,0,0,2,1.65V194.9h4.52v4.16H282V179h3.91v-2.08Zm-.58,17.44h-4.52v-4.27h4.52Zm0-6.35h-4.52v-4.2h4.52Zm0-4.77h-4.52V179h4.52Zm.58-6.32v-4.23h-.58v4.23h-4.52v-4.23h-2.08v4.23h-3.94v-4.81h-5.06v-23c-.67-.78-1.37-1.57-2.08-2.36v8h-4v-4.31h-.57v6.38h4.56V161h-4v.58h4v22.88c.67,1.22,1.34,2.41,2,3.56a.83.83,0,0,0,.07.13v-4.33h4.48V188h.58v-4.2h3.94V188h2.08v-4.2h4.52V188H282v-9h3.91v-2.08Zm-16.18-4.23h4.48v4.23h-4.48Zm0,10.55V179h4.48v4.24Zm5.06,0V179h3.94v4.24Zm10.54,0h-4.52V179h4.52ZM259.19,156.8V161h-4.45v.58h4.45v4.27h.57v-9Zm-4.45-2.07v2.07h4.45v-2.07Zm-6.1-9h4v-2.08h-4Z" style="opacity:0.1"></path><path d="M254.74,137.7v28.11h-.28c-.62-1.37-1.23-2.7-1.8-4V136l1,.78Z" style="opacity:0.1"></path><path d="M309.52,164.8c-1.18-.63-12.3-4.68-14.74-5.51l-7.31-2.48c-2.52-.84-5.05-1.83-7.63-2.48a.1.1,0,0,0-.06.18c2.41,1.11,5,1.92,7.49,2.84l7.39,2.71c2.46.89,13.55,4.66,14.82,4.91C309.59,165,309.6,164.84,309.52,164.8Z" style="fill:#263238"></path><path d="M293.28,202c-4.69,1.86-10.63,2.93-15.2,1.41-8.27-2.74-26.38-42.1-30.74-54.61-2.13-6.11-3.53-13-1.48-14.88Z" style="opacity:0.1"></path><path d="M275.68,161.3c-.24,1.92-.37,3.85-.47,5.78s-.13,3.87-.12,5.8.07,3.87.23,5.8a53,53,0,0,0,.73,5.76c0-1-.07-1.93-.07-2.89s0-1.93-.06-2.89l-.05-5.78-.06-5.79,0-2.89C275.73,163.23,275.73,162.27,275.68,161.3Z" style="fill:#263238"></path><path d="M207.33,228c.18.18,70.63-4.34,71.24-5.13.38-.51-18.46-76.48-24.89-85.82-3-4.29-14.13-5.26-18.76-.91C223.35,147,215.3,182.2,213.6,192.75,210.79,210.14,206.68,227.35,207.33,228Z" style="fill:#37474F"></path><path d="M210.41,210.36v17.5l-2.08.11v-7c.22-1.15.47-2.42.74-3.78,0-.19.07-.38.11-.58.27-1.37.56-2.82.86-4.35C210.16,211.61,210.28,211,210.41,210.36Zm9.12-42.47-.12.39v59l2.08-.13V161.73q-.69,2-1.32,4.08C220,166.5,219.74,167.2,219.53,167.89Zm13-29.17-.43.57c-.56.74-1.11,1.52-1.64,2.36v85l2.08-.13V138.72Zm9-5.29v92.45l2.08-.15V133.31A17.87,17.87,0,0,0,241.58,133.43Zm13,5.29a13.77,13.77,0,0,0-.95-1.68,5.27,5.27,0,0,0-1-1.1V225.1l2.08-.14v-86Zm11.13,33.94c-.05-.19-.11-.38-.16-.58l-1.19-4.19c-.21-.7-.41-1.39-.61-2.08a.84.84,0,0,0-.05-.17v58.65l2.08-.17V172.9C265.81,172.82,265.78,172.74,265.76,172.66Zm10.4,39.56c-.16-.66-.33-1.35-.5-2.07-.27-1.05-.54-2.16-.83-3.31v16.52l.54-.05,1.54-.17V215.3ZM248.64,134l-.57-.14a18.24,18.24,0,0,0-4.41-.51,17.87,17.87,0,0,0-2.08.12,14.34,14.34,0,0,0-4.06,1l-.36.16h13.38A14.12,14.12,0,0,0,248.64,134Zm8.07,9.68H229.29c-.39.67-.77,1.36-1.15,2.08h29.33C257.21,145,257,144.3,256.71,143.64Zm3.75,11.09H224.05c-.27.68-.54,1.37-.8,2.07h37.86C260.89,156.1,260.68,155.41,260.46,154.73Zm3.34,11.08H220.17c-.22.69-.43,1.39-.64,2.08h44.88C264.2,167.19,264,166.5,263.8,165.81Zm3.14,11.08H217c-.18.71-.35,1.4-.52,2.08h51Zm3.37,12.44L270,188H214.48c-.15.74-.28,1.43-.41,2.08H270.5Zm2.54,9.73H212.53c-.13.7-.25,1.39-.38,2.08h61.23C273.21,200.46,273,199.76,272.85,199.06Zm2.81,11.09H210.41v.21c-.13.63-.25,1.25-.37,1.86h66.12C276,211.56,275.83,210.87,275.66,210.15Zm2.63,11.08h-70c-.14.75-.28,1.44-.4,2.08h67.5l1.54-.17a6.9,6.9,0,0,0,1.66-.28A10.24,10.24,0,0,0,278.29,221.23Zm-63.59,6.38.58,0V184.22c-.21.95-.41,1.85-.58,2.71Zm11.43-77.77c-.09.19-.18.38-.26.58h-.05v76.5l.58,0V149.25Zm11-15.2-.22.11v91.43l.58,0V134.48Zm10.91-.82v91.61l.57-.05V134Zm11.12,17v73.86l.57,0V152.5C259.57,151.91,259.38,151.33,259.19,150.77Zm11.31,39.29-.19-.73v34.43l.58,0V191.54Zm-15.76-51.12-.11-.22H232.57l-.43.57h22.77Zm4.15,10.9H226.13c-.09.19-.18.38-.26.58h33.2ZM262.37,161H221.75c-.06.19-.13.38-.2.58h41C262.49,161.34,262.43,161.15,262.37,161Zm3.23,11.12H218.31c-.05.2-.1.39-.16.58h47.61C265.71,172.47,265.65,172.28,265.6,172.08Zm3.07,11.13H215.51c0,.19-.09.38-.13.57h53.44Zm2.95,11.12H213.34c0,.19-.06.38-.1.57h58.53Zm2.85,11.12H211.35c0,.19-.07.39-.11.58h63.38C274.58,205.84,274.53,205.64,274.47,205.45Zm2.75,11.12h-68c0,.2-.07.39-.11.58h68.28C277.31,217,277.26,216.77,277.22,216.57Zm-70,11.13a.46.46,0,0,0,.06.29s.36,0,1,0l2.08-.11,2.74-.16Z" style="opacity:0.1"></path><path d="M193.56,225a14.56,14.56,0,0,1,.58-3.19c.28-1,.59-2.09.91-3.12.66-2.08,1.37-4.13,2.11-6.18,1.49-4.09,3.06-8.16,4.68-12.21,3.3-8.08,15.88-38.84,20.14-46.55,2.15-3.85,4.38-7.67,6.9-11.36A49.65,49.65,0,0,1,233,137a12.16,12.16,0,0,1,1.3-1.28,8.45,8.45,0,0,1,1.62-1,10.36,10.36,0,0,1,3.72-1c2.57-.21,7.22-.7,9.52,0l.85.29a5,5,0,0,1,1,.46,4.54,4.54,0,0,1,1.43,1.51,9.41,9.41,0,0,1,1.11,3.37,30.74,30.74,0,0,1,.17,6.63c-.15,2.18-.42,4.34-.74,6.49-.67,4.3-1.56,8.55-2.56,12.78s-2.1,8.42-3.31,12.6c-2.39,8.35-5,16.63-7.81,24.87s-5.76,16.43-8.95,24.54c2.76-8.24,5.49-16.49,8-24.79s5.06-16.6,7.27-25a244.06,244.06,0,0,0,5.57-25.26c.3-2.12.55-4.24.68-6.37a29.09,29.09,0,0,0-.19-6.27,8,8,0,0,0-.92-2.79,2.9,2.9,0,0,0-.86-.91,7.71,7.71,0,0,0-1.38-.53c-2.13-.68-6.56-.1-8.69.08a8.32,8.32,0,0,0-3,.79,6.89,6.89,0,0,0-1.26.8,10.17,10.17,0,0,0-1.11,1.08,49.6,49.6,0,0,0-4,5.17c-2.49,3.61-4.73,7.38-6.89,11.19-4.31,7.63-17.36,38.12-20.83,46.12-1.75,4-3.46,8-5.08,12.06-.81,2-1.59,4.05-2.32,6.1-.37,1-.73,2-1.05,3.08A15,15,0,0,0,193.56,225Z" style="fill:#a6a6a6"></path><rect x="193.66" y="224.7" width="35.88" height="21.8" transform="translate(27.83 -22.29) rotate(6.45)" style="fill:#263238"></rect><rect x="199.03" y="222.62" width="6.32" height="0.94" transform="translate(26.36 -21.31) rotate(6.45)" style="fill:#263238"></rect><rect x="200.3" y="221.71" width="3.99" height="0.94" transform="translate(26.26 -21.34) rotate(6.46)" style="fill:#263238"></rect><polygon points="223.82 226.02 214.33 224.94 215.66 222.14 223.16 222.99 223.82 226.02" style="fill:#263238"></polygon><rect x="216.76" y="223.73" width="4.82" height="1.76" transform="matrix(0.99, 0.11, -0.11, 0.99, 26.64, -23.22)" style="fill:#fff"></rect><polygon points="193.76 225.53 193.56 227.25 194.44 227.66 194.36 228.4 192.93 227.72 193.25 224.92 194.79 224.58 194.71 225.32 193.76 225.53" style="fill:#263238"></polygon><polygon points="231.24 229.77 231.05 231.49 230.1 231.69 230.02 232.43 231.56 232.09 231.87 229.29 230.45 228.62 230.37 229.35 231.24 229.77" style="fill:#263238"></polygon><path d="M204.89,227.38a56.59,56.59,0,0,1-.38,7.82,54,54,0,0,1-1.38,7.71,61,61,0,0,1,1.76-15.53Z" style="fill:#455a64"></path><path d="M216.81,245.54a8.9,8.9,0,1,1,9.84-7.84A8.89,8.89,0,0,1,216.81,245.54Zm1.94-17.18a8.4,8.4,0,1,0,7.4,9.29A8.41,8.41,0,0,0,218.75,228.36Z" style="fill:#37474f"></path><path d="M224.61,237.47a6.85,6.85,0,1,1-6-7.57A6.84,6.84,0,0,1,224.61,237.47Z" style="fill:#455a64"></path><path d="M229,228.45a.72.72,0,1,1-1.44-.16.73.73,0,0,1,.8-.63A.72.72,0,0,1,229,228.45Z" style="fill:#ffc427"></path><path d="M228.8,141.36c-21.07,17.62-49.16,56.23-45.46,65,4.13,9.72,33.49-15,33.54-16.59,0-1.21,11.84-25.17,20.71-42.57S234,137,228.8,141.36Z" style="fill:#f7a9a0"></path><path d="M217.05,189.79c1.08-2.58,17-34.14,21.69-44.16s1.57-13.55-9.79-5.06-37.32,38-44.16,54.35c-6.6,15.74,1.75,16.54,13.49,10.13C207.89,199.79,217.05,189.79,217.05,189.79Z" style="fill:#37474F"></path><path d="M193,199.06v2.08h4.22v-2.08Zm-4.79,6.39V206h8.15c.28-.13.57-.28.86-.44l.28-.14Zm9-6.39H193v2.08h4.22Zm-4.22,0v2.08h4.22v-2.08Zm-10.41,6.39a2.74,2.74,0,0,0,.15.58h3.39v-.58Zm21.53-11.12v-4.27h4.18V188h-4.75v6.35H188.24v.57h23.64l.61-.57Zm-19.11,0-.24.57h1.36v-.57Zm30.24-11.12V179h4.13v-2.08h-9V179h4.29v4.24h-4.29V179h-2.08v4.24h-17l-.37.57h6.31V188H193v2.08h4.22v4.27h2.07v-4.27h4.26V188h-4.26v-4.2h4.26V188h.57v-4.2H220c.09-.19.18-.38.28-.57ZM193,194.33v.57h4.22v-.57Zm22.25-22.25v-4.19h-.58v4.19H199.32l-.45.58h4.71v4.23h-4.26V179h11.09v-6.31h15.06c.1-.19.2-.38.29-.58Zm-11.13,4.81v-4.23h4.18v4.23Zm22.25-22.16v2.07h4.1v-2.07Zm0,6.23V156.8h-.58V161H208.45l-.12.14c-.13.15-.25.3-.38.44h6.75v4.27h-4.29v2.08h4.87v-6.35H231l.29-.58Zm4.1-6.23h-4.1v2.07h4.1Zm-4.1,0v2.07h4.1v-2.07Zm-16,17.35v.58h4.29v-.58Zm8.31-22.24-.57.58h7.67v4.31h-4.33v2.07h4.91v-6.38h10c.1-.2.2-.39.29-.58Zm12.87-11.12-.86.57h10.06q0-.3,0-.57Zm5.35-2.69v13.39l.58-1.21V135.89A4.43,4.43,0,0,0,236.94,136Zm-11.12,7.09v11.61h-4.33v2.07h4.33V172l.58-1.16V142.62Zm-10.54,33.77V153.41l-.58.61v11.79h-4.29v2.08h4.29v9h-4.29V179h4.29V192.2l.58-.57V179h4.13v-2.08ZM208.33,179v4.24h2.08V179Zm0,4.81v-.57h-4.18V166l-.57.69v10.16h-4.26V179h4.26v22.72l.57-.42V190.06h4.18V188h-4.18v-4.2ZM193,194.33V180.66l-.58.85v12.82h-4.21v.57h4.21v12.82l.58-.2V194.9h4.22v-.57Zm6.29,4.73V194.9h4.26v-.57h-6.33v4.73h-9v2.08h16.09c.93-.68,1.84-1.38,2.71-2.08Zm-16,0c-.22.74-.4,1.43-.53,2.08h3.4v-2.08ZM210.41,188v-4.2h4.29v-.57h-4.29V179h-2.08v9h-20a1.74,1.74,0,0,0-.11.18v1.9h4.21v4.27h-4.21v.57h9v-.57H193v-4.27h4.22v4.27h2.07v-4.27H216.8l.25-.27c.12-.28.41-.91.85-1.81Zm0-11.09V179h4.29v-2.08Zm-14.7,0c-.52.7-1,1.39-1.5,2.08h28.13l1-2.08ZM221.49,161v.58h4.33V161Zm0,4.85v-4.27h-2.08v4.27H204.34l-.19.23-.57.69-1,1.16h5.7v4.19h-4.18v.58h4.18v4.23h-4.18V179h6.26v-6.31h4.29v-.58h-4.29v-4.19h17.44l1-2.08Zm4.33-4.85h-4.33v.58h4.33Zm-4.33,0v.58h4.33V161ZM214,154.73q-.94,1-1.89,2.07h7.26V161h-4.13v.58h6.21V156.8h11.85l1-2.07Zm12.36-4.89v.58h4.1v-.58Zm-1.17-6.2c-.73.64-1.5,1.34-2.29,2.08H238.7l0-.09c.32-.69.61-1.36.85-2Zm1.17,6.78h4.1v-.58h-4.1Zm0-.58v.58h4.1v-.58Zm5.19-11.12-.86.57-.23.16v23.11c.16-.34.33-.68.5-1l.29-.58c.43-.89.87-1.76,1.29-2.62V138.08C232.26,138.28,231.93,138.49,231.59,138.72Zm-12.18,10.43V161h-4.13v.58h4.13v4.27h-4.13v2.08h4.13v4.19h-4.13v-4.19h-.58v9h.58v-4.23h4.13v12.23l.55-1.11c.09-.19.18-.38.28-.57l1.25-2.53V147.1C220.81,147.75,220.12,148.44,219.41,149.15Zm-9,23.51h4.29v-.58h-4.29V158.74c-.66.73-1.31,1.47-2,2.22l-.12.14v11h-4.18v.58h4.18v4.23h-4.18V179h4.18v19c.73-.6,1.42-1.2,2.08-1.78V183.78h4.29v-.57h-4.29ZM208.33,179v4.24h2.08V179Zm-4.18,4.24V179h-.57v4.24h-4.26V172.08l-.45.58q-.83,1.07-1.62,2.13V188H193v2.08h4.22v15.53l.28-.14.75-.4,1-.59V194.9h4.26v-.57h-4.26v-4.27h4.26V188h-4.26v-4.2h4.26V188h.57v-4.2h4.18v-.57Zm-11.7,11.69v4.16h-4.21v2.08h4.21v4.31H193V194.9Zm0,6.24v4.31H193v-4.31Z" style="opacity:0.1"></path><path d="M188.24,205.45v3.31a9,9,0,0,1-2.08,0v-3.29Z" style="opacity:0.1"></path><path d="M188.24,188.16v17.29h-2.08V192c.31-.62.65-1.26,1-1.91S187.86,188.8,188.24,188.16Z" style="opacity:0.1"></path><path d="M230,163.81a11.35,11.35,0,0,1,1.47-2.13,12.15,12.15,0,0,1,1.87-1.78,11.61,11.61,0,0,1-1.47,2.12A11.34,11.34,0,0,1,230,163.81Z" style="fill:#263238"></path><path d="M218.94,185.19c1.06-2.45,2.2-4.86,3.34-7.26s2.36-4.77,3.53-7.16,2.43-4.73,3.69-7.07,2.53-4.68,3.88-7c-1.06,2.44-2.2,4.85-3.34,7.25s-2.35,4.77-3.53,7.16-2.43,4.73-3.69,7.07S220.29,182.89,218.94,185.19Z" style="fill:#263238"></path><path d="M248.27,144.47c-3.54,1.19-11.09-4.14-14-8.39-.2-.3,0-3.57,0-7.57,0-2.42-.05-5.12-.28-7.57l15.76,2.31a39.72,39.72,0,0,0-.61,9.58,5.9,5.9,0,0,0,.2,1s0,.1,0,.16C249.91,135.88,251.68,143.32,248.27,144.47Z" style="fill:#f7a9a0"></path><path d="M249.38,133.83a1.43,1.43,0,0,0,0,.16,10,10,0,0,1-1.57.24c-8.94.62-12.05-10.1-12.74-13.14l3.93.58,10.77,1.59a38.82,38.82,0,0,0-.62,9.57A5.06,5.06,0,0,0,249.38,133.83Z" style="fill:#263238"></path><path d="M249.23,133.13l-1.61,9.61L234.2,134l-2.33,4.26s14.62,15.41,14.52,14.59l2-8.41,6.41,4.15-3.33-13.21Z" style="fill:#fff"></path><path d="M253.49,141.94c-.62-2.16-1.19-4.36-1.91-6.49,0-.07-.16-.08-.16,0,0,2.22,2.46,10.47,2.89,12.48l0,0c-.27-.18-5.89-3.59-5.92-3.51-.53,1.38-2,7.51-2.06,8.05C244,150,235.24,141.19,232.65,139a.08.08,0,0,0-.12.11c2.15,2.65,13.78,14.57,13.91,14.5a88.68,88.68,0,0,0,2-8.88c1,.79,6.79,4.76,6.73,4.43A68.15,68.15,0,0,0,253.49,141.94Z" style="fill:#263238"></path><path d="M230.6,103.13c-1.19,5.74,3.26,21.59,7.57,24.81,6.24,4.68,15.71,4.3,19.49-3,3.67-7.11-2.5-27.66-7.23-30.52C243.45,90.19,232.34,94.65,230.6,103.13Z" style="fill:#f7a9a0"></path><path d="M247.37,111.76s-.07.07-.06.12c.33,1.06.53,2.33-.34,3,0,0,0,.07,0,0C248.13,114.39,247.85,112.71,247.37,111.76Z" style="fill:#263238"></path><path d="M246.1,110.91c-1.75.34-.94,3.82.69,3.51S247.58,110.62,246.1,110.91Z" style="fill:#263238"></path><path d="M253.35,110.26s.09,0,.1.07c.22,1.09.65,2.3,1.71,2.43,0,0,.05.06,0,.06C253.94,112.93,253.38,111.32,253.35,110.26Z" style="fill:#263238"></path><path d="M254.05,108.91c1.7-.54,2.65,2.91,1.07,3.41S252.62,109.36,254.05,108.91Z" style="fill:#263238"></path><path d="M244.58,110a14.42,14.42,0,0,0,1.47,0,2.36,2.36,0,0,0,1.5-.28.75.75,0,0,0,.19-.9A1.85,1.85,0,0,0,246,108a2.76,2.76,0,0,0-1.9.58A.81.81,0,0,0,244.58,110Z" style="fill:#263238"></path><path d="M254.73,105.81a14.37,14.37,0,0,1-1.47,0,2.37,2.37,0,0,1-1.5-.33.75.75,0,0,1-.16-.9,1.86,1.86,0,0,1,1.74-.77,2.76,2.76,0,0,1,1.88.64A.81.81,0,0,1,254.73,105.81Z" style="fill:#263238"></path><path d="M248.39,121.85c.31.19.65.48,1.05.42a2.83,2.83,0,0,0,1.1-.54,0,0,0,0,1,.06,0,1.49,1.49,0,0,1-1.23.91,1.2,1.2,0,0,1-1.08-.76S248.34,121.82,248.39,121.85Z" style="fill:#263238"></path><path d="M248.77,118.35a3.74,3.74,0,0,0,2.83,1.06,4.72,4.72,0,0,0,1.34-.24l.24-.09.23-.09a.28.28,0,0,0,.16-.3h0a.36.36,0,0,0,0-.11h0l0-.09c-.17-.84-.55-2.09-.55-2.09.34.08,2,.42,1.93,0a56.79,56.79,0,0,0-4-10.79c-.06-.11-.23,0-.19.07.87,3.45,2.35,6.72,3.29,10.17a6.28,6.28,0,0,0-1.85-.12c-.11.06.77,2.39.81,2.77a.1.1,0,0,1,0,0,5.24,5.24,0,0,1-4.09-.29C248.75,118.19,248.68,118.28,248.77,118.35Z" style="fill:#263238"></path><path d="M252.43,119.11a4.39,4.39,0,0,1-1.51,1.63,2,2,0,0,1-1.17.27c-.9-.09-1.05-.87-1-1.57a4.8,4.8,0,0,1,.22-1.09A5.63,5.63,0,0,0,252.43,119.11Z" style="fill:#263238"></path><path d="M250.92,120.74a2,2,0,0,1-1.17.27c-.9-.09-1.05-.87-1-1.57A2.06,2.06,0,0,1,250.92,120.74Z" style="fill:#ff98b9"></path><path d="M255.93,101c-4.66,4.74-14.8-.09-14.8-.09a6.13,6.13,0,0,1-5.17,5.18s1.09,9.52-1.37,10.08c-.93.2-1.89-.42-2.78-1.5-1.17-4.51-1.74-9-1.22-11.52,1.75-8.48,13.35-13.59,20.33-9.38C252.2,94.52,254.66,98.22,255.93,101Z" style="fill:#263238"></path><path d="M236,115.09s-4.23-4.79-6.44-3.22,1.37,8.79,4.26,9.51a2.84,2.84,0,0,0,3.61-1.94Z" style="fill:#f7a9a0"></path><path d="M230.61,113.91a0,0,0,0,0,0,.08c2,.57,3.26,2.25,4.19,4a1.57,1.57,0,0,0-2.38-.16s0,.12.07.1a1.74,1.74,0,0,1,2,.39,8.08,8.08,0,0,1,1.08,1.44c.12.16.42,0,.33-.16l0,0C235.62,117.11,233.3,113.86,230.61,113.91Z" style="fill:#263238"></path><path d="M250.85,93.48c-2.09,1.2-6.62,4.21-11.08,7.29-3.52,2.44-7,4.92-9.19,6.6a14.09,14.09,0,0,0-2.27,1.95l0,0,.08-.17v0a6.29,6.29,0,0,0-.1-.74c-.48-2.89-2.5-13.16-2.09-13.95s5.68-.4,5.94-.51,2.24-7.9,3.36-8c1.6-.17,14.64,7.62,14.9,7.69h.2l.13,0Z" style="fill:#37474F"></path><path d="M261.06,91.41v0c-.17.43-14.41,8.12-20.05,11.87s-15.49,13.85-16.16,13.59c-.25-.1.15-1.13.77-2.41a.91.91,0,0,1,.07-.14c0-.1.09-.19.14-.29l.07-.15c.84-1.69,1.91-3.61,2.34-4.44l.06-.13h0c.65-1.22,17.83-13.12,22.54-15.84h0l.74-.15.2,0,1.68-.38.23,0,.58-.13.59-.13h0l.43-.1.44-.1.17,0,.37-.08.75-.17.2,0,.83-.18.17,0h0l.17,0h0l.17,0,.18,0,.16,0,.82-.16.15,0,.13,0h.08l.27,0,.26,0h.33Z" style="fill:#37474F"></path><path d="M250.85,93.48h0c-4.71,2.72-21.89,14.62-22.54,15.84h0c-.18.26-1.34-2.88-1.16-3.34a8.46,8.46,0,0,1,.62-.81c.22-.27.51-.61.86-1l.21-.23.68-.75.23-.24.66-.69.21-.21A59.5,59.5,0,0,1,245.75,90.8c.52-.27,1.05-.52,1.58-.76S251.28,93.21,250.85,93.48Z" style="fill:#263238"></path><polygon points="265.03 151.4 256.25 205.93 247.76 204.82 253.88 149.94 265.03 151.4" style="fill:#263238"></polygon><path d="M261.57,134.51h0a8.91,8.91,0,0,0-10,7.67l-.4,3.06a8.34,8.34,0,0,0,7.19,9.35l1.12.15a8.35,8.35,0,0,0,9.36-7.19l.4-3.05A8.92,8.92,0,0,0,261.57,134.51Z" style="fill:#a6a6a6"></path><rect x="250.71" y="144.36" width="18.94" height="1.94" transform="translate(21.08 -32.56) rotate(7.46)" style="fill:#c7c7c7"></rect><rect x="248.09" y="152.87" width="19.73" height="18.88" transform="translate(26.49 -35.96) rotate(8.4)" style="fill:#455a64"></rect><g id="freepik--aiZGp2--inject-119"><path d="M254.71,158.58a8.92,8.92,0,0,0-1,2.68h0l-2.39-.36h0v-.07a1.21,1.21,0,0,1,0-.18,7.5,7.5,0,0,1,.3-.95,7.94,7.94,0,0,1,.78-1.43s0,0,.06,0l2.24.34Z" style="fill:#fff"></path><path d="M253.7,164.76h0l-2.22-.34s0,0-.05,0a6.85,6.85,0,0,1-.3-1.79,6.43,6.43,0,0,1,0-.88v-.1h0l2.37.36s0,0,0,.05c0,.2,0,.4,0,.6a7.51,7.51,0,0,0,0,.95,7.39,7.39,0,0,0,.15,1.15Z" style="fill:#fff"></path><path d="M263.07,166.91l0,0a6.73,6.73,0,0,1-.77.74,7.06,7.06,0,0,1-1.06.72,7.48,7.48,0,0,1-1.17.5,8.18,8.18,0,0,1-1.19.27,6.37,6.37,0,0,1-1,.05h-.15l-.05,0,.07,0a7.51,7.51,0,0,0,2-1.45,8.64,8.64,0,0,0,.9-1.1.09.09,0,0,1,.07,0l2.26.35Z" style="fill:#fff"></path><path d="M261.44,162.44l-3.16-.48.42-2.77h0l2.44.37s0,0,0,0a7.52,7.52,0,0,1,.26,1.7c0,.3,0,.6,0,.9C261.45,162.28,261.45,162.35,261.44,162.44Z" style="fill:#fff"></path><path d="M261.31,163.17a1.42,1.42,0,0,1,0,.2c0,.15-.07.3-.11.45s-.13.42-.2.62a7.65,7.65,0,0,1-.62,1.29,0,0,0,0,1-.06,0l-2.5-.38h0l.4-2.68Z" style="fill:#fff"></path><path d="M258,159.1l-.42,2.77-3.1-.47c0-.07,0-.14,0-.21l.12-.45c.08-.23.15-.46.24-.69a7.09,7.09,0,0,1,.65-1.29s0,0,.06,0l2.36.36Z" style="fill:#fff"></path><path d="M257.45,162.62c-.14.87-.27,1.74-.4,2.61v0H257l-2.43-.36a.06.06,0,0,1,0-.05,7.23,7.23,0,0,1-.2-1.46c0-.25,0-.51,0-.76s0-.33,0-.5h0l3,.46S257.45,162.59,257.45,162.62Z" style="fill:#fff"></path><path d="M264.8,163l-2.6-.39a9,9,0,0,0-.18-2.88h0l2.38.36s0,0,.05,0a6.65,6.65,0,0,1,.34,1.83,8.18,8.18,0,0,1,0,1S264.8,163,264.8,163Z" style="fill:#fff"></path><path d="M264.7,163.66c0,.07,0,.13,0,.18-.05.24-.12.46-.19.69a7.54,7.54,0,0,1-.71,1.49l-.15.22s0,0,0,0l-2.39-.36h0l.12-.23a8.72,8.72,0,0,0,.51-1.22c.1-.3.19-.61.26-.92,0-.08,0-.15,0-.22s0,0,0,0h0Z" style="fill:#fff"></path><path d="M264.16,159.29h0l-2.27-.35s0,0-.05,0a8,8,0,0,0-.88-1.84,7.37,7.37,0,0,0-.74-.93l-.42-.41,0,0,0,0v-.05a6.91,6.91,0,0,1,4.4,3.66Z" style="fill:#fff"></path><path d="M256,168.93H256a6.93,6.93,0,0,1-.72-.26A6,6,0,0,1,254,168a6.54,6.54,0,0,1-1.21-1.08,6.22,6.22,0,0,1-.69-.93,5.68,5.68,0,0,1-.39-.78v0h0l2.11.32s0,0,0,0a7.6,7.6,0,0,0,.58,1.38,8.17,8.17,0,0,0,.76,1.15,7.67,7.67,0,0,0,.77.84Z" style="fill:#fff"></path><path d="M258.05,155.44l-.35.19a7.8,7.8,0,0,0-1.17.8,7.09,7.09,0,0,0-1.31,1.37.61.61,0,0,1-.07.1h0l-.11,0-2.07-.31a6.83,6.83,0,0,1,5.11-2.19l0,0Z" style="fill:#fff"></path><path d="M259.87,166.43a7.51,7.51,0,0,1-1.26,1.26,6.89,6.89,0,0,1-1.35.83l.37-2.43Z" style="fill:#fff"></path><path d="M256.93,166l-.36,2.38a7.14,7.14,0,0,1-1.79-2.71Z" style="fill:#fff"></path><path d="M261,158.8l-2.16-.33.35-2.27a6.59,6.59,0,0,1,1.05,1.19A8,8,0,0,1,261,158.8Z" style="fill:#fff"></path><path d="M258.42,156.16l-.33,2.22-2.07-.31A6.57,6.57,0,0,1,258.42,156.16Z" style="fill:#fff"></path></g><path d="M184,207.43c6.4,4,20,1.07,49.46-5,4.07-.84,3.59-31.66-.8-31-5.54.85-26.83,5.34-28.34,5.87C191.51,181.74,179.63,204.68,184,207.43Z" style="fill:#f7a9a0"></path><path d="M269.15,166.22a4.8,4.8,0,0,1-.62,5.44,7.1,7.1,0,0,1,3.26,3.57c1,2.75-2.89,5.52-2.89,5.52a8.76,8.76,0,0,1,2.84,4.31c.69,2.73-2.83,6.08-2.83,6.08a7.7,7.7,0,0,1,.11,5.37c-1.81,4.59-9.23,6-13.93,6.87s-18.91-.88-21.65-.95l-6.15-30.14s19.92-10.12,25.6-10.41C257.68,161.63,267.26,163,269.15,166.22Z" style="fill:#f7a9a0"></path><path d="M268.22,171.22c-5.16-1-10.31-.34-15.49,0a.09.09,0,1,0,0,.18c5.15-.38,10.31.26,15.46.09A.13.13,0,0,0,268.22,171.22Z" style="fill:#263238"></path><path d="M268.72,180.37a13.8,13.8,0,0,0-3.57.16c-1.26.14-2.51.31-3.77.49-2.5.37-5,.79-7.49,1.29-.11,0-.11.19,0,.18,2.5-.36,5-.69,7.52-.94q1.89-.2,3.78-.36a16.3,16.3,0,0,0,3.55-.47A.18.18,0,0,0,268.72,180.37Z" style="fill:#263238"></path><path d="M268.8,191.15a9.41,9.41,0,0,0-3.2.32l-3.43.55c-2.28.36-4.56.71-6.86,1a.09.09,0,0,0,0,.18c2.33-.27,4.66-.51,7-.8,1.15-.14,2.29-.29,3.43-.45a8.84,8.84,0,0,0,3.07-.67A.07.07,0,0,0,268.8,191.15Z" style="fill:#263238"></path><path d="M229.05,170.86,216.38,208s-26.4,4.57-32.54-.12c-4-3.09,7.23-27.11,21.73-30.92Z" style="fill:#37474F"></path><path d="M210.41,205.45v-4.31h4.29v-2.08h-4.29V194.9h4.29v-.57H204.15v.57h4.18v4.16h-4.18V194.9h-.57v4.16H193v2.08h4.22v4.31h-9V206h28.81l.19-.58Zm-11.09,0v-4.31h4.26v4.31Zm4.83,0v-4.31h4.18v4.31ZM183,206h3.12v-.58H183A5.35,5.35,0,0,0,183,206Zm5.2-11.7v.57h4.21v4.16h-4.21v2.08H193V194.9h4.22v4.16h2.07V194.9h21.52l.2-.57Zm7-11.12c-.2.18-.39.37-.58.57h9V188h-4.26v2.08h4.26v4.27h-4.26v.57h4.83v-4.84H214.7V188h-4.29v-4.2h14.23l.19-.57ZM208.33,188h-4.18v-4.2h4.18Zm16-15.9-2.24.58h6.34l.19-.58Zm1.48-.38v8.62l.46-1.35.12-.35v-7.07Zm-11.12,2.88v33.67l.58-.09V174.43Zm-6.37,19.75h2.08v-4.27h-2.08Zm-4.75-16.73v32l.57,0V177.38Zm-11.13,8.53v23.78c.19,0,.39,0,.58,0V185.47Zm22.83,12.93V194.9h4.13v-.57H204.15v.57h4.18v4.16h-4.18V194.9h-.57v4.16H188.24v2.08h30.47l.7-2v0Zm-4.87,0V194.9h4.29v4.16Zm-26.6,2.08h2.35v-2.08h-1.61C184.27,199.78,184,200.48,183.81,201.14ZM191,188c-.53.68-1,1.38-1.52,2.08h7.82v4.27H193v.57h4.22v4.16h2.07V194.9h4.83v-4.84H222.5l.71-2.08Zm12.63,6.35h-4.26v-4.27h4.26Zm2.18-17.44-.19.05c-.48.13-.95.27-1.42.44l-.57.22a20.33,20.33,0,0,0-2.82,1.37h7.57v4.24h-4.18v.57h4.18V188h-4.18v2.08H214.7V188h-4.29v-4.2h9v-.57h-4.13V179h11l.12-.35.59-1.73Zm8.94,6.32h-4.29V179h4.29Zm4.71-9.85V188h-4.13v-4.2h-.58v10.55h.58v-4.27h4.13v9l1.42-4.16.2-.57.45-1.32V172.82Zm-11.08,21h2.08v-4.27h-2.08Zm0-18.1v32.88l2.08-.25V175.69Zm-11.08,5.17V210c.68,0,1.38,0,2.07-.08v-30Q198.26,180.59,197.25,181.4Zm-4.8,19.74v4.31H193v-4.31Z" style="opacity:0.1"></path><path d="M188.24,191.88v17.59a14.42,14.42,0,0,1-2.08-.5V195.53l.33-.63c.1-.19.2-.38.31-.57C187.24,193.52,187.72,192.7,188.24,191.88Z" style="opacity:0.1"></path><path d="M191,188.12a34.52,34.52,0,0,1,10.17-9.64c5.32-3.22,24.19-7,27.81-7.68.07,0,.12.1.05.12-2.91.86-22.95,5.48-27.56,8.19a49.57,49.57,0,0,0-10.37,9.09C191.08,188.26,191,188.19,191,188.12Z" style="fill:#263238"></path><path d="M208,206.27c1.18-4.09,2.58-8.11,4-12.13s2.81-8,4.32-12c.86-2.25,1.7-4.51,2.63-6.73,0-.06.13,0,.11,0-1.18,4.09-2.56,8.12-3.95,12.14s-2.81,8-4.27,12c-.83,2.26-1.7,4.51-2.63,6.73C208.16,206.44,208,206.39,208,206.27Z" style="fill:#263238"></path><path d="M210.76,208.81c1.85-.48,3.72-.74,5.57-1l-.15.14c.3-.73.59-1.45,1-2.15-.14.77-.35,1.53-.56,2.28l0,.11-.13,0a22.47,22.47,0,0,1-5.66.62Z" style="fill:#263238"></path></g></svg>